SplineFontDB: 3.0
FontName: Strobrod-Regular
FullName: Strobrod
FamilyName: Strobrod
Weight: Book
Copyright: CC, Aaron Christianson, Nicolas Mercier
UComments: "2017-3-27: Created with FontForge (http://fontforge.org)"
Version: 001.000
StrokeWidth: 600
ItalicAngle: 0
UnderlinePosition: -100
UnderlineWidth: 0
Ascent: 800
Descent: 736
InvalidEm: 0
LayerCount: 2
Layer: 0 0 "Back" 1
Layer: 1 0 "Fore" 0
StrokedFont: 1
XUID: [1021 68 1269985762 15680502]
StyleMap: 0x0040
FSType: 0
OS2Version: 3
OS2_WeightWidthSlopeOnly: 0
OS2_UseTypoMetrics: 1
CreationTime: 1490615230
ModificationTime: 1495914743
PfmFamily: 49
TTFWeight: 400
TTFWidth: 5
LineGap: -536
VLineGap: 0
Panose: 2 11 5 9 0 0 0 0 0 0
OS2TypoAscent: 800
OS2TypoAOffset: 0
OS2TypoDescent: -200
OS2TypoDOffset: 0
OS2TypoLinegap: 0
OS2WinAscent: 800
OS2WinAOffset: 0
OS2WinDescent: 200
OS2WinDOffset: 0
HheadAscent: 800
HheadAOffset: 0
HheadDescent: -200
HheadDOffset: 0
OS2Vendor: 'PfEd'
MarkAttachClasses: 1
DEI: 91125
LangName: 1033
GaspTable: 2 0 1 65535 1 1
DesignSize: 100
Encoding: iso8859-15
UnicodeInterp: none
NameList: AGL For New Fonts
DisplaySize: 10
AntiAlias: 1
FitToEm: 0
WinInfo: 0 61 19
BeginPrivate: 0
EndPrivate
TeXData: 1 10485760 0 524288 262144 174762 524288 1048576 174762 783286 444596 497025 792723 393216 433062 380633 303038 157286 324010 404750 52429 2506097 1059062 262144
BeginChars: 546 546

StartChar: exclam
Encoding: 33 33 1
Width: 638
VWidth: 0
Flags: W
HStem: 0 100<309 415> 600 0G<309 415>
VStem: 297 100<0 104 209 625>
LayerCount: 2
Back
SplineSet
312.5 625 m 29
 416.69921875 625 l 25
 416.69921875 208.30078125 l 25
 312.5 208.30078125 l 25
 312.5 625 l 29
312.5 104.19921875 m 25
 416.69921875 104.19921875 l 25
 416.69921875 0 l 25
 312.5 0 l 25
 312.5 104.19921875 l 25
EndSplineSet
Fore
SplineSet
297 600 m 25
 397 600 l 25
 397 200 l 25
 297 200 l 25
 297 600 l 25
297 100 m 25
 397 100 l 25
 397 0 l 25
 297 0 l 25
 297 100 l 25
EndSplineSet
EndChar

StartChar: quotedbl
Encoding: 34 34 2
Width: 638
VWidth: 0
Flags: W
HStem: 500 200<206 309 415 518>
VStem: 197 100<521 729> 397 100<521 729>
LayerCount: 2
Back
SplineSet
416.69921875 729.19921875 m 29
 520.80078125 729.19921875 l 25
 520.80078125 520.80078125 l 25
 416.69921875 520.80078125 l 25
 416.69921875 729.19921875 l 29
208.30078125 729.19921875 m 25
 312.5 729.19921875 l 25
 312.5 520.80078125 l 25
 208.30078125 520.80078125 l 25
 208.30078125 729.19921875 l 25
EndSplineSet
Fore
SplineSet
397 700 m 25
 497 700 l 25
 497 500 l 25
 397 500 l 25
 397 700 l 25
197 700 m 25
 297 700 l 25
 297 500 l 25
 197 500 l 25
 197 700 l 25
EndSplineSet
EndChar

StartChar: numbersign
Encoding: 35 35 3
Width: 638
VWidth: 0
Flags: W
HStem: 200 100<101 206 309 415 518 622> 400 100<101 206 309 415 518 622> 600 0G<206 309 415 518>
VStem: 197 100<104 209 312 418 521 625> 397 100<104 209 312 418 521 625>
LayerCount: 2
Back
SplineSet
312.5 416.69921875 m 29
 312.5 312.5 l 25
 416.69921875 312.5 l 25
 416.69921875 416.69921875 l 25
 312.5 416.69921875 l 29
104.19921875 520.80078125 m 25
 208.30078125 520.80078125 l 25
 208.30078125 625 l 25
 312.5 625 l 25
 312.5 520.80078125 l 25
 416.69921875 520.80078125 l 25
 416.69921875 625 l 25
 520.80078125 625 l 25
 520.80078125 520.80078125 l 25
 625 520.80078125 l 25
 625 416.69921875 l 25
 520.80078125 416.69921875 l 25
 520.80078125 312.5 l 25
 625 312.5 l 25
 625 208.30078125 l 25
 520.80078125 208.30078125 l 25
 520.80078125 104.19921875 l 25
 416.69921875 104.19921875 l 25
 416.69921875 208.30078125 l 25
 312.5 208.30078125 l 25
 312.5 104.19921875 l 25
 208.30078125 104.19921875 l 25
 208.30078125 208.30078125 l 25
 104.19921875 208.30078125 l 25
 104.19921875 312.5 l 25
 208.30078125 312.5 l 25
 208.30078125 416.69921875 l 25
 104.19921875 416.69921875 l 25
 104.19921875 520.80078125 l 25
EndSplineSet
Fore
SplineSet
297 400 m 25
 297 300 l 25
 397 300 l 25
 397 400 l 25
 297 400 l 25
97 500 m 25
 197 500 l 25
 197 600 l 25
 297 600 l 25
 297 500 l 25
 397 500 l 25
 397 600 l 25
 497 600 l 25
 497 500 l 25
 597 500 l 25
 597 400 l 25
 497 400 l 25
 497 300 l 25
 597 300 l 25
 597 200 l 25
 497 200 l 25
 497 100 l 25
 397 100 l 25
 397 200 l 25
 297 200 l 25
 297 100 l 25
 197 100 l 25
 197 200 l 25
 97 200 l 25
 97 300 l 25
 197 300 l 25
 197 400 l 25
 97 400 l 25
 97 500 l 25
EndSplineSet
EndChar

StartChar: dollar
Encoding: 36 36 4
Width: 638
VWidth: 0
Flags: W
HStem: -100 0G<309 415> 0 100<101 309 415 518> 100 100<518 622> 200 100<206 518> 300 100<101 206> 400 100<206 309 415 622> 600 0G<309 415>
VStem: 97 100<312 418> 297 100<-104 0 521 625> 497 100<104 209>
CounterMasks: 1 01c0
LayerCount: 2
Back
SplineSet
104.19921875 104.19921875 m 29
 520.80078125 104.19921875 l 25
 520.80078125 0 l 25
 416.69921875 0 l 25
 416.69921875 -104.19921875 l 25
 312.5 -104.19921875 l 25
 312.5 0 l 25
 104.19921875 0 l 25
 104.19921875 104.19921875 l 29
520.80078125 208.30078125 m 25
 625 208.30078125 l 25
 625 104.19921875 l 25
 520.80078125 104.19921875 l 25
 520.80078125 208.30078125 l 25
208.30078125 312.5 m 25
 520.80078125 312.5 l 25
 520.80078125 208.30078125 l 25
 208.30078125 208.30078125 l 25
 208.30078125 312.5 l 25
104.19921875 416.69921875 m 25
 208.30078125 416.69921875 l 25
 208.30078125 312.5 l 25
 104.19921875 312.5 l 25
 104.19921875 416.69921875 l 25
208.30078125 520.80078125 m 25
 312.5 520.80078125 l 25
 312.5 625 l 25
 416.69921875 625 l 25
 416.69921875 520.80078125 l 25
 625 520.80078125 l 25
 625 416.69921875 l 25
 208.30078125 416.69921875 l 25
 208.30078125 520.80078125 l 25
EndSplineSet
Fore
SplineSet
97 100 m 25xc3c0
 497 100 l 25
 497 0 l 25
 397 0 l 25
 397 -100 l 25
 297 -100 l 25
 297 0 l 25
 97 0 l 25
 97 100 l 25xc3c0
497 200 m 25xa3c0
 597 200 l 25
 597 100 l 25xa3c0
 497 100 l 25xc3c0
 497 200 l 25xa3c0
197 300 m 25x93c0
 497 300 l 25x93c0
 497 200 l 25xa3c0
 197 200 l 25
 197 300 l 25x93c0
97 400 m 25x8bc0
 197 400 l 25x8bc0
 197 300 l 25x93c0
 97 300 l 25
 97 400 l 25x8bc0
197 500 m 25x87c0
 297 500 l 25
 297 600 l 25
 397 600 l 25
 397 500 l 25
 597 500 l 25
 597 400 l 25x87c0
 197 400 l 25x8bc0
 197 500 l 25x87c0
EndSplineSet
EndChar

StartChar: percent
Encoding: 37 37 5
Width: 638
VWidth: 0
Flags: W
HStem: 100 100<101 206 415 518> 200 100<206 309> 300 100<309 415> 400 100<101 206 415 518>
VStem: 97 100<104 209 418 521> 197 100<209 312> 297 100<312 418> 397 100<104 209 418 521>
LayerCount: 2
Back
SplineSet
416.69921875 208.30078125 m 29
 520.80078125 208.30078125 l 25
 520.80078125 104.19921875 l 25
 416.69921875 104.19921875 l 25
 416.69921875 208.30078125 l 29
104.19921875 208.30078125 m 25
 208.30078125 208.30078125 l 25
 208.30078125 312.5 l 25
 312.5 312.5 l 25
 312.5 416.69921875 l 25
 416.69921875 416.69921875 l 25
 416.69921875 520.80078125 l 25
 520.80078125 520.80078125 l 25
 520.80078125 416.69921875 l 25
 416.69921875 416.69921875 l 25
 416.69921875 312.5 l 25
 312.5 312.5 l 25
 312.5 208.30078125 l 25
 208.30078125 208.30078125 l 25
 208.30078125 104.19921875 l 25
 104.19921875 104.19921875 l 25
 104.19921875 208.30078125 l 25
104.19921875 520.80078125 m 25
 208.30078125 520.80078125 l 25
 208.30078125 416.69921875 l 25
 104.19921875 416.69921875 l 25
 104.19921875 520.80078125 l 25
EndSplineSet
Fore
SplineSet
397 200 m 25x81
 497 200 l 25
 497 100 l 25
 397 100 l 25
 397 200 l 25x81
97 200 m 25x88
 197 200 l 25x88
 197 300 l 25
 297 300 l 25x44
 297 400 l 25
 397 400 l 25x22
 397 500 l 25
 497 500 l 25
 497 400 l 25x11
 397 400 l 25
 397 300 l 25x22
 297 300 l 25
 297 200 l 25x44
 197 200 l 25
 197 100 l 25
 97 100 l 25
 97 200 l 25x88
97 500 m 25x18
 197 500 l 25
 197 400 l 25
 97 400 l 25
 97 500 l 25x18
EndSplineSet
EndChar

StartChar: ampersand
Encoding: 38 38 6
Width: 638
VWidth: 0
Flags: W
HStem: 0 100<206 415 518 622> 100 200<101 206 415 518> 300 100<309 415 518 622> 600 100<309 518>
VStem: 97 100<104 312> 197 200<0 104 312 418> 197 100<418 625> 397 100<104 312> 497 100<0 104 312 418>
LayerCount: 2
Back
SplineSet
208.30078125 312.5 m 29
 208.30078125 104.19921875 l 25
 416.69921875 104.19921875 l 25
 416.69921875 312.5 l 25
 208.30078125 312.5 l 29
104.19921875 312.5 m 25
 208.30078125 312.5 l 25
 208.30078125 625 l 25
 312.5 625 l 25
 312.5 729.19921875 l 25
 520.80078125 729.19921875 l 25
 520.80078125 625 l 25
 312.5 625 l 25
 312.5 416.69921875 l 25
 416.69921875 416.69921875 l 25
 416.69921875 312.5 l 25
 520.80078125 312.5 l 25
 520.80078125 416.69921875 l 25
 625 416.69921875 l 25
 625 312.5 l 25
 520.80078125 312.5 l 25
 520.80078125 104.19921875 l 25
 625 104.19921875 l 25
 625 0 l 25
 520.80078125 0 l 25
 520.80078125 104.19921875 l 25
 416.69921875 104.19921875 l 25
 416.69921875 0 l 25
 208.30078125 0 l 25
 208.30078125 104.19921875 l 25
 104.19921875 104.19921875 l 25
 104.19921875 312.5 l 25
EndSplineSet
Fore
SplineSet
197 300 m 25x58
 197 100 l 25x98
 397 100 l 25x94
 397 300 l 25x54
 197 300 l 25x58
97 300 m 25x58
 197 300 l 25x58
 197 600 l 25
 297 600 l 25
 297 700 l 25
 497 700 l 25
 497 600 l 25
 297 600 l 25
 297 400 l 25x3280
 397 400 l 25x34
 397 300 l 25x54
 497 300 l 25x51
 497 400 l 25
 597 400 l 25
 597 300 l 25x3080
 497 300 l 25x51
 497 100 l 25x91
 597 100 l 25
 597 0 l 25
 497 0 l 25x9080
 497 100 l 25x91
 397 100 l 25
 397 0 l 25
 197 0 l 25x94
 197 100 l 25x98
 97 100 l 25
 97 300 l 25x58
EndSplineSet
EndChar

StartChar: quotesingle
Encoding: 39 39 7
Width: 638
VWidth: 0
Flags: W
HStem: 500 200<206 309>
VStem: 197 100<521 729>
LayerCount: 2
Back
SplineSet
208.30078125 729.19921875 m 29
 312.5 729.19921875 l 25
 312.5 520.80078125 l 25
 208.30078125 520.80078125 l 25
 208.30078125 729.19921875 l 29
EndSplineSet
Fore
SplineSet
197 700 m 25
 297 700 l 25
 297 500 l 25
 197 500 l 25
 197 700 l 25
EndSplineSet
EndChar

StartChar: parenleft
Encoding: 40 40 8
Width: 638
VWidth: 0
Flags: W
HStem: -100 100<309 415> 600 100<309 415>
VStem: 197 100<0 625> 297 100<-104 0 625 729>
LayerCount: 2
Back
SplineSet
208.30078125 625 m 29
 312.5 625 l 25
 312.5 729.19921875 l 25
 416.69921875 729.19921875 l 25
 416.69921875 625 l 25
 312.5 625 l 25
 312.5 0 l 25
 416.69921875 0 l 25
 416.69921875 -104.19921875 l 25
 312.5 -104.19921875 l 25
 312.5 0 l 25
 208.30078125 0 l 25
 208.30078125 625 l 29
EndSplineSet
Fore
SplineSet
197 600 m 25xe0
 297 600 l 25xe0
 297 700 l 25
 397 700 l 25
 397 600 l 25xd0
 297 600 l 25
 297 0 l 25xe0
 397 0 l 25
 397 -100 l 25
 297 -100 l 25xd0
 297 0 l 25
 197 0 l 25
 197 600 l 25xe0
EndSplineSet
EndChar

StartChar: parenright
Encoding: 41 41 9
Width: 638
VWidth: 0
Flags: W
HStem: -100 100<206 309> 600 100<206 309>
VStem: 197 100<-104 0 625 729> 297 100<0 625>
LayerCount: 2
Back
SplineSet
208.30078125 729.19921875 m 29
 312.5 729.19921875 l 25
 312.5 625 l 25
 416.69921875 625 l 25
 416.69921875 0 l 25
 312.5 0 l 25
 312.5 -104.19921875 l 25
 208.30078125 -104.19921875 l 25
 208.30078125 0 l 25
 312.5 0 l 25
 312.5 625 l 25
 208.30078125 625 l 25
 208.30078125 729.19921875 l 29
EndSplineSet
Fore
SplineSet
197 700 m 25xe0
 297 700 l 25
 297 600 l 25xe0
 397 600 l 25
 397 0 l 25xd0
 297 0 l 25
 297 -100 l 25
 197 -100 l 25
 197 0 l 25
 297 0 l 25
 297 600 l 25
 197 600 l 25
 197 700 l 25xe0
EndSplineSet
EndChar

StartChar: asterisk
Encoding: 42 42 10
Width: 638
VWidth: 0
Flags: W
HStem: 0 0G<309 415> 100 100<101 206 518 622> 200 100<206 309 415 518> 300 100<101 206 518 622> 500 0G<309 415>
VStem: 97 100<104 209 312 418> 297 100<0 209 312 521> 497 100<104 209 312 418>
CounterMasks: 1 07
LayerCount: 2
Back
SplineSet
104.19921875 416.69921875 m 29
 208.30078125 416.69921875 l 25
 208.30078125 312.5 l 25
 312.5 312.5 l 25
 312.5 520.80078125 l 25
 416.69921875 520.80078125 l 25
 416.69921875 312.5 l 25
 520.80078125 312.5 l 25
 520.80078125 416.69921875 l 25
 625 416.69921875 l 25
 625 312.5 l 25
 520.80078125 312.5 l 25
 520.80078125 208.30078125 l 25
 625 208.30078125 l 25
 625 104.19921875 l 25
 520.80078125 104.19921875 l 25
 520.80078125 208.30078125 l 25
 416.69921875 208.30078125 l 25
 416.69921875 0 l 25
 312.5 0 l 25
 312.5 208.30078125 l 25
 208.30078125 208.30078125 l 25
 208.30078125 104.19921875 l 25
 104.19921875 104.19921875 l 25
 104.19921875 208.30078125 l 25
 208.30078125 208.30078125 l 25
 208.30078125 312.5 l 25
 104.19921875 312.5 l 25
 104.19921875 416.69921875 l 29
EndSplineSet
Fore
SplineSet
97 400 m 25x9f
 197 400 l 25x9f
 197 300 l 25
 297 300 l 25
 297 500 l 25
 397 500 l 25
 397 300 l 25
 497 300 l 25xaf
 497 400 l 25
 597 400 l 25
 597 300 l 25x9f
 497 300 l 25xaf
 497 200 l 25
 597 200 l 25
 597 100 l 25
 497 100 l 25
 497 200 l 25xcf
 397 200 l 25
 397 0 l 25
 297 0 l 25
 297 200 l 25xaf
 197 200 l 25
 197 100 l 25
 97 100 l 25
 97 200 l 25
 197 200 l 25xcf
 197 300 l 25xaf
 97 300 l 25
 97 400 l 25x9f
EndSplineSet
EndChar

StartChar: plus
Encoding: 43 43 11
Width: 638
VWidth: 0
Flags: W
HStem: 0 0G<309 415> 200 100<101 309 415 622> 500 0G<309 415>
VStem: 297 100<0 209 312 521>
LayerCount: 2
Back
SplineSet
104.19921875 312.5 m 29
 312.5 312.5 l 25
 312.5 520.80078125 l 25
 416.69921875 520.80078125 l 25
 416.69921875 312.5 l 25
 625 312.5 l 25
 625 208.30078125 l 25
 416.69921875 208.30078125 l 25
 416.69921875 0 l 25
 312.5 0 l 25
 312.5 208.30078125 l 25
 104.19921875 208.30078125 l 25
 104.19921875 312.5 l 29
EndSplineSet
Fore
SplineSet
97 300 m 25
 297 300 l 25
 297 500 l 25
 397 500 l 25
 397 300 l 25
 597 300 l 25
 597 200 l 25
 397 200 l 25
 397 0 l 25
 297 0 l 25
 297 200 l 25
 97 200 l 25
 97 300 l 25
EndSplineSet
EndChar

StartChar: comma
Encoding: 44 44 12
Width: 638
VWidth: 0
Flags: W
HStem: -100 100<206 309>
VStem: 197 100<-104 0> 297 100<0 209>
LayerCount: 2
Back
SplineSet
208.30078125 0 m 29
 312.5 0 l 25
 312.5 208.30078125 l 25
 416.69921875 208.30078125 l 25
 416.69921875 0 l 25
 312.5 0 l 25
 312.5 -104.19921875 l 25
 208.30078125 -104.19921875 l 25
 208.30078125 0 l 29
EndSplineSet
Fore
SplineSet
197 0 m 25xc0
 297 0 l 25xc0
 297 200 l 25
 397 200 l 25
 397 0 l 25xa0
 297 0 l 25
 297 -100 l 25
 197 -100 l 25
 197 0 l 25xc0
EndSplineSet
EndChar

StartChar: hyphen
Encoding: 45 45 13
Width: 638
VWidth: 0
Flags: W
HStem: 200 100<101 622>
LayerCount: 2
Back
SplineSet
104.19921875 312.5 m 29
 625 312.5 l 25
 625 208.30078125 l 25
 104.19921875 208.30078125 l 25
 104.19921875 312.5 l 29
EndSplineSet
Fore
SplineSet
97 300 m 25
 597 300 l 25
 597 200 l 25
 97 200 l 25
 97 300 l 25
EndSplineSet
EndChar

StartChar: period
Encoding: 46 46 14
Width: 638
VWidth: 0
Flags: W
HStem: 0 200<206 415>
VStem: 197 200<0 209>
LayerCount: 2
Back
SplineSet
208.30078125 208.30078125 m 29
 416.69921875 208.30078125 l 25
 416.69921875 0 l 25
 208.30078125 0 l 25
 208.30078125 208.30078125 l 29
EndSplineSet
Fore
SplineSet
197 200 m 25
 397 200 l 25
 397 0 l 25
 197 0 l 25
 197 200 l 25
EndSplineSet
EndChar

StartChar: slash
Encoding: 47 47 15
Width: 638
VWidth: 0
Flags: W
HStem: -100 0G<101 206> 700 0G<415 518>
VStem: 97 100<-104 104> 197 100<104 312> 297 100<312 521> 397 100<521 729>
LayerCount: 2
Back
SplineSet
104.19921875 104.19921875 m 29
 208.30078125 104.19921875 l 25
 208.30078125 312.5 l 25
 312.5 312.5 l 25
 312.5 520.80078125 l 25
 416.69921875 520.80078125 l 25
 416.69921875 729.19921875 l 25
 520.80078125 729.19921875 l 25
 520.80078125 520.80078125 l 25
 416.69921875 520.80078125 l 25
 416.69921875 312.5 l 25
 312.5 312.5 l 25
 312.5 104.19921875 l 25
 208.30078125 104.19921875 l 25
 208.30078125 -104.19921875 l 25
 104.19921875 -104.19921875 l 25
 104.19921875 104.19921875 l 29
EndSplineSet
Fore
SplineSet
97 100 m 25xe0
 197 100 l 25xe0
 197 300 l 25
 297 300 l 25xd0
 297 500 l 25
 397 500 l 25xc8
 397 700 l 25
 497 700 l 25
 497 500 l 25xc4
 397 500 l 25
 397 300 l 25xc8
 297 300 l 25
 297 100 l 25xd0
 197 100 l 25
 197 -100 l 25
 97 -100 l 25
 97 100 l 25xe0
EndSplineSet
EndChar

StartChar: zero
Encoding: 48 48 16
Width: 638
VWidth: 0
Flags: W
HStem: 0 100<206 415> 200 100<206 309> 300 100<309 415> 500 100<206 415>
VStem: 97 100<104 209 312 521> 197 200<0 104 521 625> 397 100<104 312 418 521>
LayerCount: 2
Back
SplineSet
312.5 312.5 m 29
 312.5 208.30078125 l 25
 208.30078125 208.30078125 l 25
 208.30078125 104.19921875 l 25
 416.69921875 104.19921875 l 25
 416.69921875 312.5 l 25
 312.5 312.5 l 29
208.30078125 520.80078125 m 25
 208.30078125 312.5 l 25
 312.5 312.5 l 25
 312.5 416.69921875 l 25
 416.69921875 416.69921875 l 25
 416.69921875 520.80078125 l 25
 208.30078125 520.80078125 l 25
104.19921875 520.80078125 m 25
 208.30078125 520.80078125 l 25
 208.30078125 625 l 25
 416.69921875 625 l 25
 416.69921875 520.80078125 l 25
 520.80078125 520.80078125 l 25
 520.80078125 104.19921875 l 25
 416.69921875 104.19921875 l 25
 416.69921875 0 l 25
 208.30078125 0 l 25
 208.30078125 104.19921875 l 25
 104.19921875 104.19921875 l 25
 104.19921875 520.80078125 l 25
EndSplineSet
Fore
SplineSet
297 300 m 25xd2
 297 200 l 25
 197 200 l 25
 197 100 l 25xda
 397 100 l 25xd4
 397 300 l 25xb2
 297 300 l 25xd2
197 500 m 25
 197 300 l 25
 297 300 l 25xd8
 297 400 l 25
 397 400 l 25xba
 397 500 l 25xb4
 197 500 l 25
97 500 m 25
 197 500 l 25x98
 197 600 l 25
 397 600 l 25
 397 500 l 25x94
 497 500 l 25
 497 100 l 25x92
 397 100 l 25
 397 0 l 25
 197 0 l 25x94
 197 100 l 25
 97 100 l 25
 97 500 l 25
EndSplineSet
EndChar

StartChar: one
Encoding: 49 49 17
Width: 638
VWidth: 0
Flags: W
HStem: 0 0G<309 415> 400 100<206 309> 600 0G<309 415>
VStem: 297 100<0 418 521 625>
LayerCount: 2
Back
SplineSet
208.30078125 520.80078125 m 29
 312.5 520.80078125 l 25
 312.5 625 l 25
 416.69921875 625 l 25
 416.69921875 0 l 25
 312.5 0 l 25
 312.5 416.69921875 l 25
 208.30078125 416.69921875 l 25
 208.30078125 520.80078125 l 29
EndSplineSet
Fore
SplineSet
197 500 m 25
 297 500 l 25
 297 600 l 25
 397 600 l 25
 397 0 l 25
 297 0 l 25
 297 400 l 25
 197 400 l 25
 197 500 l 25
EndSplineSet
EndChar

StartChar: two
Encoding: 50 50 18
Width: 638
VWidth: 0
Flags: W
HStem: 0 100<101 206 309 518> 200 100<309 415> 400 100<101 206> 500 100<206 415>
VStem: 97 100<418 521> 197 100<104 209> 297 100<209 312> 397 100<312 521>
LayerCount: 2
Back
SplineSet
104.19921875 416.69921875 m 29
 104.19921875 520.80078125 l 25
 208.30078125 520.80078125 l 25
 208.30078125 625 l 25
 416.69921875 625 l 25
 416.69921875 520.80078125 l 25
 520.80078125 520.80078125 l 25
 520.80078125 312.5 l 25
 416.69921875 312.5 l 25
 416.69921875 208.30078125 l 25
 312.5 208.30078125 l 25
 312.5 104.19921875 l 25
 520.80078125 104.19921875 l 25
 520.80078125 0 l 25
 104.19921875 0 l 25
 104.19921875 104.19921875 l 25
 208.30078125 104.19921875 l 25
 208.30078125 208.30078125 l 25
 312.5 208.30078125 l 25
 312.5 312.5 l 25
 416.69921875 312.5 l 25
 416.69921875 416.69921875 l 25
 416.69921875 520.80078125 l 25
 208.30078125 520.80078125 l 25
 208.30078125 416.69921875 l 25
 104.19921875 416.69921875 l 29
EndSplineSet
Fore
SplineSet
97 400 m 25xe9
 97 500 l 25
 197 500 l 25xe9
 197 600 l 25
 397 600 l 25
 397 500 l 25
 497 500 l 25
 497 300 l 25xd5
 397 300 l 25
 397 200 l 25xd2
 297 200 l 25
 297 100 l 25xd4
 497 100 l 25
 497 0 l 25
 97 0 l 25
 97 100 l 25xd9
 197 100 l 25
 197 200 l 25
 297 200 l 25xd4
 297 300 l 25
 397 300 l 25xd2
 397 400 l 25xe1
 397 500 l 25xd1
 197 500 l 25
 197 400 l 25
 97 400 l 25xe9
EndSplineSet
EndChar

StartChar: three
Encoding: 51 51 19
Width: 638
VWidth: 0
Flags: W
HStem: 0 100<101 415> 300 100<206 415> 500 100<101 415>
VStem: 397 100<104 312 418 521>
LayerCount: 2
Back
SplineSet
104.19921875 625 m 29
 520.80078125 625 l 25
 520.80078125 416.69921875 l 25
 416.69921875 416.69921875 l 25
 416.69921875 312.5 l 25
 520.80078125 312.5 l 25
 520.80078125 104.19921875 l 25
 416.69921875 104.19921875 l 25
 416.69921875 0 l 25
 104.19921875 0 l 25
 104.19921875 104.19921875 l 25
 416.69921875 104.19921875 l 25
 416.69921875 312.5 l 25
 208.30078125 312.5 l 25
 208.30078125 416.69921875 l 25
 416.69921875 416.69921875 l 25
 416.69921875 520.80078125 l 25
 104.19921875 520.80078125 l 25
 104.19921875 625 l 29
EndSplineSet
Fore
SplineSet
97 600 m 25
 497 600 l 25
 497 400 l 25
 397 400 l 25
 397 300 l 25
 497 300 l 25
 497 100 l 25
 397 100 l 25
 397 0 l 25
 97 0 l 25
 97 100 l 25
 397 100 l 25
 397 300 l 25
 197 300 l 25
 197 400 l 25
 397 400 l 25
 397 500 l 25
 97 500 l 25
 97 600 l 25
EndSplineSet
EndChar

StartChar: four
Encoding: 52 52 20
Width: 638
VWidth: 0
Flags: W
HStem: 0 0G<415 518> 100 100<206 415> 300 100<206 309> 400 100<309 415> 600 0G<415 518>
VStem: 97 100<209 312> 197 100<312 418> 397 100<0 104 209 418 521 625>
LayerCount: 2
Back
SplineSet
208.30078125 312.5 m 29
 208.30078125 208.30078125 l 25
 416.69921875 208.30078125 l 25
 416.69921875 416.69921875 l 25
 312.5 416.69921875 l 25
 312.5 312.5 l 25
 208.30078125 312.5 l 29
104.19921875 312.5 m 25
 208.30078125 312.5 l 25
 208.30078125 416.69921875 l 25
 312.5 416.69921875 l 25
 312.5 520.80078125 l 25
 416.69921875 520.80078125 l 25
 416.69921875 625 l 25
 520.80078125 625 l 25
 520.80078125 0 l 25
 416.69921875 0 l 25
 416.69921875 104.19921875 l 25
 104.19921875 104.19921875 l 25
 104.19921875 312.5 l 25
EndSplineSet
Fore
SplineSet
197 300 m 25xed
 197 200 l 25
 397 200 l 25
 397 400 l 25xdd
 297 400 l 25
 297 300 l 25xeb
 197 300 l 25xed
97 300 m 25xed
 197 300 l 25xed
 197 400 l 25
 297 400 l 25xeb
 297 500 l 25
 397 500 l 25xdb
 397 600 l 25
 497 600 l 25
 497 0 l 25
 397 0 l 25
 397 100 l 25
 97 100 l 25
 97 300 l 25xed
EndSplineSet
EndChar

StartChar: five
Encoding: 53 53 21
Width: 638
VWidth: 0
Flags: W
HStem: 0 100<101 415> 300 100<206 415> 500 100<206 518>
VStem: 97 300<0 104 312 418> 97 100<418 521> 397 100<104 312>
LayerCount: 2
Back
SplineSet
104.19921875 625 m 29
 520.80078125 625 l 25
 520.80078125 520.80078125 l 25
 208.30078125 520.80078125 l 25
 208.30078125 416.69921875 l 25
 416.69921875 416.69921875 l 25
 416.69921875 312.5 l 25
 520.80078125 312.5 l 25
 520.80078125 104.19921875 l 25
 416.69921875 104.19921875 l 25
 416.69921875 0 l 25
 104.19921875 0 l 25
 104.19921875 104.19921875 l 25
 416.69921875 104.19921875 l 25
 416.69921875 312.5 l 25
 104.19921875 312.5 l 25
 104.19921875 625 l 29
EndSplineSet
Fore
SplineSet
97 600 m 25xe8
 497 600 l 25
 497 500 l 25
 197 500 l 25
 197 400 l 25xec
 397 400 l 25
 397 300 l 25xf0
 497 300 l 25
 497 100 l 25xe4
 397 100 l 25
 397 0 l 25
 97 0 l 25
 97 100 l 25
 397 100 l 25
 397 300 l 25
 97 300 l 25xf0
 97 600 l 25xe8
EndSplineSet
EndChar

StartChar: six
Encoding: 54 54 22
Width: 638
VWidth: 0
Flags: W
HStem: 0 100<206 415> 300 100<206 415> 500 100<206 415>
VStem: 97 100<104 312 418 521> 197 200<0 104 521 625> 397 100<104 312>
LayerCount: 2
Back
SplineSet
208.30078125 312.5 m 29
 208.30078125 104.19921875 l 25
 416.69921875 104.19921875 l 25
 416.69921875 312.5 l 25
 208.30078125 312.5 l 29
208.30078125 625 m 25
 416.69921875 625 l 25
 416.69921875 520.80078125 l 25
 208.30078125 520.80078125 l 25
 208.30078125 416.69921875 l 25
 416.69921875 416.69921875 l 25
 416.69921875 312.5 l 25
 520.80078125 312.5 l 25
 520.80078125 104.19921875 l 25
 416.69921875 104.19921875 l 25
 416.69921875 0 l 25
 208.30078125 0 l 25
 208.30078125 104.19921875 l 25
 104.19921875 104.19921875 l 25
 104.19921875 520.80078125 l 25
 208.30078125 520.80078125 l 25
 208.30078125 625 l 25
EndSplineSet
Fore
SplineSet
197 300 m 25xf4
 197 100 l 25xf4
 397 100 l 25xe8
 397 300 l 25
 197 300 l 25xf4
197 600 m 25xe8
 397 600 l 25
 397 500 l 25xe8
 197 500 l 25
 197 400 l 25
 397 400 l 25
 397 300 l 25
 497 300 l 25
 497 100 l 25xf4
 397 100 l 25
 397 0 l 25
 197 0 l 25xe8
 197 100 l 25
 97 100 l 25
 97 500 l 25
 197 500 l 25xf0
 197 600 l 25xe8
EndSplineSet
EndChar

StartChar: seven
Encoding: 55 55 23
Width: 638
VWidth: 0
Flags: W
HStem: 0 0G<206 309> 200 100<309 415> 500 100<101 415>
VStem: 197 100<0 209> 297 100<209 312> 397 100<312 521>
LayerCount: 2
Back
SplineSet
104.19921875 625 m 29
 520.80078125 625 l 25
 520.80078125 312.5 l 25
 416.69921875 312.5 l 25
 416.69921875 208.30078125 l 25
 312.5 208.30078125 l 25
 312.5 0 l 25
 208.30078125 0 l 25
 208.30078125 208.30078125 l 25
 312.5 208.30078125 l 25
 312.5 312.5 l 25
 416.69921875 312.5 l 25
 416.69921875 520.80078125 l 25
 104.19921875 520.80078125 l 25
 104.19921875 625 l 29
EndSplineSet
Fore
SplineSet
97 600 m 25xe4
 497 600 l 25
 497 300 l 25xe4
 397 300 l 25
 397 200 l 25xe8
 297 200 l 25
 297 0 l 25
 197 0 l 25
 197 200 l 25
 297 200 l 25xf0
 297 300 l 25
 397 300 l 25xe8
 397 500 l 25
 97 500 l 25
 97 600 l 25xe4
EndSplineSet
EndChar

StartChar: eight
Encoding: 56 56 24
Width: 638
VWidth: 0
Flags: W
HStem: 0 100<206 415> 100 200<101 206 415 518> 400 100<101 206 415 518> 500 100<206 415>
VStem: 97 100<104 312 418 521> 197 200<0 104 312 418 521 625> 397 100<104 312 418 521>
LayerCount: 2
Back
SplineSet
208.30078125 312.5 m 29
 208.30078125 104.19921875 l 25
 416.69921875 104.19921875 l 25
 416.69921875 312.5 l 25
 208.30078125 312.5 l 29
208.30078125 520.80078125 m 25
 208.30078125 416.69921875 l 25
 416.69921875 416.69921875 l 25
 416.69921875 520.80078125 l 25
 208.30078125 520.80078125 l 25
208.30078125 625 m 25
 416.69921875 625 l 25
 416.69921875 520.80078125 l 25
 520.80078125 520.80078125 l 25
 520.80078125 416.69921875 l 25
 416.69921875 416.69921875 l 25
 416.69921875 312.5 l 25
 520.80078125 312.5 l 25
 520.80078125 104.19921875 l 25
 416.69921875 104.19921875 l 25
 416.69921875 0 l 25
 208.30078125 0 l 25
 208.30078125 104.19921875 l 25
 104.19921875 104.19921875 l 25
 104.19921875 312.5 l 25
 208.30078125 312.5 l 25
 208.30078125 416.69921875 l 25
 104.19921875 416.69921875 l 25
 104.19921875 520.80078125 l 25
 208.30078125 520.80078125 l 25
 208.30078125 625 l 25
EndSplineSet
Fore
SplineSet
197 300 m 25x48
 197 100 l 25x88
 397 100 l 25x84
 397 300 l 25x44
 197 300 l 25x48
197 500 m 25x28
 197 400 l 25x28
 397 400 l 25
 397 500 l 25x24
 197 500 l 25x28
197 600 m 25x14
 397 600 l 25x14
 397 500 l 25x24
 497 500 l 25
 497 400 l 25x22
 397 400 l 25
 397 300 l 25x64
 497 300 l 25
 497 100 l 25x62
 397 100 l 25
 397 0 l 25
 197 0 l 25x84
 197 100 l 25x88
 97 100 l 25
 97 300 l 25
 197 300 l 25
 197 400 l 25
 97 400 l 25
 97 500 l 25
 197 500 l 25x68
 197 600 l 25x14
EndSplineSet
EndChar

StartChar: nine
Encoding: 57 57 25
Width: 638
VWidth: 0
Flags: W
HStem: 0 100<206 415> 200 100<206 415> 500 100<206 415>
VStem: 97 100<312 521> 197 200<0 104 521 625> 397 100<104 209 312 521>
LayerCount: 2
Back
SplineSet
208.30078125 520.80078125 m 29
 208.30078125 312.5 l 25
 416.69921875 312.5 l 25
 416.69921875 520.80078125 l 25
 208.30078125 520.80078125 l 29
208.30078125 625 m 25
 416.69921875 625 l 25
 416.69921875 520.80078125 l 25
 520.80078125 520.80078125 l 25
 520.80078125 104.19921875 l 25
 416.69921875 104.19921875 l 25
 416.69921875 0 l 25
 208.30078125 0 l 25
 208.30078125 104.19921875 l 25
 416.69921875 104.19921875 l 25
 416.69921875 208.30078125 l 25
 208.30078125 208.30078125 l 25
 208.30078125 312.5 l 25
 104.19921875 312.5 l 25
 104.19921875 520.80078125 l 25
 208.30078125 520.80078125 l 25
 208.30078125 625 l 25
EndSplineSet
Fore
SplineSet
197 500 m 25xf0
 197 300 l 25
 397 300 l 25xf4
 397 500 l 25xe8
 197 500 l 25xf0
197 600 m 25xe8
 397 600 l 25
 397 500 l 25xe8
 497 500 l 25
 497 100 l 25xe4
 397 100 l 25
 397 0 l 25
 197 0 l 25
 197 100 l 25
 397 100 l 25xe8
 397 200 l 25xe4
 197 200 l 25xe8
 197 300 l 25
 97 300 l 25
 97 500 l 25
 197 500 l 25xf0
 197 600 l 25xe8
EndSplineSet
EndChar

StartChar: colon
Encoding: 58 58 26
Width: 638
VWidth: 0
Flags: W
HStem: 100 100<206 309> 300 100<206 309>
VStem: 197 100<104 209 312 418>
LayerCount: 2
Back
SplineSet
208.30078125 208.30078125 m 29
 312.5 208.30078125 l 25
 312.5 104.19921875 l 25
 208.30078125 104.19921875 l 25
 208.30078125 208.30078125 l 29
208.30078125 416.69921875 m 25
 312.5 416.69921875 l 25
 312.5 312.5 l 25
 208.30078125 312.5 l 25
 208.30078125 416.69921875 l 25
EndSplineSet
Fore
SplineSet
197 200 m 25
 297 200 l 25
 297 100 l 25
 197 100 l 25
 197 200 l 25
197 400 m 25
 297 400 l 25
 297 300 l 25
 197 300 l 25
 197 400 l 25
EndSplineSet
EndChar

StartChar: semicolon
Encoding: 59 59 27
Width: 638
VWidth: 0
Flags: W
HStem: -100 100<206 309> 300 100<309 415>
VStem: 197 100<-104 0> 297 100<0 209 312 418>
LayerCount: 2
Back
SplineSet
312.5 208.30078125 m 29
 416.69921875 208.30078125 l 25
 416.69921875 0 l 25
 312.5 0 l 25
 312.5 -104.19921875 l 25
 208.30078125 -104.19921875 l 25
 208.30078125 0 l 25
 312.5 0 l 25
 312.5 208.30078125 l 29
312.5 416.69921875 m 25
 416.69921875 416.69921875 l 25
 416.69921875 312.5 l 25
 312.5 312.5 l 25
 312.5 416.69921875 l 25
EndSplineSet
Fore
SplineSet
297 200 m 25xd0
 397 200 l 25
 397 0 l 25xd0
 297 0 l 25
 297 -100 l 25
 197 -100 l 25
 197 0 l 25
 297 0 l 25xe0
 297 200 l 25xd0
297 400 m 25
 397 400 l 25
 397 300 l 25
 297 300 l 25
 297 400 l 25
EndSplineSet
EndChar

StartChar: less
Encoding: 60 60 28
Width: 638
VWidth: 0
Flags: W
HStem: 0 100<309 415> 100 100<206 309> 300 100<206 309> 400 100<309 415>
VStem: 97 100<209 312> 197 100<104 209 312 418> 297 100<0 104 418 521>
LayerCount: 2
Back
SplineSet
312.5 520.80078125 m 29
 416.69921875 520.80078125 l 25
 416.69921875 416.69921875 l 25
 312.5 416.69921875 l 25
 312.5 312.5 l 25
 208.30078125 312.5 l 25
 208.30078125 208.30078125 l 25
 312.5 208.30078125 l 25
 312.5 104.19921875 l 25
 416.69921875 104.19921875 l 25
 416.69921875 0 l 25
 312.5 0 l 25
 312.5 104.19921875 l 25
 208.30078125 104.19921875 l 25
 208.30078125 208.30078125 l 25
 104.19921875 208.30078125 l 25
 104.19921875 312.5 l 25
 208.30078125 312.5 l 25
 208.30078125 416.69921875 l 25
 312.5 416.69921875 l 25
 312.5 520.80078125 l 29
EndSplineSet
Fore
SplineSet
297 500 m 25x12
 397 500 l 25
 397 400 l 25x12
 297 400 l 25
 297 300 l 25x24
 197 300 l 25
 197 200 l 25x68
 297 200 l 25x64
 297 100 l 25x84
 397 100 l 25
 397 0 l 25
 297 0 l 25x82
 297 100 l 25x84
 197 100 l 25x44
 197 200 l 25
 97 200 l 25
 97 300 l 25
 197 300 l 25x68
 197 400 l 25
 297 400 l 25x64
 297 500 l 25x12
EndSplineSet
EndChar

StartChar: equal
Encoding: 61 61 29
Width: 638
VWidth: 0
Flags: W
HStem: 100 100<101 518> 300 100<101 518>
LayerCount: 2
Back
SplineSet
104.19921875 208.30078125 m 29
 520.80078125 208.30078125 l 25
 520.80078125 104.19921875 l 25
 104.19921875 104.19921875 l 25
 104.19921875 208.30078125 l 29
104.19921875 416.69921875 m 25
 520.80078125 416.69921875 l 25
 520.80078125 312.5 l 25
 104.19921875 312.5 l 25
 104.19921875 416.69921875 l 25
EndSplineSet
Fore
SplineSet
97 200 m 25
 497 200 l 25
 497 100 l 25
 97 100 l 25
 97 200 l 25
97 400 m 25
 497 400 l 25
 497 300 l 25
 97 300 l 25
 97 400 l 25
EndSplineSet
EndChar

StartChar: greater
Encoding: 62 62 30
Width: 638
VWidth: 0
Flags: W
HStem: 0 100<206 309> 100 100<309 415> 300 100<309 415> 400 100<206 309>
VStem: 197 100<0 104 418 521> 297 100<104 209 312 418> 397 100<209 312>
LayerCount: 2
Back
SplineSet
208.30078125 520.80078125 m 29
 312.5 520.80078125 l 25
 312.5 416.69921875 l 25
 416.69921875 416.69921875 l 25
 416.69921875 312.5 l 25
 520.80078125 312.5 l 25
 520.80078125 208.30078125 l 25
 416.69921875 208.30078125 l 25
 416.69921875 104.19921875 l 25
 312.5 104.19921875 l 25
 312.5 0 l 25
 208.30078125 0 l 25
 208.30078125 104.19921875 l 25
 312.5 104.19921875 l 25
 312.5 208.30078125 l 25
 416.69921875 208.30078125 l 25
 416.69921875 312.5 l 25
 312.5 312.5 l 25
 312.5 416.69921875 l 25
 208.30078125 416.69921875 l 25
 208.30078125 520.80078125 l 29
EndSplineSet
Fore
SplineSet
197 500 m 25x18
 297 500 l 25x18
 297 400 l 25x28
 397 400 l 25
 397 300 l 25x24
 497 300 l 25
 497 200 l 25x62
 397 200 l 25
 397 100 l 25x64
 297 100 l 25
 297 0 l 25
 197 0 l 25
 197 100 l 25
 297 100 l 25x88
 297 200 l 25
 397 200 l 25
 397 300 l 25
 297 300 l 25x64
 297 400 l 25x68
 197 400 l 25
 197 500 l 25x18
EndSplineSet
EndChar

StartChar: question
Encoding: 63 63 31
Width: 638
VWidth: 0
Flags: W
HStem: -100 100<206 309> 100 100<206 309> 200 100<309 415> 400 100<101 206> 500 100<206 415>
VStem: 97 100<418 521> 197 100<-104 0 104 209> 297 100<209 312> 397 100<312 521>
LayerCount: 2
Back
SplineSet
208.30078125 0 m 29
 312.5 0 l 25
 312.5 -104.19921875 l 25
 208.30078125 -104.19921875 l 25
 208.30078125 0 l 29
104.19921875 520.80078125 m 25
 208.30078125 520.80078125 l 25
 208.30078125 625 l 25
 416.69921875 625 l 25
 416.69921875 520.80078125 l 25
 520.80078125 520.80078125 l 25
 520.80078125 312.5 l 25
 416.69921875 312.5 l 25
 416.69921875 208.30078125 l 25
 312.5 208.30078125 l 25
 312.5 104.19921875 l 25
 208.30078125 104.19921875 l 25
 208.30078125 208.30078125 l 25
 312.5 208.30078125 l 25
 312.5 312.5 l 25
 416.69921875 312.5 l 25
 416.69921875 520.80078125 l 25
 208.30078125 520.80078125 l 25
 208.30078125 416.69921875 l 25
 104.19921875 416.69921875 l 25
 104.19921875 520.80078125 l 25
EndSplineSet
Fore
SplineSet
197 0 m 25x82
 297 0 l 25
 297 -100 l 25
 197 -100 l 25
 197 0 l 25x82
97 500 m 25x9480
 197 500 l 25x9480
 197 600 l 25
 397 600 l 25
 397 500 l 25
 497 500 l 25
 497 300 l 25xaa80
 397 300 l 25
 397 200 l 25xa9
 297 200 l 25
 297 100 l 25
 197 100 l 25
 197 200 l 25
 297 200 l 25xc2
 297 300 l 25
 397 300 l 25xa1
 397 500 l 25xa880
 197 500 l 25
 197 400 l 25
 97 400 l 25
 97 500 l 25x9480
EndSplineSet
EndChar

StartChar: at
Encoding: 64 64 32
Width: 638
VWidth: 0
Flags: W
HStem: -100 100<207 416> 100 100<310 416> 400 100<310 416> 600 100<207 416>
VStem: 98 200<209 418> 98 100<0 209 418 625> 198 200<-104 0 625 729> 298 200<104 209 418 521> 398 100<209 418 521 625>
LayerCount: 2
Back
SplineSet
208.30078125 625 m 29
 208.30078125 416.69921875 l 25
 312.5 416.69921875 l 25
 312.5 208.30078125 l 25
 416.69921875 208.30078125 l 25
 416.69921875 416.69921875 l 25
 312.5 416.69921875 l 25
 312.5 520.80078125 l 25
 416.69921875 520.80078125 l 25
 416.69921875 625 l 25
 208.30078125 625 l 29
104.19921875 625 m 25
 208.30078125 625 l 25
 208.30078125 729.19921875 l 25
 416.69921875 729.19921875 l 25
 416.69921875 625 l 25
 520.80078125 625 l 25
 520.80078125 104.19921875 l 25
 312.5 104.19921875 l 25
 312.5 208.30078125 l 25
 208.30078125 208.30078125 l 25
 208.30078125 0 l 25
 416.69921875 0 l 25
 416.69921875 -104.19921875 l 25
 208.30078125 -104.19921875 l 25
 208.30078125 0 l 25
 104.19921875 0 l 25
 104.19921875 625 l 25
EndSplineSet
Fore
SplineSet
198 600 m 25xf4
 198 400 l 25xf4
 298 400 l 25
 298 200 l 25
 398 200 l 25
 398 400 l 25
 298 400 l 25xf880
 298 500 l 25xf1
 398 500 l 25xf080
 398 600 l 25xf2
 198 600 l 25xf4
98 600 m 25
 198 600 l 25xf4
 198 700 l 25
 398 700 l 29
 398 600 l 25xf2
 498 600 l 25xf080
 498 100 l 25
 298 100 l 25xf1
 298 200 l 25xf8
 198 200 l 25
 198 0 l 25xf4
 398 0 l 25
 398 -100 l 25
 198 -100 l 25xf2
 198 0 l 25
 98 0 l 25
 98 600 l 25
EndSplineSet
EndChar

StartChar: A
Encoding: 65 65 33
Width: 638
VWidth: 0
Flags: W
HStem: 0 0G<101 206 415 518> 200 100<206 415> 500 100<206 415>
VStem: 97 100<0 209 312 521> 397 100<0 209 312 521>
LayerCount: 2
Back
SplineSet
208.30078125 520.80078125 m 29
 208.30078125 312.5 l 25
 416.69921875 312.5 l 25
 416.69921875 520.80078125 l 25
 208.30078125 520.80078125 l 29
104.19921875 520.80078125 m 25
 208.30078125 520.80078125 l 25
 208.30078125 625 l 25
 416.69921875 625 l 25
 416.69921875 520.80078125 l 25
 520.80078125 520.80078125 l 25
 520.80078125 0 l 25
 416.69921875 0 l 25
 416.69921875 208.30078125 l 25
 208.30078125 208.30078125 l 25
 208.30078125 0 l 25
 104.19921875 0 l 25
 104.19921875 520.80078125 l 25
EndSplineSet
Fore
SplineSet
197 500 m 25
 197 300 l 25
 397 300 l 25
 397 500 l 25
 197 500 l 25
97 500 m 25
 197 500 l 25
 197 600 l 25
 397 600 l 25
 397 500 l 25
 497 500 l 25
 497 0 l 25
 397 0 l 25
 397 200 l 25
 197 200 l 25
 197 0 l 25
 97 0 l 25
 97 500 l 25
EndSplineSet
EndChar

StartChar: B
Encoding: 66 66 34
Width: 638
VWidth: 0
Flags: W
HStem: 0 100<206 415> 500 100<206 415>
VStem: 97 300<0 104 312 418 521 625> 97 100<104 312 418 521> 397 100<104 312 418 521>
LayerCount: 2
Back
SplineSet
208.30078125 312.5 m 29
 208.30078125 104.19921875 l 25
 416.69921875 104.19921875 l 25
 416.69921875 312.5 l 25
 208.30078125 312.5 l 29
208.30078125 520.80078125 m 25
 208.30078125 416.69921875 l 25
 416.69921875 416.69921875 l 25
 416.69921875 520.80078125 l 25
 208.30078125 520.80078125 l 25
104.19921875 625 m 25
 416.69921875 625 l 25
 416.69921875 520.80078125 l 25
 520.80078125 520.80078125 l 25
 520.80078125 416.69921875 l 25
 416.69921875 416.69921875 l 25
 416.69921875 312.5 l 25
 520.80078125 312.5 l 25
 520.80078125 104.19921875 l 25
 416.69921875 104.19921875 l 25
 416.69921875 0 l 25
 104.19921875 0 l 25
 104.19921875 625 l 25
EndSplineSet
Fore
SplineSet
197 300 m 25xd0
 197 100 l 25xd0
 397 100 l 25
 397 300 l 25xe0
 197 300 l 25xd0
197 500 m 25
 197 400 l 25xd0
 397 400 l 25
 397 500 l 25xe0
 197 500 l 25
97 600 m 25xe0
 397 600 l 25
 397 500 l 25xe0
 497 500 l 25
 497 400 l 25xc8
 397 400 l 25
 397 300 l 25xe0
 497 300 l 25
 497 100 l 25xc8
 397 100 l 25
 397 0 l 25
 97 0 l 25
 97 600 l 25xe0
EndSplineSet
EndChar

StartChar: C
Encoding: 67 67 35
Width: 638
VWidth: 0
Flags: W
HStem: 0 100<206 518> 500 100<206 518>
VStem: 97 100<104 521> 197 300<0 104 521 625>
LayerCount: 2
Back
SplineSet
104.19921875 520.80078125 m 29
 208.30078125 520.80078125 l 25
 208.30078125 625 l 25
 520.80078125 625 l 25
 520.80078125 520.80078125 l 25
 208.30078125 520.80078125 l 25
 208.30078125 104.19921875 l 25
 520.80078125 104.19921875 l 25
 520.80078125 0 l 25
 208.30078125 0 l 25
 208.30078125 104.19921875 l 25
 104.19921875 104.19921875 l 25
 104.19921875 520.80078125 l 29
EndSplineSet
Fore
SplineSet
97 500 m 25xe0
 197 500 l 25xe0
 197 600 l 25
 497 600 l 25
 497 500 l 25xd0
 197 500 l 25
 197 100 l 25xe0
 497 100 l 25
 497 0 l 25
 197 0 l 25xd0
 197 100 l 25
 97 100 l 25
 97 500 l 25xe0
EndSplineSet
EndChar

StartChar: D
Encoding: 68 68 36
Width: 638
VWidth: 0
Flags: W
HStem: 0 100<206 415> 500 0G<415 518> 500 100<206 415>
VStem: 97 300<0 104 521 625> 97 100<104 521> 397 100<104 521>
LayerCount: 2
Back
SplineSet
104.19921875 625 m 29
 416.69921875 625 l 25
 416.69921875 520.80078125 l 25
 208.30078125 520.80078125 l 25
 208.30078125 104.19921875 l 25
 416.69921875 104.19921875 l 25
 416.69921875 520.80078125 l 25
 520.80078125 520.80078125 l 25
 520.80078125 104.19921875 l 25
 416.69921875 104.19921875 l 25
 416.69921875 0 l 25
 104.19921875 0 l 25
 104.19921875 625 l 29
EndSplineSet
Fore
SplineSet
97 600 m 25xb0
 397 600 l 25xb0
 397 500 l 25xd0
 197 500 l 25
 197 100 l 25xa8
 397 100 l 25
 397 500 l 25xd0
 497 500 l 25
 497 100 l 25xc4
 397 100 l 25
 397 0 l 25
 97 0 l 25
 97 600 l 25xb0
EndSplineSet
EndChar

StartChar: E
Encoding: 69 69 37
Width: 638
VWidth: 0
Flags: W
HStem: 0 100<206 518> 300 100<206 415> 500 100<206 518>
VStem: 97 100<104 312 418 521>
LayerCount: 2
Back
SplineSet
104.19921875 625 m 29
 520.80078125 625 l 25
 520.80078125 520.80078125 l 25
 208.30078125 520.80078125 l 25
 208.30078125 416.69921875 l 25
 416.69921875 416.69921875 l 25
 416.69921875 312.5 l 25
 208.30078125 312.5 l 25
 208.30078125 104.19921875 l 25
 520.80078125 104.19921875 l 25
 520.80078125 0 l 25
 104.19921875 0 l 25
 104.19921875 625 l 29
EndSplineSet
Fore
SplineSet
97 600 m 25
 497 600 l 25
 497 500 l 25
 197 500 l 25
 197 400 l 25
 397 400 l 25
 397 300 l 25
 197 300 l 25
 197 100 l 25
 497 100 l 25
 497 0 l 25
 97 0 l 25
 97 600 l 25
EndSplineSet
EndChar

StartChar: F
Encoding: 70 70 38
Width: 638
VWidth: 0
Flags: W
HStem: 0 0G<101 206> 300 100<206 415> 500 100<206 518>
VStem: 97 100<0 312 418 521>
LayerCount: 2
Back
SplineSet
104.19921875 625 m 29
 520.80078125 625 l 25
 520.80078125 520.80078125 l 25
 208.30078125 520.80078125 l 25
 208.30078125 416.69921875 l 25
 416.69921875 416.69921875 l 25
 416.69921875 312.5 l 25
 208.30078125 312.5 l 25
 208.30078125 0 l 25
 104.19921875 0 l 25
 104.19921875 625 l 29
EndSplineSet
Fore
SplineSet
97 600 m 25
 497 600 l 25
 497 500 l 25
 197 500 l 25
 197 400 l 25
 397 400 l 25
 397 300 l 25
 197 300 l 25
 197 0 l 25
 97 0 l 25
 97 600 l 25
EndSplineSet
EndChar

StartChar: G
Encoding: 71 71 39
Width: 638
VWidth: 0
Flags: W
HStem: 0 100<206 415> 500 100<206 518>
VStem: 97 100<104 521> 197 300<0 104 521 625> 397 100<104 312>
LayerCount: 2
Back
SplineSet
208.30078125 625 m 29
 520.80078125 625 l 25
 520.80078125 520.80078125 l 25
 208.30078125 520.80078125 l 25
 208.30078125 104.19921875 l 25
 416.69921875 104.19921875 l 25
 416.69921875 312.5 l 25
 520.80078125 312.5 l 25
 520.80078125 0 l 25
 208.30078125 0 l 25
 208.30078125 104.19921875 l 25
 104.19921875 104.19921875 l 25
 104.19921875 520.80078125 l 25
 208.30078125 520.80078125 l 25
 208.30078125 625 l 29
EndSplineSet
Fore
SplineSet
197 600 m 25xd0
 497 600 l 25
 497 500 l 25xd0
 197 500 l 25
 197 100 l 25
 397 100 l 25
 397 300 l 25
 497 300 l 25xe8
 497 0 l 25
 197 0 l 25xd0
 197 100 l 25
 97 100 l 25
 97 500 l 25
 197 500 l 25xe0
 197 600 l 25xd0
EndSplineSet
EndChar

StartChar: H
Encoding: 72 72 40
Width: 638
VWidth: 0
Flags: W
HStem: 0 0G<101 206 415 518> 200 100<206 415> 600 0G<101 206 415 518>
VStem: 97 100<0 209 312 625> 397 100<0 209 312 625>
LayerCount: 2
Back
SplineSet
104.19921875 625 m 29
 208.30078125 625 l 25
 208.30078125 312.5 l 25
 416.69921875 312.5 l 25
 416.69921875 625 l 25
 520.80078125 625 l 25
 520.80078125 0 l 25
 416.69921875 0 l 25
 416.69921875 208.30078125 l 25
 208.30078125 208.30078125 l 25
 208.30078125 0 l 25
 104.19921875 0 l 25
 104.19921875 625 l 29
EndSplineSet
Fore
SplineSet
97 600 m 25
 197 600 l 25
 197 300 l 25
 397 300 l 25
 397 600 l 25
 497 600 l 25
 497 0 l 25
 397 0 l 25
 397 200 l 25
 197 200 l 25
 197 0 l 25
 97 0 l 25
 97 600 l 25
EndSplineSet
EndChar

StartChar: I
Encoding: 73 73 41
Width: 638
VWidth: 0
Flags: W
HStem: -1500 2100G<309 415> -1500 2100G<309 415> 0 2200G<309 415>
VStem: 297 100<0 625>
LayerCount: 2
Back
SplineSet
312.5 625 m 29x88
 416.69921875 625 l 25x88
 416.69921875 0 l 25
 312.5 0 l 25x28
 312.5 625 l 29x88
EndSplineSet
Fore
SplineSet
297 600 m 25x90
 397 600 l 25x90
 397 0 l 25
 297 0 l 25x30
 297 600 l 25x90
EndSplineSet
EndChar

StartChar: J
Encoding: 74 74 42
Width: 638
VWidth: 0
Flags: W
HStem: 0 100<206 415> 600 0G<415 518>
VStem: 397 100<104 625>
LayerCount: 2
Back
SplineSet
416.69921875 625 m 29
 520.80078125 625 l 25
 520.80078125 104.19921875 l 25
 416.69921875 104.19921875 l 25
 416.69921875 0 l 25
 208.30078125 0 l 25
 208.30078125 104.19921875 l 25
 416.69921875 104.19921875 l 25
 416.69921875 625 l 29
EndSplineSet
Fore
SplineSet
397 600 m 25
 497 600 l 25
 497 100 l 25
 397 100 l 25
 397 0 l 25
 197 0 l 25
 197 100 l 25
 397 100 l 25
 397 600 l 25
EndSplineSet
EndChar

StartChar: K
Encoding: 75 75 43
Width: 638
VWidth: 0
Flags: W
HStem: 0 100<416 519> 100 100<310 416> 400 100<310 416> 500 100<416 519>
VStem: 98 200<209 418> 98 100<0 209 418 625> 298 100<104 209 418 521> 398 100<0 104 521 625>
LayerCount: 2
Back
SplineSet
104.19921875 625 m 29
 208.30078125 625 l 25
 208.30078125 416.69921875 l 25
 312.5 416.69921875 l 25
 312.5 520.80078125 l 25
 416.69921875 520.80078125 l 25
 416.69921875 625 l 25
 520.80078125 625 l 25
 520.80078125 520.80078125 l 25
 416.69921875 520.80078125 l 25
 416.69921875 416.69921875 l 25
 312.5 416.69921875 l 25
 312.5 208.30078125 l 25
 416.69921875 208.30078125 l 25
 416.69921875 104.19921875 l 25
 520.80078125 104.19921875 l 25
 520.80078125 0 l 25
 416.69921875 0 l 25
 416.69921875 104.19921875 l 25
 312.5 104.19921875 l 25
 312.5 208.30078125 l 25
 208.30078125 208.30078125 l 25
 208.30078125 0 l 25
 104.19921875 0 l 25
 104.19921875 625 l 29
EndSplineSet
Fore
SplineSet
98 600 m 25x94
 198 600 l 25x94
 198 400 l 25x24
 298 400 l 25x28
 298 500 l 25
 398 500 l 25x22
 398 600 l 25
 498 600 l 25
 498 500 l 25x11
 398 500 l 25
 398 400 l 25x22
 298 400 l 25
 298 200 l 25x68
 398 200 l 25x62
 398 100 l 25x82
 498 100 l 25
 498 0 l 25
 398 0 l 25x81
 398 100 l 25x82
 298 100 l 25x42
 298 200 l 25x48
 198 200 l 25x44
 198 0 l 25
 98 0 l 25
 98 600 l 25x94
EndSplineSet
EndChar

StartChar: L
Encoding: 76 76 44
Width: 638
VWidth: 0
Flags: W
HStem: 0 100<206 518> 600 0G<101 206>
VStem: 97 100<104 625>
LayerCount: 2
Back
SplineSet
104.19921875 625 m 29
 208.30078125 625 l 25
 208.30078125 104.19921875 l 25
 520.80078125 104.19921875 l 25
 520.80078125 0 l 25
 104.19921875 0 l 25
 104.19921875 625 l 29
EndSplineSet
Fore
SplineSet
97 600 m 25
 197 600 l 25
 197 100 l 25
 497 100 l 25
 497 0 l 25
 97 0 l 25
 97 600 l 25
EndSplineSet
EndChar

StartChar: M
Encoding: 77 77 45
Width: 638
VWidth: 0
Flags: W
HStem: 0 0G<101 206 518 622> 500 100<206 309 415 518>
VStem: 97 100<0 521> 297 100<312 521> 497 100<0 521>
CounterMasks: 1 38
LayerCount: 2
Back
SplineSet
104.19921875 625 m 29
 312.5 625 l 25
 312.5 520.80078125 l 25
 416.69921875 520.80078125 l 25
 416.69921875 625 l 25
 625 625 l 25
 625 0 l 25
 520.80078125 0 l 25
 520.80078125 520.80078125 l 25
 416.69921875 520.80078125 l 25
 416.69921875 312.5 l 25
 312.5 312.5 l 25
 312.5 520.80078125 l 25
 208.30078125 520.80078125 l 25
 208.30078125 0 l 25
 104.19921875 0 l 25
 104.19921875 625 l 29
EndSplineSet
Fore
SplineSet
97 600 m 25
 297 600 l 25
 297 500 l 25
 397 500 l 25
 397 600 l 25
 597 600 l 25
 597 0 l 25
 497 0 l 25
 497 500 l 25
 397 500 l 25
 397 300 l 25
 297 300 l 25
 297 500 l 25
 197 500 l 25
 197 0 l 25
 97 0 l 25
 97 600 l 25
EndSplineSet
EndChar

StartChar: N
Encoding: 78 78 46
Width: 638
VWidth: 0
Flags: W
HStem: 0 0G<101 206 415 518> 200 100<309 415> 300 100<206 309> 600 0G<101 206 415 518>
VStem: 97 100<0 312 418 625> 397 100<0 209 312 625>
LayerCount: 2
Back
SplineSet
104.19921875 625 m 29
 208.30078125 625 l 25
 208.30078125 416.69921875 l 25
 312.5 416.69921875 l 25
 312.5 312.5 l 25
 416.69921875 312.5 l 25
 416.69921875 625 l 25
 520.80078125 625 l 25
 520.80078125 0 l 25
 416.69921875 0 l 25
 416.69921875 208.30078125 l 25
 312.5 208.30078125 l 25
 312.5 312.5 l 25
 208.30078125 312.5 l 25
 208.30078125 0 l 25
 104.19921875 0 l 25
 104.19921875 625 l 29
EndSplineSet
Fore
SplineSet
97 600 m 25xbc
 197 600 l 25
 197 400 l 25
 297 400 l 25xbc
 297 300 l 25
 397 300 l 25
 397 600 l 25
 497 600 l 25
 497 0 l 25
 397 0 l 25
 397 200 l 25
 297 200 l 25
 297 300 l 25xdc
 197 300 l 25
 197 0 l 25
 97 0 l 25
 97 600 l 25xbc
EndSplineSet
EndChar

StartChar: O
Encoding: 79 79 47
Width: 638
VWidth: 0
Flags: W
HStem: -1600 2100G<415 518> -1600 2100G<415 518> 0 100<206 415> 500 100<206 415>
VStem: 97 100<104 521> 197 200<0 104 521 625>
LayerCount: 2
Back
SplineSet
208.30078125 625 m 29x0a
 416.69921875 625 l 25x0a
 416.69921875 520.80078125 l 25x82
 208.30078125 520.80078125 l 25
 208.30078125 104.19921875 l 25x0c
 416.69921875 104.19921875 l 25
 416.69921875 520.80078125 l 25
 520.80078125 520.80078125 l 25x82
 520.80078125 104.19921875 l 25
 416.69921875 104.19921875 l 25
 416.69921875 0 l 25
 208.30078125 0 l 25x22
 208.30078125 104.19921875 l 25
 104.19921875 104.19921875 l 25
 104.19921875 520.80078125 l 25
 208.30078125 520.80078125 l 25x0c
 208.30078125 625 l 29x0a
EndSplineSet
Fore
SplineSet
197 600 m 25x34
 397 600 l 25x34
 397 500 l 25x84
 197 500 l 25
 197 100 l 25x38
 397 100 l 25x34
 397 500 l 25
 497 500 l 25x84
 497 100 l 25
 397 100 l 25
 397 0 l 25
 197 0 l 25x24
 197 100 l 25
 97 100 l 25
 97 500 l 25
 197 500 l 25x38
 197 600 l 25x34
EndSplineSet
EndChar

StartChar: P
Encoding: 80 80 48
Width: 638
VWidth: 0
Flags: W
HStem: 0 0G<101 206> 200 100<206 415> 500 0G<415 518> 500 100<206 415>
VStem: 97 300<209 312 521 625> 97 100<0 209 312 521> 397 100<312 521>
LayerCount: 2
Back
SplineSet
104.19921875 625 m 29x06
 416.69921875 625 l 29x06
 416.69921875 520.80078125 l 29x82
 208.30078125 520.80078125 l 29
 208.30078125 312.5 l 29x0d
 416.69921875 312.5 l 29x0e
 416.69921875 520.80078125 l 29
 520.80078125 520.80078125 l 29x82
 520.80078125 312.5 l 29
 416.69921875 312.5 l 29
 416.69921875 208.30078125 l 29x0a
 208.30078125 208.30078125 l 29x09
 208.30078125 0 l 29
 104.19921875 0 l 29x21
 104.19921875 625 l 29x06
EndSplineSet
Fore
SplineSet
97 600 m 25xd8
 397 600 l 25xd8
 397 500 l 25xe8
 197 500 l 25
 197 300 l 25xd4
 397 300 l 25
 397 500 l 25xe8
 497 500 l 25
 497 300 l 25xe2
 397 300 l 25
 397 200 l 25xe8
 197 200 l 25
 197 0 l 25
 97 0 l 25xe4
 97 600 l 25xd8
EndSplineSet
EndChar

StartChar: Q
Encoding: 81 81 49
Width: 638
VWidth: 0
Flags: W
HStem: -100 100<415 518> 0 100<206 309> 500 0G<415 518> 500 100<206 415>
VStem: 97 100<104 521> 197 200<0 104 521 625> 397 100<104 521>
LayerCount: 2
Back
SplineSet
104.19921875 520.80078125 m 29
 208.30078125 520.80078125 l 25
 208.30078125 625 l 25
 416.69921875 625 l 25
 416.69921875 520.80078125 l 25
 208.30078125 520.80078125 l 25
 208.30078125 104.19921875 l 25
 416.69921875 104.19921875 l 25
 416.69921875 520.80078125 l 25
 520.80078125 520.80078125 l 25
 520.80078125 104.19921875 l 25
 416.69921875 104.19921875 l 25
 416.69921875 0 l 25
 520.80078125 0 l 25
 520.80078125 -104.19921875 l 25
 312.5 -104.19921875 l 25
 312.5 0 l 25
 208.30078125 0 l 25
 208.30078125 104.19921875 l 25
 104.19921875 104.19921875 l 25
 104.19921875 520.80078125 l 29
EndSplineSet
Fore
SplineSet
97 500 m 25x58
 197 500 l 25x58
 197 600 l 25
 397 600 l 25x54
 397 500 l 25x24
 197 500 l 25
 197 100 l 25x58
 397 100 l 25
 397 500 l 25x64
 497 500 l 25
 497 100 l 25x62
 397 100 l 25x64
 397 0 l 25x84
 497 0 l 25
 497 -100 l 25
 297 -100 l 25x82
 297 0 l 25
 197 0 l 25x44
 197 100 l 25
 97 100 l 25
 97 500 l 25x58
EndSplineSet
EndChar

StartChar: R
Encoding: 82 82 50
Width: 638
VWidth: 0
Flags: W
HStem: 0 100<415 518> 200 100<206 309> 500 0G<415 518> 500 100<206 415>
VStem: 97 100<0 209 312 521> 297 100<104 209> 397 100<0 104 312 521>
LayerCount: 2
Back
SplineSet
104.19921875 625 m 29
 416.69921875 625 l 25
 416.69921875 520.80078125 l 25
 208.30078125 520.80078125 l 25
 208.30078125 312.5 l 25
 416.69921875 312.5 l 25
 416.69921875 520.80078125 l 25
 520.80078125 520.80078125 l 25
 520.80078125 312.5 l 25
 416.69921875 312.5 l 25
 416.69921875 104.19921875 l 25
 520.80078125 104.19921875 l 25
 520.80078125 0 l 25
 416.69921875 0 l 25
 416.69921875 104.19921875 l 25
 312.5 104.19921875 l 25
 312.5 208.30078125 l 25
 208.30078125 208.30078125 l 25
 208.30078125 0 l 25
 104.19921875 0 l 25
 104.19921875 625 l 29
EndSplineSet
Fore
SplineSet
97 600 m 25xdc
 397 600 l 25xda
 397 500 l 25xea
 197 500 l 25xda
 197 300 l 25
 397 300 l 25
 397 500 l 25
 497 500 l 25
 497 300 l 25
 397 300 l 25xea
 397 100 l 25xec
 497 100 l 25
 497 0 l 25
 397 0 l 25xea
 397 100 l 25
 297 100 l 25
 297 200 l 25
 197 200 l 25
 197 0 l 25
 97 0 l 25
 97 600 l 25xdc
EndSplineSet
EndChar

StartChar: S
Encoding: 83 83 51
Width: 638
VWidth: 0
Flags: W
HStem: 0 100<101 415> 300 100<206 415> 500 100<206 518>
VStem: 97 100<418 521> 397 100<104 312>
LayerCount: 2
Back
SplineSet
208.30078125 625 m 29
 520.80078125 625 l 25
 520.80078125 520.80078125 l 25
 208.30078125 520.80078125 l 25
 208.30078125 416.69921875 l 25
 416.69921875 416.69921875 l 25
 416.69921875 312.5 l 25
 520.80078125 312.5 l 25
 520.80078125 104.19921875 l 25
 416.69921875 104.19921875 l 25
 416.69921875 0 l 25
 104.19921875 0 l 25
 104.19921875 104.19921875 l 25
 416.69921875 104.19921875 l 25
 416.69921875 312.5 l 25
 208.30078125 312.5 l 25
 208.30078125 416.69921875 l 25
 104.19921875 416.69921875 l 25
 104.19921875 520.80078125 l 25
 208.30078125 520.80078125 l 25
 208.30078125 625 l 29
EndSplineSet
Fore
SplineSet
197 600 m 25
 497 600 l 25
 497 500 l 25
 197 500 l 25
 197 400 l 25
 397 400 l 25
 397 300 l 25
 497 300 l 25
 497 100 l 25
 397 100 l 25
 397 0 l 25
 97 0 l 25
 97 100 l 25
 397 100 l 25
 397 300 l 25
 197 300 l 25
 197 400 l 25
 97 400 l 25
 97 500 l 25
 197 500 l 25
 197 600 l 25
EndSplineSet
EndChar

StartChar: T
Encoding: 84 84 52
Width: 638
VWidth: 0
Flags: W
HStem: 0 0G<309 415> 500 100<101 309 415 622>
VStem: 297 100<0 521>
LayerCount: 2
Back
SplineSet
104.19921875 625 m 29
 625 625 l 25
 625 520.80078125 l 25
 416.69921875 520.80078125 l 25
 416.69921875 0 l 25
 312.5 0 l 25
 312.5 520.80078125 l 25
 104.19921875 520.80078125 l 25
 104.19921875 625 l 29
EndSplineSet
Fore
SplineSet
97 600 m 25
 597 600 l 25
 597 500 l 25
 397 500 l 25
 397 0 l 25
 297 0 l 25
 297 500 l 25
 97 500 l 25
 97 600 l 25
EndSplineSet
EndChar

StartChar: U
Encoding: 85 85 53
Width: 638
VWidth: 0
Flags: W
HStem: 0 100<206 415> 600 0G<101 206 415 518>
VStem: 97 100<104 625> 397 100<104 625>
LayerCount: 2
Back
SplineSet
104.19921875 625 m 29
 208.30078125 625 l 25
 208.30078125 104.19921875 l 25
 416.69921875 104.19921875 l 25
 416.69921875 625 l 25
 520.80078125 625 l 25
 520.80078125 0 l 25
 208.30078125 0 l 25
 208.30078125 104.19921875 l 25
 104.19921875 104.19921875 l 25
 104.19921875 625 l 29
EndSplineSet
Fore
SplineSet
97 600 m 25
 197 600 l 25
 197 100 l 25
 397 100 l 25
 397 600 l 25
 497 600 l 25
 497 0 l 25
 197 0 l 25
 197 100 l 25
 97 100 l 25
 97 600 l 25
EndSplineSet
EndChar

StartChar: V
Encoding: 86 86 54
Width: 638
VWidth: 0
Flags: W
HStem: 0 200<206 415> 600 0G<101 206 415 518>
VStem: 97 100<209 625> 397 100<209 625>
LayerCount: 2
Back
SplineSet
104.19921875 625 m 29
 208.30078125 625 l 25
 208.30078125 208.30078125 l 25
 416.69921875 208.30078125 l 25
 416.69921875 625 l 25
 520.80078125 625 l 25
 520.80078125 208.30078125 l 25
 416.69921875 208.30078125 l 25
 416.69921875 0 l 25
 208.30078125 0 l 25
 208.30078125 208.30078125 l 25
 104.19921875 208.30078125 l 25
 104.19921875 625 l 29
EndSplineSet
Fore
SplineSet
97 600 m 25
 197 600 l 25
 197 200 l 25
 397 200 l 25
 397 600 l 25
 497 600 l 25
 497 200 l 25
 397 200 l 25
 397 0 l 25
 197 0 l 25
 197 200 l 25
 97 200 l 25
 97 600 l 25
EndSplineSet
EndChar

StartChar: W
Encoding: 87 87 55
Width: 638
VWidth: 0
Flags: W
HStem: 0 100<206 309 415 518> 600 0G<101 206 518 622>
VStem: 97 100<104 625> 297 100<104 312> 497 100<104 625>
CounterMasks: 1 38
LayerCount: 2
Back
SplineSet
104.19921875 625 m 29
 208.30078125 625 l 25
 208.30078125 104.19921875 l 25
 312.5 104.19921875 l 25
 312.5 312.5 l 25
 416.69921875 312.5 l 25
 416.69921875 104.19921875 l 25
 520.80078125 104.19921875 l 25
 520.80078125 625 l 25
 625 625 l 25
 625 104.19921875 l 25
 520.80078125 104.19921875 l 25
 520.80078125 0 l 25
 208.30078125 0 l 25
 208.30078125 104.19921875 l 25
 104.19921875 104.19921875 l 25
 104.19921875 625 l 29
EndSplineSet
Fore
SplineSet
97 600 m 25
 197 600 l 25
 197 100 l 25
 297 100 l 25
 297 300 l 25
 397 300 l 25
 397 100 l 25
 497 100 l 25
 497 600 l 25
 597 600 l 25
 597 100 l 25
 497 100 l 25
 497 0 l 25
 197 0 l 25
 197 100 l 25
 97 100 l 25
 97 600 l 25
EndSplineSet
EndChar

StartChar: X
Encoding: 88 88 56
Width: 638
VWidth: 0
Flags: W
HStem: 0 200<101 206 415 518> 400 200<101 206 415 518>
VStem: 97 100<0 209 418 625> 397 100<0 209 418 625>
LayerCount: 2
Back
SplineSet
104.19921875 625 m 29
 208.30078125 625 l 25
 208.30078125 416.69921875 l 25
 416.69921875 416.69921875 l 25
 416.69921875 625 l 25
 520.80078125 625 l 25
 520.80078125 416.69921875 l 25
 416.69921875 416.69921875 l 25
 416.69921875 208.30078125 l 25
 520.80078125 208.30078125 l 25
 520.80078125 0 l 25
 416.69921875 0 l 25
 416.69921875 208.30078125 l 25
 208.30078125 208.30078125 l 25
 208.30078125 0 l 25
 104.19921875 0 l 25
 104.19921875 208.30078125 l 25
 208.30078125 208.30078125 l 25
 208.30078125 416.69921875 l 25
 104.19921875 416.69921875 l 25
 104.19921875 625 l 29
EndSplineSet
Fore
SplineSet
97 600 m 25
 197 600 l 25
 197 400 l 25
 397 400 l 25
 397 600 l 25
 497 600 l 25
 497 400 l 25
 397 400 l 25
 397 200 l 25
 497 200 l 25
 497 0 l 25
 397 0 l 25
 397 200 l 25
 197 200 l 25
 197 0 l 25
 97 0 l 25
 97 200 l 25
 197 200 l 25
 197 400 l 25
 97 400 l 25
 97 600 l 25
EndSplineSet
EndChar

StartChar: Y
Encoding: 89 89 57
Width: 638
VWidth: 0
Flags: W
HStem: 0 0G<309 415> 300 100<206 309 415 518> 400 200<101 206 518 622>
VStem: 97 100<418 625> 197 100<312 418> 397 100<312 418> 497 100<418 625>
LayerCount: 2
Back
SplineSet
104.19921875 625 m 29
 208.30078125 625 l 25
 208.30078125 416.69921875 l 25
 312.5 416.69921875 l 25
 312.5 312.5 l 25
 416.69921875 312.5 l 25
 416.69921875 416.69921875 l 25
 520.80078125 416.69921875 l 25
 520.80078125 625 l 25
 625 625 l 25
 625 520.80078125 l 25
 625 416.69921875 l 25
 520.80078125 416.69921875 l 25
 520.80078125 312.5 l 25
 416.69921875 312.5 l 25
 416.69921875 0 l 25
 312.5 0 l 25
 312.5 312.5 l 25
 208.30078125 312.5 l 25
 208.30078125 416.69921875 l 25
 104.19921875 416.69921875 l 25
 104.19921875 625 l 29
EndSplineSet
Fore
SplineSet
97 600 m 25xb0
 197 600 l 25xb0
 197 400 l 25xd0
 297 400 l 25
 297 300 l 25
 397 300 l 25
 397 400 l 25
 497 400 l 25xcc
 497 600 l 25
 597 600 l 25
 597 500 l 25
 597 400 l 25xa2
 497 400 l 25
 497 300 l 25
 397 300 l 25
 397 0 l 25
 297 0 l 25
 297 300 l 25
 197 300 l 25xcc
 197 400 l 25xd0
 97 400 l 25
 97 600 l 25xb0
EndSplineSet
EndChar

StartChar: Z
Encoding: 90 90 58
Width: 638
VWidth: 0
Flags: W
HStem: 0 100<206 518> 200 100<206 309> 300 100<309 415> 500 100<101 415>
VStem: 97 100<104 209> 197 100<209 312> 297 100<312 418> 397 100<418 521>
LayerCount: 2
Back
SplineSet
104.19921875 625 m 29
 520.80078125 625 l 25
 520.80078125 416.69921875 l 25
 416.69921875 416.69921875 l 25
 416.69921875 312.5 l 25
 312.5 312.5 l 25
 312.5 208.30078125 l 25
 208.30078125 208.30078125 l 25
 208.30078125 104.19921875 l 25
 520.80078125 104.19921875 l 25
 520.80078125 0 l 25
 104.19921875 0 l 25
 104.19921875 208.30078125 l 25
 208.30078125 208.30078125 l 25
 208.30078125 312.5 l 25
 312.5 312.5 l 25
 312.5 416.69921875 l 25
 416.69921875 416.69921875 l 25
 416.69921875 520.80078125 l 25
 104.19921875 520.80078125 l 25
 104.19921875 625 l 29
EndSplineSet
Fore
SplineSet
97 600 m 25xb9
 497 600 l 25
 497 400 l 25xb9
 397 400 l 25
 397 300 l 25xb2
 297 300 l 25
 297 200 l 25xd4
 197 200 l 25
 197 100 l 25
 497 100 l 25
 497 0 l 25
 97 0 l 25
 97 200 l 25
 197 200 l 25xd9
 197 300 l 25
 297 300 l 25xd4
 297 400 l 25
 397 400 l 25xb2
 397 500 l 25
 97 500 l 25
 97 600 l 25xb9
EndSplineSet
EndChar

StartChar: bracketleft
Encoding: 91 91 59
Width: 638
VWidth: 0
Flags: W
HStem: -100 100<309 415> 600 100<309 415>
VStem: 197 200<-104 0 625 729> 197 100<0 625>
LayerCount: 2
Back
SplineSet
208.30078125 729.19921875 m 29
 416.69921875 729.19921875 l 25
 416.69921875 625 l 25
 312.5 625 l 25
 312.5 0 l 25
 416.69921875 0 l 25
 416.69921875 -104.19921875 l 25
 208.30078125 -104.19921875 l 25
 208.30078125 729.19921875 l 29
EndSplineSet
Fore
SplineSet
197 700 m 25xe0
 397 700 l 25
 397 600 l 25xe0
 297 600 l 25
 297 0 l 25xd0
 397 0 l 25
 397 -100 l 25
 197 -100 l 25
 197 700 l 25xe0
EndSplineSet
EndChar

StartChar: backslash
Encoding: 92 92 60
Width: 638
VWidth: 0
Flags: W
HStem: -100 0G<415 518> 700 0G<101 206>
VStem: 97 100<521 729> 197 100<312 521> 297 100<104 312> 397 100<-104 104>
LayerCount: 2
Back
SplineSet
104.19921875 729.19921875 m 29
 208.30078125 729.19921875 l 25
 208.30078125 520.80078125 l 25
 312.5 520.80078125 l 25
 312.5 312.5 l 25
 416.69921875 312.5 l 25
 416.69921875 104.19921875 l 25
 520.80078125 104.19921875 l 25
 520.80078125 -104.19921875 l 25
 416.69921875 -104.19921875 l 25
 416.69921875 104.19921875 l 25
 312.5 104.19921875 l 25
 312.5 312.5 l 25
 208.30078125 312.5 l 25
 208.30078125 520.80078125 l 25
 104.19921875 520.80078125 l 25
 104.19921875 729.19921875 l 29
EndSplineSet
Fore
SplineSet
97 700 m 25xe0
 197 700 l 25
 197 500 l 25xe0
 297 500 l 25
 297 300 l 25xd0
 397 300 l 25
 397 100 l 25xc8
 497 100 l 25
 497 -100 l 25
 397 -100 l 25xc4
 397 100 l 25
 297 100 l 25xc8
 297 300 l 25
 197 300 l 25xd0
 197 500 l 25
 97 500 l 25
 97 700 l 25xe0
EndSplineSet
EndChar

StartChar: bracketright
Encoding: 93 93 61
Width: 638
VWidth: 0
Flags: W
HStem: -100 100<206 309> 600 100<206 309>
VStem: 197 200<-104 0 625 729> 297 100<0 625>
LayerCount: 2
Back
SplineSet
208.30078125 729.19921875 m 29
 416.69921875 729.19921875 l 25
 416.69921875 -104.19921875 l 25
 208.30078125 -104.19921875 l 25
 208.30078125 0 l 25
 312.5 0 l 25
 312.5 625 l 25
 208.30078125 625 l 25
 208.30078125 729.19921875 l 29
EndSplineSet
Fore
SplineSet
197 700 m 25xe0
 397 700 l 25
 397 -100 l 25
 197 -100 l 25
 197 0 l 25xe0
 297 0 l 25
 297 600 l 25xd0
 197 600 l 25
 197 700 l 25xe0
EndSplineSet
EndChar

StartChar: asciicircum
Encoding: 94 94 62
Width: 638
VWidth: 0
Flags: W
HStem: 400 100<101 206 518 622> 500 100<206 309 415 518> 600 100<309 415>
VStem: 97 100<418 521> 197 100<521 625> 397 100<521 625> 497 100<418 521>
LayerCount: 2
Back
SplineSet
104.19921875 520.80078125 m 29
 208.30078125 520.80078125 l 25
 208.30078125 625 l 25
 312.5 625 l 25
 312.5 729.19921875 l 25
 416.69921875 729.19921875 l 25
 416.69921875 625 l 25
 520.80078125 625 l 25
 520.80078125 520.80078125 l 25
 625 520.80078125 l 25
 625 416.69921875 l 25
 520.80078125 416.69921875 l 25
 520.80078125 520.80078125 l 25
 416.69921875 520.80078125 l 25
 416.69921875 625 l 25
 312.5 625 l 25
 312.5 520.80078125 l 25
 208.30078125 520.80078125 l 25
 208.30078125 416.69921875 l 25
 104.19921875 416.69921875 l 25
 104.19921875 520.80078125 l 29
EndSplineSet
Fore
SplineSet
97 500 m 25x90
 197 500 l 25x90
 197 600 l 25
 297 600 l 25x48
 297 700 l 25
 397 700 l 25x2c
 397 600 l 25
 497 600 l 25x4c
 497 500 l 25x8c
 597 500 l 25
 597 400 l 25
 497 400 l 25x82
 497 500 l 25x84
 397 500 l 25
 397 600 l 25
 297 600 l 25
 297 500 l 25x4c
 197 500 l 25
 197 400 l 25
 97 400 l 25
 97 500 l 25x90
EndSplineSet
EndChar

StartChar: underscore
Encoding: 95 95 63
Width: 638
VWidth: 0
Flags: W
HStem: -100 100<101 622>
LayerCount: 2
Back
SplineSet
104.19921875 0 m 29
 625 0 l 25
 625 -104.19921875 l 25
 104.19921875 -104.19921875 l 25
 104.19921875 0 l 29
EndSplineSet
Fore
SplineSet
97 0 m 25
 597 0 l 25
 597 -100 l 25
 97 -100 l 25
 97 0 l 25
EndSplineSet
EndChar

StartChar: grave
Encoding: 96 96 64
Width: 638
VWidth: 0
Flags: W
LayerCount: 2
Back
SplineSet
208.30078125 729.19921875 m 29
 208.30078125 520.80078125 l 25
 312.5 520.80078125 l 25
 312.5 416.69921875 l 25
 416.69921875 416.69921875 l 25
 416.69921875 520.80078125 l 25
 312.5 520.80078125 l 25
 312.5 729.19921875 l 25
 208.30078125 729.19921875 l 29
EndSplineSet
Fore
SplineSet
197 700 m 25
 197 500 l 25
 297 500 l 25
 297 400 l 25
 397 400 l 25
 397 500 l 25
 297 500 l 25
 297 700 l 25
 197 700 l 25
EndSplineSet
EndChar

StartChar: a
Encoding: 97 97 65
Width: 638
VWidth: 0
Flags: W
LayerCount: 2
Back
SplineSet
520.80078125 104.19921875 m 29
 520.80078125 0 l 25
 625 0 l 25
 625 104.19921875 l 25
 520.80078125 104.19921875 l 29
208.30078125 104.19921875 m 25
 208.30078125 0 l 25
 416.69921875 0 l 25
 416.69921875 104.19921875 l 25
 208.30078125 104.19921875 l 25
208.30078125 520.80078125 m 25
 208.30078125 416.69921875 l 25
 416.69921875 416.69921875 l 25
 416.69921875 104.19921875 l 25
 520.80078125 104.19921875 l 25
 520.80078125 520.80078125 l 25
 208.30078125 520.80078125 l 25
104.19921875 416.69921875 m 25
 104.19921875 104.19921875 l 25
 208.30078125 104.19921875 l 25
 208.30078125 416.69921875 l 25
 104.19921875 416.69921875 l 25
EndSplineSet
Fore
SplineSet
497 100 m 25
 497 0 l 25
 597 0 l 25
 597 100 l 25
 497 100 l 25
197 100 m 25
 197 0 l 25
 397 0 l 25
 397 100 l 25
 197 100 l 25
197 500 m 25
 197 400 l 25
 397 400 l 25
 397 100 l 25
 497 100 l 25
 497 500 l 25
 197 500 l 25
97 400 m 25
 97 100 l 25
 197 100 l 25
 197 400 l 25
 97 400 l 25
EndSplineSet
EndChar

StartChar: b
Encoding: 98 98 66
Width: 638
VWidth: 0
Flags: W
HStem: 0 100<206 415> 400 100<206 415> 700 0G<101 206>
VStem: 97 300<0 104 418 521> 97 100<104 418 521 729> 397 100<104 418>
LayerCount: 2
Back
SplineSet
416.69921875 104.19921875 m 29
 416.69921875 416.69921875 l 25
 520.80078125 416.69921875 l 25
 520.80078125 104.19921875 l 25
 416.69921875 104.19921875 l 29
104.19921875 0 m 25
 104.19921875 729.19921875 l 25
 208.30078125 729.19921875 l 25
 208.30078125 520.80078125 l 25
 416.69921875 520.80078125 l 25
 416.69921875 416.69921875 l 25
 208.30078125 416.69921875 l 25
 208.30078125 104.19921875 l 25
 416.69921875 104.19921875 l 25
 416.69921875 0 l 25
 104.19921875 0 l 25
EndSplineSet
Fore
SplineSet
397 100 m 25xf0
 397 400 l 25xf0
 497 400 l 25
 497 100 l 25xe4
 397 100 l 25xf0
97 0 m 25
 97 700 l 25
 197 700 l 25
 197 500 l 25xe8
 397 500 l 25
 397 400 l 25xf0
 197 400 l 25
 197 100 l 25xe8
 397 100 l 25
 397 0 l 25
 97 0 l 25
EndSplineSet
EndChar

StartChar: c
Encoding: 99 99 67
Width: 638
VWidth: 0
Flags: W
HStem: 0 100<206 518> 400 100<206 518>
VStem: 97 100<104 418> 197 300<0 104 418 521>
LayerCount: 2
Back
SplineSet
208.30078125 520.80078125 m 29
 520.80078125 520.80078125 l 25
 520.80078125 416.69921875 l 25
 208.30078125 416.69921875 l 25
 208.30078125 104.19921875 l 25
 520.80078125 104.19921875 l 25
 520.80078125 0 l 25
 208.30078125 0 l 25
 208.30078125 104.19921875 l 25
 104.19921875 104.19921875 l 25
 104.19921875 416.69921875 l 25
 208.30078125 416.69921875 l 25
 208.30078125 520.80078125 l 29
EndSplineSet
Fore
SplineSet
197 500 m 25xd0
 497 500 l 25
 497 400 l 25xd0
 197 400 l 25
 197 100 l 25xe0
 497 100 l 25
 497 0 l 25
 197 0 l 25xd0
 197 100 l 25
 97 100 l 25
 97 400 l 25
 197 400 l 25xe0
 197 500 l 25xd0
EndSplineSet
EndChar

StartChar: d
Encoding: 100 100 68
Width: 638
VWidth: 0
Flags: W
HStem: 0 100<206 415> 400 100<206 415> 700 0G<415 518>
VStem: 97 100<104 418> 197 300<0 104 418 521> 397 100<104 418 521 729>
LayerCount: 2
Back
SplineSet
208.30078125 520.80078125 m 29
 416.69921875 520.80078125 l 25
 416.69921875 729.19921875 l 25
 520.80078125 729.19921875 l 25
 520.80078125 0 l 25
 208.30078125 0 l 25
 208.30078125 104.19921875 l 25
 416.69921875 104.19921875 l 25
 416.69921875 416.69921875 l 25
 208.30078125 416.69921875 l 25
 208.30078125 104.19921875 l 25
 104.19921875 104.19921875 l 25
 104.19921875 416.69921875 l 25
 208.30078125 416.69921875 l 25
 208.30078125 520.80078125 l 29
EndSplineSet
Fore
SplineSet
197 500 m 25xe8
 397 500 l 25
 397 700 l 25
 497 700 l 25xe4
 497 0 l 25
 197 0 l 25xe8
 197 100 l 25
 397 100 l 25
 397 400 l 25
 197 400 l 25
 197 100 l 25
 97 100 l 25
 97 400 l 25
 197 400 l 25xf4
 197 500 l 25xe8
EndSplineSet
EndChar

StartChar: e
Encoding: 101 101 69
Width: 638
VWidth: 0
Flags: W
HStem: 0 100<206 518> 200 100<206 415> 400 100<206 415>
VStem: 97 100<104 209 312 418> 397 100<312 418>
CounterMasks: 1 e0
LayerCount: 2
Back
SplineSet
208.30078125 520.80078125 m 29
 416.69921875 520.80078125 l 25
 416.69921875 416.69921875 l 25
 208.30078125 416.69921875 l 25
 208.30078125 312.5 l 25
 416.69921875 312.5 l 25
 416.69921875 416.69921875 l 25
 520.80078125 416.69921875 l 25
 520.80078125 208.30078125 l 25
 208.30078125 208.30078125 l 25
 208.30078125 104.19921875 l 25
 520.80078125 104.19921875 l 25
 520.80078125 0 l 25
 208.30078125 0 l 25
 208.30078125 104.19921875 l 25
 104.19921875 104.19921875 l 25
 104.19921875 416.69921875 l 25
 208.30078125 416.69921875 l 25
 208.30078125 520.80078125 l 29
EndSplineSet
Fore
SplineSet
197 500 m 25
 397 500 l 25
 397 400 l 25
 197 400 l 25
 197 300 l 25
 397 300 l 25
 397 400 l 25
 497 400 l 25
 497 200 l 25
 197 200 l 25
 197 100 l 25
 497 100 l 25
 497 0 l 25
 197 0 l 25
 197 100 l 25
 97 100 l 25
 97 400 l 25
 197 400 l 25
 197 500 l 25
EndSplineSet
EndChar

StartChar: f
Encoding: 102 102 70
Width: 638
VWidth: 0
Flags: WO
HStem: 0 0G<206 309> 400 100<309 518> 600 100<309 518>
VStem: 197 100<0 418 521 625>
LayerCount: 2
Back
SplineSet
208.30078125 625 m 29
 312.5 625 l 25
 312.5 729.19921875 l 25
 520.80078125 729.19921875 l 25
 520.80078125 625 l 25
 312.5 625 l 25
 312.5 520.80078125 l 25
 520.80078125 520.80078125 l 25
 520.80078125 416.69921875 l 25
 312.5 416.69921875 l 25
 312.5 0 l 25
 208.30078125 0 l 25
 208.30078125 625 l 29
EndSplineSet
Fore
SplineSet
197 600 m 25
 297 600 l 25
 297 700 l 25
 497 700 l 25
 497 600 l 25
 297 600 l 25
 297 500 l 25
 497 500 l 25
 497 400 l 25
 297 400 l 25
 297 0 l 25
 197 0 l 25
 197 600 l 25
EndSplineSet
EndChar

StartChar: g
Encoding: 103 103 71
Width: 638
VWidth: 0
Flags: W
HStem: -100 100<206 415> 100 100<206 415> 400 100<206 415>
VStem: 97 100<209 418> 197 300<104 209 418 521> 397 100<0 104 209 418>
LayerCount: 2
Back
SplineSet
104.19921875 416.69921875 m 29
 208.30078125 416.69921875 l 25
 208.30078125 520.80078125 l 25
 520.80078125 520.80078125 l 25
 520.80078125 0 l 25
 416.69921875 0 l 25
 416.69921875 -104.19921875 l 25
 208.30078125 -104.19921875 l 25
 208.30078125 0 l 25
 416.69921875 0 l 25
 416.69921875 104.19921875 l 25
 208.30078125 104.19921875 l 25
 208.30078125 208.30078125 l 25
 416.69921875 208.30078125 l 25
 416.69921875 416.69921875 l 25
 208.30078125 416.69921875 l 25
 208.30078125 208.30078125 l 25
 104.19921875 208.30078125 l 25
 104.19921875 416.69921875 l 29
EndSplineSet
Fore
SplineSet
97 400 m 25
 197 400 l 25
 197 100 l 25
 397 100 l 25
 397 400 l 25
 197 400 l 25
 197 500 l 25
 497 500 l 25
 497 -100 l 25
 397 -100 l 25
 397 -200 l 25
 197 -200 l 25
 197 -100 l 25
 397 -100 l 25
 397 0 l 25
 197 0 l 25
 197 100 l 25
 97 100 l 25
 97 400 l 25
EndSplineSet
EndChar

StartChar: h
Encoding: 104 104 72
Width: 638
VWidth: 0
Flags: W
HStem: 0 0G<101 206 415 518> 400 100<206 415> 700 0G<101 206>
VStem: 97 100<0 418 521 729> 397 100<0 418>
LayerCount: 2
Back
SplineSet
104.19921875 729.19921875 m 29
 208.30078125 729.19921875 l 25
 208.30078125 520.80078125 l 25
 416.69921875 520.80078125 l 25
 416.69921875 416.69921875 l 25
 520.80078125 416.69921875 l 25
 520.80078125 0 l 25
 416.69921875 0 l 25
 416.69921875 416.69921875 l 25
 208.30078125 416.69921875 l 25
 208.30078125 0 l 25
 104.19921875 0 l 25
 104.19921875 729.19921875 l 29
EndSplineSet
Fore
SplineSet
97 700 m 25
 197 700 l 25
 197 500 l 25
 397 500 l 25
 397 400 l 25
 497 400 l 25
 497 0 l 25
 397 0 l 25
 397 400 l 25
 197 400 l 25
 197 0 l 25
 97 0 l 25
 97 700 l 25
EndSplineSet
EndChar

StartChar: i
Encoding: 105 105 73
Width: 638
VWidth: 0
Flags: W
HStem: 0 0G<309 415> 500 0G<309 415> 600 100<309 415>
VStem: 297 100<0 521 625 729>
LayerCount: 2
Back
SplineSet
312.5 520.80078125 m 29
 416.69921875 520.80078125 l 25
 416.69921875 0 l 25
 312.5 0 l 25
 312.5 520.80078125 l 29
312.5 729.19921875 m 25
 416.69921875 729.19921875 l 25
 416.69921875 625 l 25
 312.5 625 l 25
 312.5 729.19921875 l 25
EndSplineSet
Fore
SplineSet
297 500 m 25
 397 500 l 25
 397 0 l 25
 297 0 l 25
 297 500 l 25
297 700 m 25
 397 700 l 25
 397 600 l 25
 297 600 l 25
 297 700 l 25
EndSplineSet
EndChar

StartChar: j
Encoding: 106 106 74
Width: 638
VWidth: 0
Flags: W
HStem: -100 100<206 309> 500 0G<309 415> 600 100<309 415>
VStem: 197 100<-104 0> 297 100<0 521 625 729>
LayerCount: 2
Back
SplineSet
312.5 520.80078125 m 29
 416.69921875 520.80078125 l 25
 416.69921875 0 l 25
 312.5 0 l 25
 312.5 -104.19921875 l 25
 208.30078125 -104.19921875 l 25
 208.30078125 0 l 25
 312.5 0 l 25
 312.5 520.80078125 l 29
312.5 729.19921875 m 25
 416.69921875 729.19921875 l 25
 416.69921875 625 l 25
 312.5 625 l 25
 312.5 729.19921875 l 25
EndSplineSet
Fore
SplineSet
297 500 m 25xe8
 397 500 l 25
 397 0 l 25xe8
 297 0 l 25
 297 -100 l 25
 197 -100 l 25
 197 0 l 25
 297 0 l 25xf0
 297 500 l 25xe8
297 700 m 25
 397 700 l 25
 397 600 l 25
 297 600 l 25
 297 700 l 25
EndSplineSet
EndChar

StartChar: k
Encoding: 107 107 75
Width: 638
VWidth: 0
Flags: W
LayerCount: 2
Back
SplineSet
104.19921875 729.19921875 m 29
 208.30078125 729.19921875 l 25
 208.30078125 312.5 l 25
 312.5 312.5 l 25
 312.5 416.69921875 l 25
 416.69921875 416.69921875 l 25
 416.69921875 520.80078125 l 25
 520.80078125 520.80078125 l 25
 520.80078125 416.69921875 l 25
 416.69921875 416.69921875 l 25
 416.69921875 312.5 l 25
 312.5 312.5 l 25
 312.5 208.30078125 l 25
 416.69921875 208.30078125 l 25
 416.69921875 104.19921875 l 25
 520.80078125 104.19921875 l 25
 520.80078125 0 l 25
 416.69921875 0 l 25
 416.69921875 104.19921875 l 25
 312.5 104.19921875 l 25
 312.5 208.30078125 l 25
 208.30078125 208.30078125 l 25
 208.30078125 0 l 25
 104.19921875 0 l 25
 104.19921875 729.19921875 l 29
EndSplineSet
Fore
SplineSet
98 700 m 25x8e
 198 700 l 29
 198 300 l 25
 298 300 l 25
 298 400 l 25
 398 400 l 25xae
 398 500 l 25
 498 500 l 25
 498 400 l 25x1d
 398 400 l 25
 398 300 l 25
 298 300 l 25
 298 200 l 25
 398 200 l 25x6e
 398 100 l 25x8e
 498 100 l 25
 498 0 l 25
 398 0 l 25x8d
 398 100 l 25x8e
 298 100 l 25
 298 200 l 25
 198 200 l 25x4e
 198 0 l 25
 98 0 l 25
 98 700 l 25x8e
EndSplineSet
EndChar

StartChar: l
Encoding: 108 108 76
Width: 638
VWidth: 0
Flags: W
HStem: 0 100<309 518> 700 0G<206 309>
VStem: 197 100<104 729>
LayerCount: 2
Back
SplineSet
208.30078125 729.19921875 m 29
 312.5 729.19921875 l 25
 312.5 104.19921875 l 25
 520.80078125 104.19921875 l 25
 520.80078125 0 l 25
 312.5 0 l 25
 312.5 104.19921875 l 25
 208.30078125 104.19921875 l 25
 208.30078125 729.19921875 l 29
EndSplineSet
Fore
SplineSet
197 700 m 25
 297 700 l 25
 297 100 l 25
 497 100 l 25
 497 0 l 25
 297 0 l 25
 297 100 l 25
 197 100 l 25
 197 700 l 25
EndSplineSet
EndChar

StartChar: m
Encoding: 109 109 77
Width: 638
VWidth: 0
Flags: W
HStem: 0 0G<101 206 518 622> 400 100<206 309 415 518>
VStem: 97 100<0 418> 297 100<104 418> 497 100<0 418>
CounterMasks: 1 38
LayerCount: 2
Back
SplineSet
104.19921875 0 m 29
 104.19921875 520.80078125 l 25
 520.80078125 520.80078125 l 25
 520.80078125 416.69921875 l 25
 625 416.69921875 l 25
 625 0 l 25
 520.80078125 0 l 25
 520.80078125 416.69921875 l 25
 416.69921875 416.69921875 l 25
 416.69921875 104.19921875 l 25
 312.5 104.19921875 l 25
 312.5 416.69921875 l 25
 208.30078125 416.69921875 l 25
 208.30078125 0 l 25
 104.19921875 0 l 29
EndSplineSet
Fore
SplineSet
97 0 m 25
 97 500 l 25
 497 500 l 25
 497 400 l 25
 597 400 l 25
 597 0 l 25
 497 0 l 25
 497 400 l 25
 397 400 l 25
 397 100 l 25
 297 100 l 25
 297 400 l 25
 197 400 l 25
 197 0 l 25
 97 0 l 25
EndSplineSet
EndChar

StartChar: n
Encoding: 110 110 78
Width: 638
VWidth: 0
Flags: W
HStem: 0 0G<101 206 415 518> 400 100<206 415>
VStem: 97 100<0 418> 397 100<0 418>
LayerCount: 2
Back
SplineSet
104.19921875 520.80078125 m 29
 416.69921875 520.80078125 l 25
 416.69921875 416.69921875 l 25
 520.80078125 416.69921875 l 25
 520.80078125 0 l 25
 416.69921875 0 l 25
 416.69921875 416.69921875 l 25
 208.30078125 416.69921875 l 25
 208.30078125 0 l 25
 104.19921875 0 l 25
 104.19921875 520.80078125 l 29
EndSplineSet
Fore
SplineSet
97 500 m 25
 397 500 l 25
 397 400 l 25
 497 400 l 25
 497 0 l 25
 397 0 l 25
 397 400 l 25
 197 400 l 25
 197 0 l 25
 97 0 l 25
 97 500 l 25
EndSplineSet
EndChar

StartChar: o
Encoding: 111 111 79
Width: 638
VWidth: 0
Flags: W
HStem: 0 100<206 415> 100 300<101 206 415 518>
VStem: 97 100<104 418> 197 200<0 104 418 521>
LayerCount: 2
Back
SplineSet
208.30078125 520.80078125 m 29x28
 416.69921875 520.80078125 l 25
 416.69921875 416.69921875 l 25
 520.80078125 416.69921875 l 25
 520.80078125 104.19921875 l 25
 416.69921875 104.19921875 l 25x28
 416.69921875 0 l 25
 208.30078125 0 l 25x88
 208.30078125 104.19921875 l 25
 104.19921875 104.19921875 l 25
 104.19921875 416.69921875 l 25
 208.30078125 416.69921875 l 25
 208.30078125 104.19921875 l 25x30
 416.69921875 104.19921875 l 25
 416.69921875 416.69921875 l 25x28
 208.30078125 416.69921875 l 25x30
 208.30078125 520.80078125 l 29x28
EndSplineSet
Fore
SplineSet
197 500 m 25x50
 397 500 l 25
 397 400 l 25
 497 400 l 25
 497 100 l 25x50
 397 100 l 25
 397 0 l 25
 197 0 l 25x90
 197 100 l 25xa0
 97 100 l 25
 97 400 l 25
 197 400 l 25x60
 197 100 l 25xa0
 397 100 l 25x90
 397 400 l 25x50
 197 400 l 25x60
 197 500 l 25x50
EndSplineSet
EndChar

StartChar: p
Encoding: 112 112 80
Width: 638
VWidth: 0
Flags: W
HStem: -100 0G<101 206> 100 100<206 415> 400 100<206 415>
VStem: 97 300<104 209 418 521> 97 100<-104 104 209 418> 397 100<209 418>
LayerCount: 2
Back
SplineSet
104.19921875 520.80078125 m 29
 416.69921875 520.80078125 l 25
 416.69921875 416.69921875 l 25
 520.80078125 416.69921875 l 25
 520.80078125 208.30078125 l 25
 416.69921875 208.30078125 l 25
 416.69921875 416.69921875 l 25
 208.30078125 416.69921875 l 25
 208.30078125 208.30078125 l 25
 416.69921875 208.30078125 l 25
 416.69921875 104.19921875 l 25
 208.30078125 104.19921875 l 25
 208.30078125 -104.19921875 l 25
 104.19921875 -104.19921875 l 25
 104.19921875 520.80078125 l 29
EndSplineSet
Fore
SplineSet
97 500 m 25
 397 500 l 25
 397 400 l 25
 197 400 l 25
 197 100 l 25
 397 100 l 25
 397 400 l 25
 497 400 l 25
 497 100 l 25
 397 100 l 25
 397 0 l 25
 197 0 l 25
 197 -200 l 25
 97 -200 l 25
 97 500 l 25
EndSplineSet
EndChar

StartChar: q
Encoding: 113 113 81
Width: 638
VWidth: 0
Flags: W
HStem: -100 0G<415 518> 100 100<206 415> 400 100<206 415>
VStem: 97 100<209 418> 197 300<104 209 418 521> 397 100<-104 104 209 418>
LayerCount: 2
Back
SplineSet
208.30078125 520.80078125 m 29
 520.80078125 520.80078125 l 25
 520.80078125 -104.19921875 l 25
 416.69921875 -104.19921875 l 25
 416.69921875 104.19921875 l 25
 208.30078125 104.19921875 l 25
 208.30078125 208.30078125 l 25
 104.19921875 208.30078125 l 25
 104.19921875 416.69921875 l 25
 208.30078125 416.69921875 l 25
 208.30078125 208.30078125 l 25
 416.69921875 208.30078125 l 25
 416.69921875 416.69921875 l 25
 208.30078125 416.69921875 l 25
 208.30078125 520.80078125 l 29
EndSplineSet
Fore
SplineSet
97 400 m 25
 197 400 l 25
 197 100 l 25
 397 100 l 25
 397 400 l 25
 197 400 l 25
 197 500 l 25
 497 500 l 25
 497 -200 l 25
 397 -200 l 25
 397 0 l 25
 197 0 l 25
 197 100 l 25
 97 100 l 25
 97 400 l 25
EndSplineSet
EndChar

StartChar: r
Encoding: 114 114 82
Width: 638
VWidth: 0
Flags: W
HStem: 0 0G<206 309> 400 100<309 518>
VStem: 197 100<0 418>
LayerCount: 2
Back
SplineSet
312.5 520.80078125 m 29
 520.80078125 520.80078125 l 25
 520.80078125 416.69921875 l 25
 312.5 416.69921875 l 25
 312.5 0 l 25
 208.30078125 0 l 25
 208.30078125 416.69921875 l 25
 312.5 416.69921875 l 25
 312.5 520.80078125 l 29
EndSplineSet
Fore
SplineSet
297 500 m 25
 497 500 l 25
 497 400 l 25
 297 400 l 25
 297 0 l 25
 197 0 l 25
 197 400 l 25
 297 400 l 25
 297 500 l 25
EndSplineSet
EndChar

StartChar: s
Encoding: 115 115 83
Width: 638
VWidth: 0
Flags: W
HStem: 0 100<101 415> 200 100<206 415> 400 100<206 518>
VStem: 97 100<312 418> 397 100<104 209>
CounterMasks: 1 e0
LayerCount: 2
Back
SplineSet
208.30078125 520.80078125 m 29
 520.80078125 520.80078125 l 25
 520.80078125 416.69921875 l 25
 208.30078125 416.69921875 l 25
 208.30078125 312.5 l 25
 416.69921875 312.5 l 25
 416.69921875 208.30078125 l 25
 520.80078125 208.30078125 l 25
 520.80078125 104.19921875 l 25
 416.69921875 104.19921875 l 25
 416.69921875 0 l 25
 104.19921875 0 l 25
 104.19921875 104.19921875 l 25
 416.69921875 104.19921875 l 25
 416.69921875 208.30078125 l 25
 208.30078125 208.30078125 l 25
 208.30078125 312.5 l 25
 104.19921875 312.5 l 25
 104.19921875 416.69921875 l 25
 208.30078125 416.69921875 l 25
 208.30078125 520.80078125 l 29
EndSplineSet
Fore
SplineSet
197 500 m 25
 497 500 l 25
 497 400 l 25
 197 400 l 25
 197 300 l 25
 397 300 l 25
 397 200 l 25
 497 200 l 25
 497 100 l 25
 397 100 l 25
 397 0 l 25
 97 0 l 25
 97 100 l 25
 397 100 l 25
 397 200 l 25
 197 200 l 25
 197 300 l 25
 97 300 l 25
 97 400 l 25
 197 400 l 25
 197 500 l 25
EndSplineSet
EndChar

StartChar: t
Encoding: 116 116 84
Width: 638
VWidth: 0
Flags: W
HStem: 0 100<309 518> 400 100<309 518> 700 0G<206 309>
VStem: 197 100<104 418 521 729>
LayerCount: 2
Back
SplineSet
208.30078125 729.19921875 m 29
 312.5 729.19921875 l 25
 312.5 520.80078125 l 25
 520.80078125 520.80078125 l 25
 520.80078125 416.69921875 l 25
 312.5 416.69921875 l 25
 312.5 104.19921875 l 25
 520.80078125 104.19921875 l 25
 520.80078125 0 l 25
 312.5 0 l 25
 312.5 104.19921875 l 25
 208.30078125 104.19921875 l 25
 208.30078125 729.19921875 l 29
EndSplineSet
Fore
SplineSet
197 700 m 25
 297 700 l 25
 297 500 l 25
 497 500 l 25
 497 400 l 25
 297 400 l 25
 297 100 l 25
 497 100 l 25
 497 0 l 25
 297 0 l 25
 297 100 l 25
 197 100 l 25
 197 700 l 25
EndSplineSet
EndChar

StartChar: u
Encoding: 117 117 85
Width: 638
VWidth: 0
Flags: W
HStem: 0 100<206 415> 500 0G<101 206 415 518>
VStem: 97 100<104 521> 397 100<104 521>
LayerCount: 2
Back
SplineSet
104.19921875 520.80078125 m 29
 208.30078125 520.80078125 l 25
 208.30078125 104.19921875 l 25
 416.69921875 104.19921875 l 25
 416.69921875 520.80078125 l 25
 520.80078125 520.80078125 l 25
 520.80078125 0 l 25
 208.30078125 0 l 25
 208.30078125 104.19921875 l 25
 104.19921875 104.19921875 l 25
 104.19921875 520.80078125 l 29
EndSplineSet
Fore
SplineSet
97 500 m 25
 197 500 l 25
 197 100 l 25
 397 100 l 25
 397 500 l 25
 497 500 l 25
 497 0 l 25
 197 0 l 25
 197 100 l 25
 97 100 l 25
 97 500 l 25
EndSplineSet
EndChar

StartChar: v
Encoding: 118 118 86
Width: 638
VWidth: 0
Flags: W
HStem: 0 200<206 415> 200 300<101 206 415 518>
VStem: 97 100<209 521> 397 100<209 521>
LayerCount: 2
Back
SplineSet
104.19921875 520.80078125 m 29
 208.30078125 520.80078125 l 25
 208.30078125 208.30078125 l 25
 416.69921875 208.30078125 l 25
 416.69921875 520.80078125 l 25
 520.80078125 520.80078125 l 25
 520.80078125 208.30078125 l 25
 416.69921875 208.30078125 l 25
 416.69921875 0 l 25
 208.30078125 0 l 25
 208.30078125 208.30078125 l 25
 104.19921875 208.30078125 l 25
 104.19921875 520.80078125 l 29
EndSplineSet
Fore
SplineSet
97 500 m 25x70
 197 500 l 25x70
 197 200 l 25
 397 200 l 25xb0
 397 500 l 25
 497 500 l 25
 497 200 l 25x70
 397 200 l 25
 397 0 l 25
 197 0 l 25
 197 200 l 25xb0
 97 200 l 25
 97 500 l 25x70
EndSplineSet
EndChar

StartChar: w
Encoding: 119 119 87
Width: 638
VWidth: 0
Flags: W
HStem: 0 100<206 309 415 518> 500 0G<101 206 518 622>
VStem: 97 100<104 521> 297 100<104 418> 497 100<104 521>
CounterMasks: 1 38
LayerCount: 2
Back
SplineSet
104.19921875 520.80078125 m 29
 208.30078125 520.80078125 l 25
 208.30078125 104.19921875 l 25
 312.5 104.19921875 l 25
 312.5 416.69921875 l 25
 416.69921875 416.69921875 l 25
 416.69921875 104.19921875 l 25
 520.80078125 104.19921875 l 25
 520.80078125 520.80078125 l 25
 625 520.80078125 l 25
 625 0 l 25
 208.30078125 0 l 25
 208.30078125 104.19921875 l 25
 104.19921875 104.19921875 l 25
 104.19921875 520.80078125 l 29
EndSplineSet
Fore
SplineSet
97 500 m 25
 197 500 l 25
 197 100 l 25
 297 100 l 25
 297 400 l 25
 397 400 l 25
 397 100 l 25
 497 100 l 25
 497 500 l 25
 597 500 l 25
 597 0 l 25
 197 0 l 25
 197 100 l 25
 97 100 l 25
 97 500 l 25
EndSplineSet
EndChar

StartChar: x
Encoding: 120 120 88
Width: 638
VWidth: 0
Flags: W
HStem: 0 200<101 206 415 518> 300 200<101 206 415 518>
VStem: 97 100<0 209 312 521> 397 100<0 209 312 521>
LayerCount: 2
Back
SplineSet
104.19921875 520.80078125 m 29
 208.30078125 520.80078125 l 25
 208.30078125 312.5 l 25
 416.69921875 312.5 l 25
 416.69921875 520.80078125 l 25
 520.80078125 520.80078125 l 25
 520.80078125 312.5 l 25
 416.69921875 312.5 l 25
 416.69921875 208.30078125 l 25
 520.80078125 208.30078125 l 25
 520.80078125 0 l 25
 416.69921875 0 l 25
 416.69921875 208.30078125 l 25
 208.30078125 208.30078125 l 25
 208.30078125 0 l 25
 104.19921875 0 l 25
 104.19921875 208.30078125 l 25
 208.30078125 208.30078125 l 25
 208.30078125 312.5 l 25
 104.19921875 312.5 l 25
 104.19921875 520.80078125 l 29
EndSplineSet
Fore
SplineSet
97 500 m 25
 197 500 l 25
 197 300 l 25
 397 300 l 25
 397 500 l 25
 497 500 l 25
 497 300 l 25
 397 300 l 25
 397 200 l 25
 497 200 l 25
 497 0 l 25
 397 0 l 25
 397 200 l 25
 197 200 l 25
 197 0 l 25
 97 0 l 25
 97 200 l 25
 197 200 l 25
 197 300 l 25
 97 300 l 25
 97 500 l 25
EndSplineSet
EndChar

StartChar: y
Encoding: 121 121 89
Width: 638
VWidth: 0
Flags: W
HStem: -100 100<206 415> 100 100<206 415> 500 0G<101 206 415 518>
VStem: 97 100<209 521> 397 100<0 104 209 521>
LayerCount: 2
Back
SplineSet
104.19921875 520.80078125 m 29
 208.30078125 520.80078125 l 25
 208.30078125 208.30078125 l 25
 416.69921875 208.30078125 l 25
 416.69921875 520.80078125 l 25
 520.80078125 520.80078125 l 25
 520.80078125 0 l 25
 416.69921875 0 l 25
 416.69921875 -104.19921875 l 25
 208.30078125 -104.19921875 l 25
 208.30078125 0 l 25
 416.69921875 0 l 25
 416.69921875 104.19921875 l 25
 208.30078125 104.19921875 l 25
 208.30078125 208.30078125 l 25
 104.19921875 208.30078125 l 25
 104.19921875 520.80078125 l 29
EndSplineSet
Fore
SplineSet
97 500 m 25
 197 500 l 25
 197 200 l 25
 397 200 l 25
 397 500 l 25
 497 500 l 25
 497 0 l 25
 397 0 l 25
 397 -100 l 25
 197 -100 l 25
 197 0 l 25
 397 0 l 25
 397 100 l 25
 197 100 l 25
 197 200 l 25
 97 200 l 25
 97 500 l 25
EndSplineSet
EndChar

StartChar: z
Encoding: 122 122 90
Width: 638
VWidth: 0
Flags: W
HStem: 0 100<206 518> 200 100<206 415> 400 100<101 415>
VStem: 97 100<104 209> 397 100<312 418>
CounterMasks: 1 e0
LayerCount: 2
Back
SplineSet
104.19921875 520.80078125 m 29
 520.80078125 520.80078125 l 25
 520.80078125 312.5 l 25
 416.69921875 312.5 l 25
 416.69921875 208.30078125 l 25
 208.30078125 208.30078125 l 25
 208.30078125 104.19921875 l 25
 520.80078125 104.19921875 l 25
 520.80078125 0 l 25
 104.19921875 0 l 25
 104.19921875 208.30078125 l 25
 208.30078125 208.30078125 l 25
 208.30078125 312.5 l 25
 416.69921875 312.5 l 25
 416.69921875 416.69921875 l 25
 104.19921875 416.69921875 l 25
 104.19921875 520.80078125 l 29
EndSplineSet
Fore
SplineSet
97 500 m 25
 497 500 l 25
 497 300 l 25
 397 300 l 25
 397 200 l 25
 197 200 l 25
 197 100 l 25
 497 100 l 25
 497 0 l 25
 97 0 l 25
 97 200 l 25
 197 200 l 25
 197 300 l 25
 397 300 l 25
 397 400 l 25
 97 400 l 25
 97 500 l 25
EndSplineSet
EndChar

StartChar: braceleft
Encoding: 123 123 91
Width: 638
VWidth: 0
Flags: W
HStem: 0 100<415 518> 300 100<206 309> 600 100<415 518>
VStem: 197 100<312 418> 297 100<104 312 418 625> 397 100<0 104 625 729>
CounterMasks: 1 e0
LayerCount: 2
Back
SplineSet
416.69921875 729.19921875 m 29
 520.80078125 729.19921875 l 25
 520.80078125 625 l 25
 416.69921875 625 l 25
 416.69921875 416.69921875 l 25
 312.5 416.69921875 l 25
 312.5 312.5 l 25
 416.69921875 312.5 l 25
 416.69921875 104.19921875 l 25
 520.80078125 104.19921875 l 25
 520.80078125 0 l 25
 416.69921875 0 l 25
 416.69921875 104.19921875 l 25
 312.5 104.19921875 l 25
 312.5 312.5 l 25
 208.30078125 312.5 l 25
 208.30078125 416.69921875 l 25
 312.5 416.69921875 l 25
 312.5 625 l 25
 416.69921875 625 l 25
 416.69921875 729.19921875 l 29
EndSplineSet
Fore
SplineSet
397 700 m 25xe4
 497 700 l 25
 497 600 l 25xe4
 397 600 l 25
 397 400 l 25xe8
 297 400 l 25
 297 300 l 25xf0
 397 300 l 25
 397 100 l 25xe8
 497 100 l 25
 497 0 l 25
 397 0 l 25xe4
 397 100 l 25
 297 100 l 25xe8
 297 300 l 25
 197 300 l 25
 197 400 l 25
 297 400 l 25xf0
 297 600 l 25
 397 600 l 25xe8
 397 700 l 25xe4
EndSplineSet
EndChar

StartChar: bar
Encoding: 124 124 92
Width: 638
VWidth: 0
Flags: W
HStem: -100 0G<309 415> 600 0G<309 415>
VStem: 297 100<-104 625>
LayerCount: 2
Back
SplineSet
312.5 625 m 29
 416.69921875 625 l 25
 416.69921875 -104.19921875 l 25
 312.5 -104.19921875 l 25
 312.5 625 l 29
EndSplineSet
Fore
SplineSet
297 600 m 25
 397 600 l 25
 397 -100 l 25
 297 -100 l 25
 297 600 l 25
EndSplineSet
EndChar

StartChar: braceright
Encoding: 125 125 93
Width: 638
VWidth: 0
Flags: W
HStem: 0 100<101 206> 300 100<309 415> 600 100<101 206>
VStem: 97 100<0 104 625 729> 197 100<104 312 418 625> 297 100<312 418>
CounterMasks: 1 e0
LayerCount: 2
Back
SplineSet
104.19921875 729.19921875 m 29
 208.30078125 729.19921875 l 25
 208.30078125 625 l 25
 312.5 625 l 25
 312.5 416.69921875 l 25
 416.69921875 416.69921875 l 25
 416.69921875 312.5 l 25
 312.5 312.5 l 25
 312.5 104.19921875 l 25
 208.30078125 104.19921875 l 25
 208.30078125 0 l 25
 104.19921875 0 l 25
 104.19921875 104.19921875 l 25
 208.30078125 104.19921875 l 25
 208.30078125 312.5 l 25
 312.5 312.5 l 25
 312.5 416.69921875 l 25
 208.30078125 416.69921875 l 25
 208.30078125 625 l 25
 104.19921875 625 l 25
 104.19921875 729.19921875 l 29
EndSplineSet
Fore
SplineSet
97 700 m 25xf0
 197 700 l 25
 197 600 l 25xf0
 297 600 l 25
 297 400 l 25xe8
 397 400 l 25
 397 300 l 25xe4
 297 300 l 25
 297 100 l 25xe8
 197 100 l 25
 197 0 l 25
 97 0 l 25
 97 100 l 25
 197 100 l 25xf0
 197 300 l 25
 297 300 l 25
 297 400 l 25
 197 400 l 25xe8
 197 600 l 25
 97 600 l 25
 97 700 l 25xf0
EndSplineSet
EndChar

StartChar: asciitilde
Encoding: 126 126 94
Width: 638
VWidth: 0
Flags: W
HStem: 200 100<101 206 309 518> 300 100<206 309 518 622>
VStem: 97 100<209 312> 497 100<312 418>
LayerCount: 2
Back
SplineSet
104.19921875 312.5 m 29
 208.30078125 312.5 l 25
 208.30078125 416.69921875 l 25
 312.5 416.69921875 l 25
 312.5 312.5 l 25
 520.80078125 312.5 l 25
 520.80078125 416.69921875 l 25
 625 416.69921875 l 25
 625 312.5 l 25
 520.80078125 312.5 l 25
 520.80078125 208.30078125 l 25
 312.5 208.30078125 l 25
 312.5 312.5 l 25
 208.30078125 312.5 l 25
 208.30078125 208.30078125 l 25
 104.19921875 208.30078125 l 25
 104.19921875 312.5 l 29
EndSplineSet
Fore
SplineSet
97 300 m 25xb0
 197 300 l 25xb0
 197 400 l 25
 297 400 l 25x70
 297 300 l 25
 497 300 l 25xb0
 497 400 l 25
 597 400 l 25
 597 300 l 25x70
 497 300 l 25
 497 200 l 25
 297 200 l 25
 297 300 l 25
 197 300 l 25
 197 200 l 25
 97 200 l 25
 97 300 l 25xb0
EndSplineSet
EndChar

StartChar: exclamdown
Encoding: 161 161 96
Width: 638
VWidth: 0
Flags: W
HStem: -100 0G<309 415> 500 100<309 415>
VStem: 297 100<-104 418 521 625>
LayerCount: 2
Back
SplineSet
312.5 416.69921875 m 29
 416.69921875 416.69921875 l 25
 416.69921875 -104.19921875 l 25
 312.5 -104.19921875 l 25
 312.5 416.69921875 l 29
416.69921875 625 m 25
 416.69921875 520.80078125 l 25
 312.5 520.80078125 l 25
 312.5 625 l 25
 416.69921875 625 l 25
EndSplineSet
Fore
SplineSet
297 400 m 25
 397 400 l 25
 397 -100 l 25
 297 -100 l 25
 297 400 l 25
397 600 m 25
 397 500 l 25
 297 500 l 25
 297 600 l 25
 397 600 l 25
EndSplineSet
EndChar

StartChar: sterling
Encoding: 163 163 98
Width: 638
VWidth: 0
Flags: W
HStem: 0 100<101 206 309 622> 200 100<101 206 309 518> 500 100<309 622>
VStem: 197 100<104 209 312 521>
LayerCount: 2
Back
Fore
SplineSet
297 600 m 25
 597 600 l 25
 597 500 l 25
 297 500 l 25
 297 300 l 25
 497 300 l 25
 497 200 l 25
 297 200 l 25
 297 100 l 25
 597 100 l 25
 597 0 l 25
 97 0 l 25
 97 100 l 25
 197 100 l 25
 197 200 l 25
 97 200 l 25
 97 300 l 25
 197 300 l 25
 197 500 l 25
 297 500 l 25
 297 600 l 25
EndSplineSet
EndChar

StartChar: currency
Encoding: 256 164 99
Width: 638
VWidth: 0
Flags: W
HStem: 0 100<-3 101 518 622> 500 100<-3 101 518 622>
VStem: -3 100<0 104 521 625> 497 100<0 104 521 625>
LayerCount: 2
Back
Fore
SplineSet
197 400 m 25
 197 200 l 25
 397 200 l 25
 397 400 l 25
 197 400 l 25
-3 600 m 25
 97 600 l 25
 97 500 l 25
 497 500 l 25
 497 600 l 25
 597 600 l 25
 597 500 l 25
 497 500 l 25
 497 100 l 25
 597 100 l 25
 597 0 l 25
 497 0 l 25
 497 100 l 25
 97 100 l 25
 97 0 l 25
 -3 0 l 25
 -3 100 l 25
 97 100 l 25
 97 500 l 25
 -3 500 l 25
 -3 600 l 25
EndSplineSet
EndChar

StartChar: yen
Encoding: 165 165 100
Width: 638
VWidth: 0
Flags: W
HStem: -100 0G<309 415> 0 100<206 309 415 518> 200 100<206 309 415 518> 400 100<206 309 415 518> 500 100<101 206 518 622>
VStem: 97 100<521 625> 197 100<418 521> 297 100<-104 0 104 209 312 418> 397 100<418 521> 497 100<521 625>
LayerCount: 2
Back
Fore
SplineSet
97 600 m 25xec
 197 600 l 25xec
 197 500 l 25xf4
 297 500 l 25
 297 400 l 25xf2
 397 400 l 25xf1
 397 500 l 25
 497 500 l 25xf080
 497 600 l 25
 597 600 l 25
 597 500 l 25xe840
 497 500 l 25
 497 400 l 25xf080
 397 400 l 25
 397 300 l 25
 497 300 l 25
 497 200 l 25
 397 200 l 25
 397 100 l 25
 497 100 l 25
 497 0 l 25
 397 0 l 25
 397 -100 l 25
 297 -100 l 25
 297 0 l 25xf140
 197 0 l 25
 197 100 l 25xf2
 297 100 l 25
 297 200 l 25xf1
 197 200 l 25
 197 300 l 25xf2
 297 300 l 25xf1
 297 400 l 25
 197 400 l 25xf2
 197 500 l 25xf4
 97 500 l 25
 97 600 l 25xec
EndSplineSet
EndChar

StartChar: brokenbar
Encoding: 257 166 101
Width: 638
VWidth: 0
Flags: W
HStem: -100 0G<309 415> 600 0G<309 415>
VStem: 297 100<-104 625>
LayerCount: 2
Back
Fore
SplineSet
297 600 m 25
 397 600 l 25
 397 -100 l 25
 297 -100 l 25
 297 600 l 25
EndSplineSet
EndChar

StartChar: section
Encoding: 167 167 102
Width: 638
VWidth: 0
Flags: W
HStem: -100 100<101 309> 100 100<206 309 415 518> 200 100<101 206 309 415> 400 100<309 518>
VStem: 97 100<209 312> 197 100<104 209 312 418> 297 100<0 104 209 312> 397 100<104 209>
LayerCount: 2
Back
Fore
SplineSet
197 500 m 25xb4
 497 500 l 25
 497 400 l 25
 297 400 l 25
 297 300 l 25xb5
 397 300 l 25xb2
 397 200 l 25xd2
 497 200 l 25
 497 100 l 25xd1
 397 100 l 25
 397 200 l 25xd2
 297 200 l 25xd4
 297 300 l 25xb4
 197 300 l 25xb8
 197 200 l 25xd8
 297 200 l 25
 297 100 l 25xd4
 397 100 l 25xd2
 397 -100 l 25xd1
 97 -100 l 25
 97 0 l 25
 297 0 l 25xda
 297 100 l 25
 197 100 l 25xd4
 197 200 l 25xd8
 97 200 l 25
 97 300 l 25
 197 300 l 25xb8
 197 500 l 25xb4
EndSplineSet
EndChar

StartChar: dieresis
Encoding: 258 168 103
Width: 638
VWidth: 0
Flags: W
HStem: 500 100<206 309 518 622>
VStem: 197 100<521 625> 497 100<521 625>
LayerCount: 2
Back
Fore
SplineSet
497 600 m 25
 597 600 l 25
 597 500 l 25
 497 500 l 25
 497 600 l 25
197 600 m 25
 297 600 l 25
 297 500 l 25
 197 500 l 25
 197 600 l 25
EndSplineSet
EndChar

StartChar: copyright
Encoding: 169 169 104
Width: 638
VWidth: 0
Flags: W
HStem: 0 100<206 415> 100 100<101 206 415 518> 200 100<206 415> 400 100<206 415> 500 100<101 206 415 518> 600 100<206 415>
VStem: -3 100<209 312 418 521> 97 100<104 209 521 625> 197 200<0 104 209 312 418 521 625 729> 397 100<104 209 521 625> 497 100<209 521>
LayerCount: 2
Back
Fore
SplineSet
197 700 m 25x0480
 397 700 l 25x0480
 397 600 l 25x0880
 197 600 l 25x09
 197 500 l 25x11
 97 500 l 25x0a
 97 400 l 25
 197 400 l 25
 197 300 l 25
 97 300 l 25x3280
 97 200 l 25x4280
 197 200 l 25x41
 197 100 l 25x81
 397 100 l 25x8080
 397 200 l 25x4080
 197 200 l 25x41
 197 300 l 25
 397 300 l 25x2080
 397 200 l 25x4080
 497 200 l 25
 497 500 l 25x4840
 397 500 l 25
 397 400 l 25
 197 400 l 25x1080
 197 500 l 25x11
 397 500 l 25x1080
 397 600 l 25x0880
 497 600 l 25
 497 500 l 25x0840
 597 500 l 25
 597 200 l 25x2820
 497 200 l 25
 497 100 l 25x4040
 397 100 l 25
 397 0 l 25
 197 0 l 25x8080
 197 100 l 25x81
 97 100 l 25x41
 97 200 l 25x42
 -3 200 l 25
 -3 500 l 25
 97 500 l 25x2a
 97 600 l 25
 197 600 l 25x29
 197 700 l 25x0480
EndSplineSet
EndChar

StartChar: ordfeminine
Encoding: 170 170 105
Width: 638
VWidth: 0
Flags: W
HStem: 100 100<206 309> 200 100<101 206> 300 100<206 309> 500 100<206 309>
VStem: 97 100<209 312> 197 100<521 625> 297 100<209 312 418 521>
LayerCount: 2
Back
Fore
SplineSet
197 600 m 25x34
 297 600 l 25
 297 500 l 25x34
 397 500 l 25
 397 100 l 25xb2
 197 100 l 25xb4
 197 200 l 25
 297 200 l 25
 297 300 l 25xba
 197 300 l 25x5a
 197 200 l 25x9a
 97 200 l 25
 97 300 l 25
 197 300 l 25x5a
 197 400 l 25x34
 297 400 l 25x32
 297 500 l 25
 197 500 l 25
 197 600 l 25x34
EndSplineSet
EndChar

StartChar: guillemotleft
Encoding: 171 171 106
Width: 638
VWidth: 0
Flags: W
HStem: 0 100<206 309 518 622> 100 100<101 206 415 518> 200 100<-3 101 309 415> 300 100<101 206 415 518> 400 100<206 309 518 622>
VStem: -3 100<209 312> 97 100<104 209 312 418> 197 100<0 104 418 521> 297 100<209 312> 397 100<104 209 312 418> 497 100<0 104 418 521>
LayerCount: 2
Back
Fore
SplineSet
497 500 m 25x0820
 597 500 l 25
 597 400 l 25x0820
 497 400 l 25
 497 300 l 25x1040
 397 300 l 25x2080
 397 200 l 25x4080
 497 200 l 25x4040
 497 100 l 25x8040
 597 100 l 25
 597 0 l 25
 497 0 l 25x8020
 497 100 l 25x8040
 397 100 l 25x4040
 397 200 l 25x4080
 297 200 l 25
 297 300 l 25
 397 300 l 25x2080
 397 400 l 25
 497 400 l 25x1040
 497 500 l 25x0820
197 500 m 25x09
 297 500 l 25
 297 400 l 25x09
 197 400 l 25
 197 300 l 25x12
 97 300 l 25x24
 97 200 l 25x44
 197 200 l 25x42
 197 100 l 25x82
 297 100 l 25
 297 0 l 25
 197 0 l 25x81
 197 100 l 25x82
 97 100 l 25x42
 97 200 l 25x44
 -3 200 l 25
 -3 300 l 25
 97 300 l 25x24
 97 400 l 25
 197 400 l 25x12
 197 500 l 25x09
EndSplineSet
EndChar

StartChar: logicalnot
Encoding: 172 172 107
Width: 638
VWidth: 0
Flags: W
HStem: 0 0G<518 622> 200 100<101 518>
VStem: 497 100<0 209>
LayerCount: 2
Back
Fore
SplineSet
97 300 m 25
 597 300 l 25
 597 0 l 25
 497 0 l 25
 497 200 l 25
 97 200 l 25
 97 300 l 25
EndSplineSet
EndChar

StartChar: registered
Encoding: 174 174 108
Width: 638
VWidth: 0
Flags: W
HStem: 0 100<206 415> 100 100<101 206> 200 300<-3 101 206 309 518 622> 500 100<101 206> 600 100<206 415>
VStem: -3 100<209 521> 97 100<104 209 521 625> 197 200<0 104 312 418 625 729> 197 100<209 312> 397 100<104 209 521 625> 497 100<312 418>
LayerCount: 2
Back
Fore
SplineSet
197 700 m 25x09
 397 700 l 25
 397 600 l 25x09
 197 600 l 25x12
 197 500 l 25x22
 97 500 l 25x24
 97 200 l 25x44
 197 200 l 25x42
 197 100 l 25x82
 397 100 l 25
 397 300 l 25
 497 300 l 25
 497 400 l 25
 397 400 l 25
 397 300 l 25x8120
 297 300 l 25
 297 200 l 25xa080
 197 200 l 25x42
 197 500 l 25x22
 397 500 l 25x1240
 397 600 l 25x09
 497 600 l 25
 497 500 l 25x2840
 597 500 l 25
 597 200 l 25x2820
 497 200 l 25x2840
 497 100 l 25x4040
 397 100 l 25
 397 0 l 25
 197 0 l 25x81
 197 100 l 25x82
 97 100 l 25x42
 97 200 l 25x44
 -3 200 l 25
 -3 500 l 25
 97 500 l 25x24
 97 600 l 25
 197 600 l 25x12
 197 700 l 25x09
EndSplineSet
EndChar

StartChar: macron
Encoding: 175 175 109
Width: 638
VWidth: 0
Flags: W
HStem: 500 100<206 518>
VStem: 197 300<521 625>
LayerCount: 2
Back
Fore
SplineSet
197 600 m 25
 497 600 l 25
 497 500 l 25
 197 500 l 25
 197 600 l 25
EndSplineSet
EndChar

StartChar: degree
Encoding: 176 176 110
Width: 638
VWidth: 0
Flags: W
HStem: 300 100<206 309> 400 100<101 206 309 415> 500 100<206 309>
VStem: 97 100<418 521> 197 100<312 418 521 625> 297 100<418 521>
LayerCount: 2
Back
Fore
SplineSet
197 600 m 25x28
 297 600 l 25x28
 297 500 l 25x48
 197 500 l 25x50
 197 400 l 25x90
 297 400 l 25x88
 297 500 l 25x48
 397 500 l 25
 397 400 l 25x44
 297 400 l 25
 297 300 l 25
 197 300 l 25x88
 197 400 l 25x90
 97 400 l 25
 97 500 l 25
 197 500 l 25x50
 197 600 l 25x28
EndSplineSet
EndChar

StartChar: plusminus
Encoding: 177 177 111
Width: 638
VWidth: 0
Flags: W
HStem: 100 100<206 518> 400 100<206 309 415 518> 600 0G<309 415>
VStem: 197 300<104 209 418 521> 297 100<312 418 521 625>
LayerCount: 2
Back
Fore
SplineSet
197 200 m 25xf0
 497 200 l 25
 497 100 l 25
 197 100 l 25
 197 200 l 25xf0
297 600 m 25xe8
 397 600 l 25
 397 500 l 25xe8
 497 500 l 25
 497 400 l 25xf0
 397 400 l 25
 397 300 l 25
 297 300 l 25
 297 400 l 25xe8
 197 400 l 25
 197 500 l 25xf0
 297 500 l 25
 297 600 l 25xe8
EndSplineSet
EndChar

StartChar: uni00B2
Encoding: 178 178 112
Width: 638
VWidth: 0
Flags: W
HStem: 300 100<101 206 309 415> 600 100<101 206> 700 100<206 309>
VStem: 97 100<625 729> 197 100<418 521 729 834> 297 100<521 729>
LayerCount: 2
Back
Fore
SplineSet
97 600 m 25xd0
 97 700 l 25
 197 700 l 25xd0
 197 800 l 25
 297 800 l 25
 297 700 l 25xa8
 397 700 l 25
 397 500 l 25xa4
 297 500 l 25
 297 400 l 25xa8
 397 400 l 25
 397 300 l 25
 97 300 l 25
 97 400 l 25xb4
 197 400 l 25
 197 500 l 25
 297 500 l 25
 297 700 l 25xa8
 197 700 l 25
 197 600 l 25
 97 600 l 25xd0
EndSplineSet
EndChar

StartChar: uni00B3
Encoding: 179 179 113
Width: 638
VWidth: 0
Flags: W
HStem: 300 100<101 309> 500 100<101 309> 700 100<101 309>
VStem: 97 200<312 418 521 625 729 834> 297 100<418 521 625 729>
CounterMasks: 1 e0
LayerCount: 2
Back
Fore
SplineSet
97 800 m 25xf0
 297 800 l 25
 297 700 l 25xf0
 397 700 l 25
 397 600 l 25xe8
 297 600 l 25
 297 500 l 25xf0
 397 500 l 25
 397 400 l 25xe8
 297 400 l 25
 297 300 l 25
 97 300 l 25
 97 400 l 25
 297 400 l 25
 297 500 l 25
 97 500 l 25
 97 600 l 25
 297 600 l 25
 297 700 l 25
 97 700 l 25
 97 800 l 25xf0
EndSplineSet
EndChar

StartChar: acute
Encoding: 259 180 114
Width: 638
VWidth: 0
Flags: W
HStem: 400 100<206 309> 700 0G<309 415>
VStem: 197 100<418 521> 297 100<521 729>
LayerCount: 2
Back
Fore
SplineSet
297 700 m 25xd0
 397 700 l 25
 397 500 l 25xd0
 297 500 l 25
 297 400 l 25
 197 400 l 25
 197 500 l 25
 297 500 l 25xe0
 297 700 l 25xd0
EndSplineSet
EndChar

StartChar: mu
Encoding: 181 181 115
Width: 638
VWidth: 0
Flags: W
HStem: 0 100<206 309> 100 100<309 415> 500 0G<101 206 415 518>
VStem: 97 100<-209 0 104 521> 397 100<0 104 209 521>
LayerCount: 2
Back
Fore
SplineSet
97 500 m 25xb8
 197 500 l 25
 197 100 l 25
 297 100 l 25xb8
 297 200 l 25
 397 200 l 25x78
 397 500 l 25
 497 500 l 25
 497 0 l 25
 397 0 l 25xb8
 397 100 l 25x78
 297 100 l 25
 297 0 l 25
 197 0 l 25
 197 -200 l 25
 97 -200 l 25
 97 500 l 25xb8
EndSplineSet
EndChar

StartChar: paragraph
Encoding: 182 182 116
Width: 638
VWidth: 0
Flags: W
HStem: -100 0G<206 309 415 518> 500 100<309 415>
VStem: -3 300<312 521> 197 100<-104 209> 397 100<-104 521>
LayerCount: 2
Back
Fore
SplineSet
-3 500 m 25xe8
 97 500 l 25
 97 600 l 25
 497 600 l 25
 497 -100 l 25
 397 -100 l 25
 397 500 l 25
 297 500 l 25xe8
 297 -100 l 25
 197 -100 l 25
 197 200 l 25xd8
 97 200 l 25
 97 300 l 25
 -3 300 l 25
 -3 500 l 25xe8
EndSplineSet
EndChar

StartChar: periodcentered
Encoding: 183 183 117
Width: 638
VWidth: 0
Flags: W
HStem: 100 200<206 415>
VStem: 197 200<104 312>
LayerCount: 2
Back
Fore
SplineSet
197 300 m 25
 397 300 l 25
 397 100 l 25
 197 100 l 25
 197 300 l 25
EndSplineSet
EndChar

StartChar: cedilla
Encoding: 260 184 118
Width: 638
VWidth: 0
Flags: W
HStem: -200 100<206 415> 0 100<309 415>
VStem: 297 100<0 104> 397 100<-104 0>
LayerCount: 2
Back
Fore
SplineSet
297 100 m 25xe0
 397 100 l 25
 397 0 l 25xe0
 497 0 l 25
 497 -200 l 25
 197 -200 l 25
 197 -100 l 25
 397 -100 l 25xd0
 397 0 l 25
 297 0 l 25
 297 100 l 25xe0
EndSplineSet
EndChar

StartChar: uni00B9
Encoding: 185 185 119
Width: 638
VWidth: 0
Flags: W
HStem: 400 100<101 206> 600 0G<206 309>
VStem: 197 100<104 418 521 625>
LayerCount: 2
Back
Fore
SplineSet
97 500 m 25
 197 500 l 25
 197 600 l 25
 297 600 l 25
 297 100 l 25
 197 100 l 25
 197 400 l 25
 97 400 l 25
 97 500 l 25
EndSplineSet
EndChar

StartChar: ordmasculine
Encoding: 186 186 120
Width: 638
VWidth: 0
Flags: W
HStem: 200 100<206 415> 300 200<101 206 415 518> 500 100<206 415>
VStem: 97 100<312 521> 197 200<209 312 521 625> 397 100<312 521>
LayerCount: 2
Back
Fore
SplineSet
197 600 m 25x28
 397 600 l 25x28
 397 500 l 25x48
 497 500 l 25
 497 300 l 25x44
 397 300 l 25
 397 200 l 25
 197 200 l 25x88
 197 300 l 25x90
 397 300 l 25x88
 397 500 l 25x48
 197 500 l 25x50
 197 300 l 25x90
 97 300 l 25
 97 500 l 25
 197 500 l 25x50
 197 600 l 25x28
EndSplineSet
EndChar

StartChar: guillemotright
Encoding: 187 187 121
Width: 638
VWidth: 0
Flags: W
HStem: 0 100<-3 101 309 415> 100 100<101 206 415 518> 200 100<206 309 518 622> 300 100<101 206 415 518> 400 100<-3 101 309 415>
VStem: -3 100<0 104 418 521> 97 100<104 209 312 418> 197 100<209 312> 297 100<0 104 418 521> 397 100<104 209 312 418> 497 100<209 312>
LayerCount: 2
Back
Fore
SplineSet
297 500 m 25x0880
 397 500 l 25x0880
 397 400 l 25x1080
 497 400 l 25x1040
 497 300 l 25x2040
 597 300 l 25
 597 200 l 25x2020
 497 200 l 25
 497 100 l 25x4040
 397 100 l 25
 397 0 l 25
 297 0 l 25
 297 100 l 25
 397 100 l 25x8080
 397 200 l 25
 497 200 l 25x4040
 497 300 l 25x2040
 397 300 l 25x1040
 397 400 l 25x1080
 297 400 l 25
 297 500 l 25x0880
-3 500 m 25x0c
 97 500 l 25x0c
 97 400 l 25x14
 197 400 l 25x12
 197 300 l 25x22
 297 300 l 25
 297 200 l 25x21
 197 200 l 25
 197 100 l 25x42
 97 100 l 25
 97 0 l 25
 -3 0 l 25
 -3 100 l 25
 97 100 l 25x84
 97 200 l 25
 197 200 l 25x42
 197 300 l 25x22
 97 300 l 25x12
 97 400 l 25x14
 -3 400 l 25
 -3 500 l 25x0c
EndSplineSet
EndChar

StartChar: onequarter
Encoding: 261 188 122
Width: 638
VWidth: 0
Flags: W
HStem: -100 0G<515 618> 0 100<409 515 618 722> 100 100<97 200> 200 100<200 306 409 515> 300 100<306 409> 400 100<409 515> 500 100<515 618> 600 100<97 200>
VStem: 97 100<104 209> 197 100<209 312 418 625 729 834> 297 100<104 209 312 418> 397 100<418 521> 497 100<-104 0 104 209 312 418 521 625>
LayerCount: 2
Back
Fore
SplineSet
97 700 m 25x8580
 197 700 l 1
 197 800 l 5
 297 800 l 1
 297 400 l 1x8940
 397 400 l 25x8920
 397 500 l 25
 497 500 l 25x8410
 497 600 l 25
 597 600 l 25
 597 500 l 25x8208
 497 500 l 25
 497 400 l 25x8410
 597 400 l 25
 597 100 l 25
 697 100 l 25
 697 0 l 25
 597 0 l 25
 597 -100 l 25
 497 -100 l 25
 497 0 l 25
 297 0 l 25xc428
 297 200 l 25xd440
 397 200 l 25
 397 100 l 25
 497 100 l 25
 497 200 l 25
 397 200 l 25
 397 300 l 25
 497 300 l 25xd428
 497 400 l 25xd410
 397 400 l 25x8820
 397 300 l 25x9020
 297 300 l 25
 297 200 l 25x9040
 197 200 l 25
 197 100 l 25
 97 100 l 25
 97 200 l 25
 197 200 l 25xa080
 197 300 l 25
 297 300 l 25x9040
 297 400 l 25x8840
 197 400 l 25
 197 600 l 25x8540
 97 600 l 25
 97 700 l 25x8580
EndSplineSet
EndChar

StartChar: onehalf
Encoding: 262 189 123
Width: 638
VWidth: 0
Flags: W
HStem: 0 100<309 415 518 622> 100 100<-3 101> 200 100<101 206 518 622> 300 100<206 309 415 518> 500 100<415 518> 600 100<-3 101>
VStem: -3 100<104 209> 97 100<209 312 418 625 729 834> 297 100<418 521> 397 100<104 209 521 625> 497 100<209 312>
LayerCount: 2
Back
Fore
SplineSet
-3 700 m 25x16
 97 700 l 1x15
 97 800 l 1
 197 800 l 5
 197 400 l 1
 297 400 l 25
 297 500 l 25
 397 500 l 25x1980
 397 600 l 25
 497 600 l 25
 497 500 l 25x1840
 397 500 l 25
 397 400 l 25
 497 400 l 25x18a0
 497 300 l 25
 597 300 l 25
 597 200 l 25x20a0
 497 200 l 25
 497 100 l 25xa040
 597 100 l 25
 597 0 l 25
 297 0 l 25
 297 100 l 25xa0a0
 397 100 l 25
 397 200 l 25
 497 200 l 25xa040
 497 300 l 25
 197 300 l 25
 197 200 l 25xa120
 97 200 l 25
 97 100 l 25
 -3 100 l 25
 -3 200 l 25
 97 200 l 25x42
 97 300 l 25
 197 300 l 25x21
 197 400 l 25
 97 400 l 25
 97 600 l 25x15
 -3 600 l 25
 -3 700 l 25x16
EndSplineSet
EndChar

StartChar: threequarters
Encoding: 263 190 124
Width: 638
VWidth: 0
Flags: W
HStem: -100 0G<415 518> 0 100<309 415 518 622> 100 100<-3 101> 200 100<101 206 309 415> 400 100<-3 206 309 415> 500 100<415 518> 700 100<-3 101>
VStem: -3 100<104 209> 97 100<209 312> 197 100<104 209 312 418 521 625> 397 100<-104 0 104 209 312 418 521 625>
LayerCount: 2
Back
Fore
SplineSet
-3 800 m 25x8720
 297 800 l 25
 297 500 l 25
 397 500 l 25x8b60
 397 600 l 25
 497 600 l 25
 497 500 l 25x8760
 397 500 l 25
 397 400 l 25
 497 400 l 25
 497 100 l 25
 597 100 l 25
 597 0 l 25
 497 0 l 25
 497 -100 l 25
 397 -100 l 25
 397 0 l 25
 197 0 l 25xcb60
 197 200 l 25xdaa0
 297 200 l 25
 297 100 l 25
 397 100 l 25
 397 200 l 25
 297 200 l 25
 297 300 l 25
 397 300 l 25
 397 400 l 25
 297 400 l 25
 297 300 l 25xda60
 197 300 l 25
 197 200 l 25xdaa0
 97 200 l 25
 97 100 l 25
 -3 100 l 25
 -3 200 l 25
 97 200 l 25xa320
 97 300 l 25
 197 300 l 25x92a0
 197 400 l 25
 -3 400 l 25
 -3 500 l 25
 197 500 l 25x9b60
 197 600 l 25x8760
 97 600 l 25
 97 700 l 25x86a0
 -3 700 l 25
 -3 800 l 25x8720
EndSplineSet
EndChar

StartChar: questiondown
Encoding: 191 191 125
Width: 638
VWidth: 0
Flags: W
HStem: -100 100<206 415> 0 100<415 518> 200 100<206 309> 300 100<309 415> 500 100<309 415>
VStem: 97 100<0 209> 197 100<209 312> 297 100<312 418 521 625> 397 100<0 104>
LayerCount: 2
Back
Fore
SplineSet
297 400 m 25x19
 397 400 l 25
 397 300 l 25x19
 297 300 l 25
 297 200 l 25x2a
 197 200 l 25
 197 0 l 25
 397 0 l 25xac80
 397 100 l 25
 497 100 l 25
 497 0 l 25x4c80
 397 0 l 25
 397 -100 l 25
 197 -100 l 25x8a80
 197 0 l 25x8c
 97 0 l 25
 97 200 l 25
 197 200 l 25x6c
 197 300 l 25
 297 300 l 25x6a
 297 400 l 25x19
297 600 m 25
 397 600 l 25
 397 500 l 25
 297 500 l 25
 297 600 l 25
EndSplineSet
EndChar

StartChar: Agrave
Encoding: 192 192 126
Width: 638
VWidth: 0
Flags: W
HStem: 0 0G<101 206 415 518> 200 100<206 415> 500 0G<101 206> 500 100<206 309> 700 100<206 309>
VStem: 97 100<0 209 312 521> 197 100<729 834> 297 100<625 729> 397 100<0 209 312 521>
LayerCount: 2
Back
Fore
SplineSet
197 800 m 25xda
 297 800 l 25
 297 700 l 25xda
 397 700 l 25xd9
 397 500 l 25
 497 500 l 25xd880
 497 0 l 25
 397 0 l 25
 397 200 l 25
 197 200 l 25
 197 0 l 25
 97 0 l 25
 97 500 l 25
 197 500 l 25xec80
 197 300 l 25
 397 300 l 25
 397 500 l 25xdc80
 197 500 l 25xec80
 197 600 l 25xda
 297 600 l 25xd9
 297 700 l 25
 197 700 l 25
 197 800 l 25xda
EndSplineSet
EndChar

StartChar: Aacute
Encoding: 193 193 127
Width: 638
VWidth: 0
Flags: W
HStem: 0 0G<101 206 415 518> 200 100<206 415> 500 0G<101 206> 500 100<206 309> 700 100<415 518>
VStem: 97 100<0 209 312 521> 297 100<625 729> 397 100<0 209 312 521 729 834>
LayerCount: 2
Back
Fore
SplineSet
397 800 m 25xdd
 497 800 l 25
 497 700 l 25xdd
 397 700 l 25xde
 397 500 l 25
 497 500 l 25xdd
 497 0 l 25
 397 0 l 25
 397 200 l 25
 197 200 l 25
 197 0 l 25
 97 0 l 25
 97 500 l 25
 197 500 l 25xed
 197 300 l 25
 397 300 l 25
 397 500 l 25xdd
 197 500 l 25xed
 197 600 l 25
 297 600 l 25
 297 700 l 25
 397 700 l 25xde
 397 800 l 25xdd
EndSplineSet
EndChar

StartChar: Acircumflex
Encoding: 194 194 128
Width: 638
VWidth: 0
Flags: W
HStem: 0 0G<101 206 415 518> 200 100<206 415> 500 0G<415 518> 500 100<206 415> 600 100<101 206 415 518> 700 100<206 415>
VStem: 97 100<0 209 312 521 625 729> 197 200<521 625 729 834> 397 100<0 209 312 521 625 729>
LayerCount: 2
Back
Fore
SplineSet
97 600 m 25xca80
 97 700 l 25
 197 700 l 25xca80
 197 800 l 25
 397 800 l 25xc5
 397 700 l 25xc9
 197 700 l 25xca
 197 600 l 25xd2
 397 600 l 25xd1
 397 700 l 25xc9
 497 700 l 25
 497 600 l 25xc880
 397 600 l 25xd1
 397 500 l 25xe1
 197 500 l 25
 197 300 l 25
 397 300 l 25xd280
 397 500 l 25xe1
 497 500 l 25xe080
 497 0 l 25
 397 0 l 25
 397 200 l 25
 197 200 l 25
 197 0 l 25
 97 0 l 25
 97 500 l 25
 197 500 l 25
 197 600 l 25xd280
 97 600 l 25xca80
EndSplineSet
EndChar

StartChar: Atilde
Encoding: 195 195 129
Width: 638
VWidth: 0
Flags: W
HStem: 0 0G<101 206 415 518> 200 100<206 415> 500 0G<415 518> 500 100<206 309> 600 100<101 206> 700 100<206 309 415 518>
VStem: 97 100<0 209 312 521 625 729> 197 100<729 834> 297 100<625 729> 397 100<0 209 312 521 729 834>
LayerCount: 2
Back
Fore
SplineSet
97 600 m 25xca40
 97 700 l 25
 197 700 l 25xca40
 197 600 l 25
 297 600 l 25xd280
 297 700 l 25xd5
 197 700 l 25xca
 197 800 l 25
 297 800 l 25
 297 700 l 25xc5
 397 700 l 25xc480
 397 800 l 25
 497 800 l 25
 497 700 l 25xc440
 397 700 l 25xc480
 397 500 l 25xe440
 197 500 l 25xd240
 197 300 l 25
 397 300 l 25
 397 500 l 25
 497 500 l 25xe240
 497 0 l 25
 397 0 l 25
 397 200 l 25
 197 200 l 25
 197 0 l 25
 97 0 l 25
 97 500 l 25
 197 500 l 25
 197 600 l 25xd240
 97 600 l 25xca40
EndSplineSet
EndChar

StartChar: Adieresis
Encoding: 196 196 130
Width: 638
VWidth: 0
Flags: W
HStem: 0 0G<101 206 415 518> 200 100<206 415> 500 0G<101 206> 500 100<206 415> 700 100<101 206 415 518>
VStem: 97 100<0 209 312 521 729 834> 397 100<0 209 312 521 729 834>
LayerCount: 2
Back
Fore
SplineSet
197 600 m 25xde
 397 600 l 25
 397 500 l 25
 497 500 l 25xde
 497 0 l 25
 397 0 l 25
 397 200 l 25
 197 200 l 25
 197 0 l 25
 97 0 l 25
 97 500 l 25
 197 500 l 25xee
 197 300 l 25
 397 300 l 25
 397 500 l 25xde
 197 500 l 25xee
 197 600 l 25xde
397 800 m 25
 497 800 l 25
 497 700 l 25
 397 700 l 25
 397 800 l 25
97 800 m 25
 197 800 l 25
 197 700 l 25
 97 700 l 25
 97 800 l 25
EndSplineSet
EndChar

StartChar: Aring
Encoding: 197 197 131
Width: 638
VWidth: 0
Flags: W
HStem: 0 0G<101 206 415 518> 200 100<206 415> 500 0G<415 518> 500 100<206 309> 700 100<206 309 415 518> 900 100<309 415>
VStem: 97 100<0 209 312 521> 197 100<729 834> 297 100<625 729 834 938> 397 100<0 209 312 521 729 834>
LayerCount: 2
Back
Fore
SplineSet
197 700 m 29xd9
 297 700 l 5xd9
 297 800 l 5
 397 800 l 5xc480
 397 700 l 5xc880
 297 700 l 29
 297 600 l 29xc9
 397 600 l 29
 397 700 l 29xc880
 497 700 l 29
 497 600 l 29xc840
 397 600 l 5xc880
 397 400 l 5xe840
 197 400 l 5xd240
 197 300 l 1
 397 300 l 1
 397 400 l 5
 497 400 l 5xe240
 497 0 l 1
 397 0 l 25
 397 200 l 25
 197 200 l 25
 197 0 l 25
 97 0 l 1
 97 400 l 5
 197 400 l 5xd240
 197 500 l 5xd1
 297 500 l 29xd080
 297 600 l 29
 197 600 l 29
 197 700 l 29xd9
EndSplineSet
EndChar

StartChar: AE
Encoding: 198 198 132
Width: 638
VWidth: 0
Flags: W
HStem: 0 100<415 622> 200 100<101 309> 300 100<415 518> 500 100<101 309 415 622>
VStem: -3 100<0 209 312 521> 297 100<104 209 418 521>
LayerCount: 2
Back
Fore
SplineSet
-3 500 m 25xdc
 97 500 l 25
 97 600 l 25
 297 600 l 25
 297 500 l 25
 97 500 l 25
 97 300 l 25
 297 300 l 25xdc
 297 500 l 25
 397 500 l 25
 397 600 l 25
 597 600 l 25
 597 500 l 25
 397 500 l 25
 397 400 l 25
 497 400 l 25
 497 300 l 25
 397 300 l 25xbc
 397 100 l 25
 597 100 l 25
 597 0 l 25
 297 0 l 25
 297 200 l 25
 97 200 l 25
 97 0 l 25
 -3 0 l 25
 -3 500 l 25xdc
EndSplineSet
EndChar

StartChar: Ccedilla
Encoding: 199 199 133
Width: 638
VWidth: 0
Flags: W
HStem: -200 100<206 309> 0 100<206 309 415 518> 500 100<206 518>
VStem: 97 100<104 521> 197 300<0 104 521 625> 197 100<-209 -104> 297 100<-104 0>
LayerCount: 2
Back
Fore
SplineSet
197 600 m 25xe8
 497 600 l 25
 497 500 l 25xe8
 197 500 l 25
 197 100 l 25xf0
 497 100 l 25
 497 0 l 25xe8
 397 0 l 25
 397 -100 l 25xe2
 297 -100 l 25
 297 -200 l 25
 197 -200 l 25
 197 -100 l 25
 297 -100 l 25xe4
 297 0 l 25xe2
 197 0 l 25xe8
 197 100 l 25
 97 100 l 25
 97 500 l 25
 197 500 l 25xf0
 197 600 l 25xe8
EndSplineSet
EndChar

StartChar: Egrave
Encoding: 200 200 134
Width: 638
VWidth: 0
Flags: W
HStem: 0 100<206 518> 300 100<206 415> 500 100<206 309 415 518> 700 100<206 309>
VStem: 97 100<104 312 418 521> 197 100<729 834> 297 100<625 729>
LayerCount: 2
Back
Fore
SplineSet
197 800 m 25xf4
 297 800 l 25
 297 700 l 25xf4
 397 700 l 25
 397 600 l 25
 497 600 l 25
 497 500 l 25
 197 500 l 25
 197 400 l 25
 397 400 l 25
 397 300 l 25
 197 300 l 25
 197 100 l 25
 497 100 l 25
 497 0 l 25
 97 0 l 25
 97 600 l 25
 297 600 l 25xfa
 297 700 l 25
 197 700 l 25
 197 800 l 25xf4
EndSplineSet
EndChar

StartChar: Eacute
Encoding: 201 201 135
Width: 638
VWidth: 0
Flags: W
HStem: 0 100<206 518> 300 100<206 415> 500 100<309 518> 700 100<309 415>
VStem: 97 100<104 312 418 521> 197 100<625 729> 297 100<729 834>
LayerCount: 2
Back
Fore
SplineSet
297 800 m 25xf2
 397 800 l 25
 397 700 l 25xf2
 297 700 l 25
 297 600 l 25xf4
 497 600 l 25
 497 500 l 25
 197 500 l 25
 197 400 l 25
 397 400 l 25
 397 300 l 25
 197 300 l 25
 197 100 l 25
 497 100 l 25
 497 0 l 25
 97 0 l 25
 97 600 l 25xfa
 197 600 l 25
 197 700 l 25
 297 700 l 25xf4
 297 800 l 25xf2
EndSplineSet
EndChar

StartChar: Ecircumflex
Encoding: 202 202 136
Width: 638
VWidth: 0
Flags: W
HStem: 0 100<206 518> 300 100<206 415> 500 100<206 415> 600 100<101 206> 700 100<206 415>
VStem: 97 100<104 312 418 521 625 729> 397 100<625 729>
LayerCount: 2
Back
Fore
SplineSet
97 700 m 25xd6
 197 700 l 25xd6
 197 800 l 25
 397 800 l 25
 397 700 l 25xce
 197 700 l 25xd6
 197 600 l 25
 397 600 l 25
 397 700 l 25
 497 700 l 25
 497 500 l 25
 197 500 l 25
 197 400 l 25
 397 400 l 25
 397 300 l 25
 197 300 l 25
 197 100 l 25
 497 100 l 25
 497 0 l 25
 97 0 l 25
 97 500 l 25
 197 500 l 25
 197 600 l 25xee
 97 600 l 25
 97 700 l 25xd6
EndSplineSet
EndChar

StartChar: Edieresis
Encoding: 203 203 137
Width: 638
VWidth: 0
Flags: W
HStem: 0 100<206 518> 300 100<206 415> 500 100<206 518> 700 100<101 206 415 518>
VStem: 97 100<104 312 418 521 729 834> 397 100<729 834>
LayerCount: 2
Back
Fore
SplineSet
97 600 m 25
 497 600 l 25
 497 500 l 25
 197 500 l 25
 197 400 l 25
 397 400 l 25
 397 300 l 25
 197 300 l 25
 197 100 l 25
 497 100 l 25
 497 0 l 25
 97 0 l 25
 97 600 l 25
397 800 m 25
 497 800 l 25
 497 700 l 25
 397 700 l 25
 397 800 l 25
97 800 m 25
 197 800 l 25
 197 700 l 25
 97 700 l 25
 97 800 l 25
EndSplineSet
EndChar

StartChar: Igrave
Encoding: 204 204 138
Width: 638
VWidth: 0
Flags: W
HStem: 0 100<206 309 415 518> 500 100<206 309 415 518> 700 100<206 309>
VStem: 197 300<0 104 521 625> 197 100<729 834> 297 100<104 521 625 729>
LayerCount: 2
Back
Fore
SplineSet
197 800 m 25xe8
 297 800 l 25
 297 700 l 25xe8
 397 700 l 25
 397 600 l 25xe4
 497 600 l 25
 497 500 l 25xf0
 397 500 l 25
 397 100 l 25xe4
 497 100 l 25
 497 0 l 25
 197 0 l 25
 197 100 l 25xf0
 297 100 l 25
 297 500 l 25xe4
 197 500 l 25
 197 600 l 25xf0
 297 600 l 25xe4
 297 700 l 25
 197 700 l 25
 197 800 l 25xe8
EndSplineSet
EndChar

StartChar: Iacute
Encoding: 205 205 139
Width: 638
VWidth: 0
Flags: W
HStem: 0 100<206 309 415 518> 500 100<206 309 415 518> 700 100<415 518>
VStem: 197 300<0 104 521 625> 297 100<104 521 625 729> 397 100<729 834>
LayerCount: 2
Back
Fore
SplineSet
397 800 m 25xe4
 497 800 l 25
 497 700 l 25xe4
 397 700 l 25
 397 600 l 25xe8
 497 600 l 25
 497 500 l 25xf0
 397 500 l 25
 397 100 l 25xe8
 497 100 l 25
 497 0 l 25
 197 0 l 25
 197 100 l 25xf0
 297 100 l 25
 297 500 l 25xe8
 197 500 l 25
 197 600 l 25xf0
 297 600 l 25
 297 700 l 25
 397 700 l 25xe8
 397 800 l 25xe4
EndSplineSet
EndChar

StartChar: Icircumflex
Encoding: 206 206 140
Width: 638
VWidth: 0
Flags: W
HStem: 0 100<206 309 415 518> 400 100<206 309 415 518> 600 100<206 309 415 518> 700 100<309 415>
VStem: 197 100<625 729> 297 100<104 418 729 834> 397 100<625 729>
LayerCount: 2
Back
Fore
SplineSet
197 500 m 25xc8
 497 500 l 25
 497 400 l 25xca
 397 400 l 25
 397 100 l 25xc4
 497 100 l 25
 497 0 l 25
 197 0 l 25
 197 100 l 25xca
 297 100 l 25
 297 400 l 25xc4
 197 400 l 25
 197 500 l 25xc8
197 700 m 25xe8
 297 700 l 25xe8
 297 800 l 25
 397 800 l 25xd4
 397 700 l 25xe4
 497 700 l 25
 497 600 l 25
 397 600 l 25xe2
 397 700 l 25xe4
 297 700 l 25
 297 600 l 25
 197 600 l 25
 197 700 l 25xe8
EndSplineSet
EndChar

StartChar: Idieresis
Encoding: 207 207 141
Width: 638
VWidth: 0
Flags: W
HStem: 0 100<206 309 415 518> 500 100<206 309 415 518> 700 100<206 309 415 518>
VStem: 197 100<729 834> 397 100<729 834>
LayerCount: 2
Back
Fore
SplineSet
197 600 m 25
 497 600 l 25
 497 500 l 25
 397 500 l 25
 397 100 l 25
 497 100 l 25
 497 0 l 25
 197 0 l 25
 197 100 l 25
 297 100 l 25
 297 500 l 25
 197 500 l 25
 197 600 l 25
397 800 m 25
 497 800 l 25
 497 700 l 25
 397 700 l 25
 397 800 l 25
197 800 m 25
 297 800 l 25
 297 700 l 25
 197 700 l 25
 197 800 l 25
EndSplineSet
EndChar

StartChar: Eth
Encoding: 208 208 142
Width: 638
VWidth: 0
Flags: W
HStem: 0 100<309 518> 300 100<101 206 309 415> 500 0G<518 622> 500 100<309 518>
VStem: 197 300<0 104 521 625> 197 100<104 312 418 521> 497 100<104 521>
LayerCount: 2
Back
Fore
SplineSet
97 400 m 25xe4
 197 400 l 25xe4
 197 600 l 25
 497 600 l 25xd8
 497 500 l 25xe8
 297 500 l 25
 297 400 l 25
 397 400 l 25
 397 300 l 25
 297 300 l 25
 297 100 l 25xd4
 497 100 l 25
 497 500 l 25xe8
 597 500 l 25
 597 100 l 25xe2
 497 100 l 25
 497 0 l 25
 197 0 l 25xe8
 197 300 l 25
 97 300 l 25
 97 400 l 25xe4
EndSplineSet
EndChar

StartChar: Ntilde
Encoding: 209 209 143
Width: 638
VWidth: 0
Flags: W
HStem: 0 0G<101 206 415 518> 200 100<309 415> 300 100<206 309> 600 0G<415 518> 600 100<309 415> 700 100<206 309 415 518>
VStem: 97 100<0 312 418 729> 197 100<729 834> 297 100<625 729> 397 100<0 209 312 625 729 834>
LayerCount: 2
Back
Fore
SplineSet
97 0 m 25xa280
 97 700 l 25
 197 700 l 25xa680
 197 800 l 25
 297 800 l 25xa5
 297 700 l 25x89
 397 700 l 25x8880
 397 800 l 25
 497 800 l 25
 497 700 l 25x8440
 397 700 l 25x8880
 397 600 l 25x9080
 297 600 l 25x8880
 297 700 l 25x89
 197 700 l 25
 197 400 l 25
 297 400 l 25xa680
 297 300 l 25xc280
 397 300 l 25xc040
 397 600 l 25xd080
 497 600 l 25
 497 0 l 25
 397 0 l 25
 397 200 l 25xd040
 297 200 l 25
 297 300 l 25xd080
 197 300 l 25
 197 0 l 25
 97 0 l 25xa280
EndSplineSet
EndChar

StartChar: Ograve
Encoding: 210 210 144
Width: 638
VWidth: 0
Flags: W
HStem: 0 100<206 415> 500 0G<415 518> 500 100<206 309> 700 100<206 309>
VStem: 97 100<104 521> 197 100<729 834> 297 100<625 729> 397 100<104 521>
LayerCount: 2
Back
Fore
SplineSet
197 800 m 25xb4
 297 800 l 25
 297 700 l 25xb4
 397 700 l 25xb2
 397 500 l 25xd1
 197 500 l 25
 197 100 l 25xb9
 397 100 l 25
 397 500 l 25
 497 500 l 25
 497 100 l 25
 397 100 l 25
 397 0 l 25
 197 0 l 25xd5
 197 100 l 25
 97 100 l 25
 97 500 l 25
 197 500 l 25xb8
 197 600 l 25xb4
 297 600 l 25xb2
 297 700 l 25
 197 700 l 25
 197 800 l 25xb4
EndSplineSet
EndChar

StartChar: Oacute
Encoding: 211 211 145
Width: 638
VWidth: 0
Flags: W
HStem: 0 100<206 415> 500 0G<415 518> 500 100<309 415> 700 100<309 415>
VStem: 97 100<104 521> 197 100<625 729> 297 100<729 834> 397 100<104 521>
LayerCount: 2
Back
Fore
SplineSet
297 800 m 25xb2
 397 800 l 25
 397 700 l 25xb2
 297 700 l 25
 297 600 l 25
 397 600 l 25xb5
 397 500 l 25xd5
 197 500 l 25
 197 100 l 25xb9
 397 100 l 25
 397 500 l 25
 497 500 l 25
 497 100 l 25
 397 100 l 25
 397 0 l 25
 197 0 l 25xd5
 197 100 l 25
 97 100 l 25
 97 500 l 25
 197 500 l 25xb8
 197 700 l 25
 297 700 l 25xb4
 297 800 l 25xb2
EndSplineSet
EndChar

StartChar: Ocircumflex
Encoding: 212 212 146
Width: 638
VWidth: 0
Flags: W
HStem: 0 100<206 415> 500 0G<415 518> 500 100<206 415> 600 100<101 206 415 518> 700 100<206 415>
VStem: 97 100<104 521 625 729> 197 200<0 104 521 625 729 834> 397 100<104 521 625 729>
LayerCount: 2
Back
Fore
SplineSet
197 800 m 25x8a
 397 800 l 25x8a
 397 700 l 25x92
 197 700 l 25x94
 197 600 l 25xa4
 397 600 l 25xa2
 397 700 l 25x92
 497 700 l 25
 497 600 l 25x91
 397 600 l 25xa2
 397 500 l 25xc2
 197 500 l 25
 197 100 l 25xa4
 397 100 l 25
 397 500 l 25xc2
 497 500 l 25
 497 100 l 25xc1
 397 100 l 25
 397 0 l 25
 197 0 l 25xc2
 197 100 l 25
 97 100 l 25
 97 500 l 25
 197 500 l 25
 197 600 l 25xa4
 97 600 l 25
 97 700 l 25
 197 700 l 25x94
 197 800 l 25x8a
EndSplineSet
EndChar

StartChar: Otilde
Encoding: 213 213 147
Width: 638
VWidth: 0
Flags: W
HStem: 0 100<206 415> 500 0G<415 518> 500 100<206 309> 600 100<101 206> 700 100<206 309 415 518>
VStem: 97 100<104 521 625 729> 197 100<729 834> 297 100<625 729> 397 100<104 521 729 834>
LayerCount: 2
Back
Fore
SplineSet
97 700 m 25x94
 197 700 l 25x94
 197 600 l 25
 297 600 l 25xa5
 297 700 l 25xaa
 197 700 l 25x94
 197 800 l 25
 297 800 l 25
 297 700 l 25x8a
 397 700 l 25x89
 397 800 l 25
 497 800 l 25
 497 700 l 25x8880
 397 700 l 25x89
 397 500 l 25xc880
 197 500 l 25
 197 100 l 25xa480
 397 100 l 25
 397 500 l 25
 497 500 l 25
 497 100 l 25
 397 100 l 25
 397 0 l 25
 197 0 l 25xc280
 197 100 l 25
 97 100 l 25
 97 500 l 25
 197 500 l 25
 197 600 l 25xa4
 97 600 l 25
 97 700 l 25x94
EndSplineSet
EndChar

StartChar: Odieresis
Encoding: 214 214 148
Width: 638
VWidth: 0
Flags: W
HStem: 0 100<206 415> 500 0G<415 518> 500 100<206 415> 700 100<101 206 415 518>
VStem: 97 100<104 521 729 834> 197 200<0 104 521 625> 397 100<104 521 729 834>
LayerCount: 2
Back
Fore
SplineSet
197 600 m 25xb4
 397 600 l 25xb4
 397 500 l 25xd4
 197 500 l 25
 197 100 l 25xb8
 397 100 l 25
 397 500 l 25xd4
 497 500 l 25
 497 100 l 25xd2
 397 100 l 25
 397 0 l 25
 197 0 l 25xd4
 197 100 l 25
 97 100 l 25
 97 500 l 25
 197 500 l 25xb8
 197 600 l 25xb4
397 800 m 25x92
 497 800 l 25
 497 700 l 25
 397 700 l 25
 397 800 l 25x92
97 800 m 25x98
 197 800 l 25
 197 700 l 25
 97 700 l 25
 97 800 l 25x98
EndSplineSet
EndChar

StartChar: multiply
Encoding: 215 215 149
Width: 638
VWidth: 0
Flags: W
HStem: 200 100<206 309 415 518> 400 100<206 309 415 518>
VStem: 197 100<209 312 418 521> 397 100<209 312 418 521>
LayerCount: 2
Back
Fore
SplineSet
197 500 m 25
 297 500 l 25
 297 400 l 25
 397 400 l 25
 397 500 l 25
 497 500 l 25
 497 400 l 25
 397 400 l 25
 397 300 l 25
 497 300 l 25
 497 200 l 25
 397 200 l 25
 397 300 l 25
 297 300 l 25
 297 200 l 25
 197 200 l 25
 197 300 l 25
 297 300 l 25
 297 400 l 25
 197 400 l 25
 197 500 l 25
EndSplineSet
EndChar

StartChar: Oslash
Encoding: 216 216 150
Width: 638
VWidth: 0
Flags: W
HStem: 0 100<-3 101 206 415> 300 100<309 415> 500 100<206 415 518 622>
VStem: -3 100<0 104> 97 100<104 209 312 521> 197 200<0 104 521 625> 397 100<104 312 418 521> 497 100<521 625>
LayerCount: 2
Back
Fore
SplineSet
197 600 m 25xe4
 397 600 l 25
 397 500 l 25xe4
 197 500 l 25
 197 300 l 25
 297 300 l 25
 297 200 l 25
 197 200 l 25
 197 100 l 25xe8
 397 100 l 25xe4
 397 300 l 25
 297 300 l 25
 297 400 l 25
 397 400 l 25xe2
 397 500 l 25xe4
 497 500 l 25xe2
 497 600 l 25
 597 600 l 25
 597 500 l 25xe1
 497 500 l 25
 497 100 l 25xe2
 397 100 l 25
 397 0 l 25
 197 0 l 25xe4
 197 100 l 25xe8
 97 100 l 25
 97 0 l 25
 -3 0 l 25
 -3 100 l 25
 97 100 l 25xf0
 97 500 l 25
 197 500 l 25xe8
 197 600 l 25xe4
EndSplineSet
EndChar

StartChar: Ugrave
Encoding: 217 217 151
Width: 638
VWidth: 0
Flags: W
HStem: 0 100<206 415> 600 0G<101 206> 600 100<309 415> 700 100<206 309>
VStem: 97 100<104 625> 197 100<729 834> 297 100<625 729> 397 100<104 625>
LayerCount: 2
Back
Fore
SplineSet
197 800 m 25x94
 297 800 l 25x94
 297 700 l 25xa4
 397 700 l 25
 397 600 l 25xa2
 497 600 l 25
 497 0 l 25
 197 0 l 25xa5
 197 100 l 25
 97 100 l 25
 97 600 l 25
 197 600 l 25
 197 100 l 25
 397 100 l 25xc9
 397 600 l 25
 297 600 l 25xa2
 297 700 l 25xa4
 197 700 l 25
 197 800 l 25x94
EndSplineSet
EndChar

StartChar: Uacute
Encoding: 218 218 152
Width: 638
VWidth: 0
Flags: W
HStem: 0 100<206 415> 600 0G<415 518> 600 100<206 309> 700 100<309 415>
VStem: 97 100<104 625> 197 100<625 729> 297 100<729 834> 397 100<104 625>
LayerCount: 2
Back
Fore
SplineSet
297 800 m 25x92
 397 800 l 25
 397 700 l 25x92
 297 700 l 25
 297 600 l 25xa4
 197 600 l 25
 197 100 l 25xa8
 397 100 l 25
 397 600 l 25
 497 600 l 25
 497 0 l 25
 197 0 l 25xc5
 197 100 l 25
 97 100 l 25
 97 600 l 25
 197 600 l 25xa8
 197 700 l 25
 297 700 l 25xa4
 297 800 l 25x92
EndSplineSet
EndChar

StartChar: Ucircumflex
Encoding: 219 219 153
Width: 638
VWidth: 0
Flags: W
HStem: 0 100<206 415> 500 0G<101 206 415 518> 600 100<101 206 415 518> 700 100<206 415>
VStem: 97 100<104 521 625 729> 397 100<104 521 625 729>
LayerCount: 2
Back
Fore
SplineSet
97 500 m 25xcc
 197 500 l 25
 197 100 l 25
 397 100 l 25
 397 500 l 25
 497 500 l 25
 497 0 l 25
 197 0 l 25
 197 100 l 25
 97 100 l 25
 97 500 l 25xcc
97 700 m 25xec
 197 700 l 25xec
 197 800 l 25
 397 800 l 25xdc
 397 700 l 25
 497 700 l 25
 497 600 l 25
 397 600 l 25
 397 700 l 25
 197 700 l 25
 197 600 l 25
 97 600 l 25
 97 700 l 25xec
EndSplineSet
EndChar

StartChar: Udieresis
Encoding: 220 220 154
Width: 638
VWidth: 0
Flags: W
HStem: 0 100<206 415> 600 0G<101 206 415 518> 700 100<101 206 415 518>
VStem: 97 100<104 625 729 834> 397 100<104 625 729 834>
LayerCount: 2
Back
Fore
SplineSet
97 600 m 25
 197 600 l 25
 197 100 l 25
 397 100 l 25
 397 600 l 25
 497 600 l 25
 497 0 l 25
 197 0 l 25
 197 100 l 25
 97 100 l 25
 97 600 l 25
397 800 m 25
 497 800 l 25
 497 700 l 25
 397 700 l 25
 397 800 l 25
97 800 m 25
 197 800 l 25
 197 700 l 25
 97 700 l 25
 97 800 l 25
EndSplineSet
EndChar

StartChar: Yacute
Encoding: 221 221 155
Width: 638
VWidth: 0
Flags: W
HStem: 0 0G<309 415> 300 100<206 309 415 518> 400 200<101 206 518 622> 600 100<309 415> 700 100<415 518>
VStem: 97 100<418 625> 197 100<312 418> 297 100<0 312 625 729> 397 100<312 418 729 834> 497 100<418 625>
LayerCount: 2
Back
Fore
SplineSet
97 600 m 25xa4
 197 600 l 25xa4
 197 400 l 25xc4
 297 400 l 25
 297 300 l 25xc2
 397 300 l 25xc1
 397 400 l 25
 497 400 l 25xc080
 497 600 l 25
 597 600 l 25
 597 400 l 25xa040
 497 400 l 25
 497 300 l 25xc080
 397 300 l 25
 397 0 l 25
 297 0 l 25xc1
 297 300 l 25
 197 300 l 25xc2
 197 400 l 25xc4
 97 400 l 25
 97 600 l 25xa4
397 800 m 25x8880
 497 800 l 25
 497 700 l 25x8880
 397 700 l 25
 397 600 l 25
 297 600 l 25
 297 700 l 25
 397 700 l 25x91
 397 800 l 25x8880
EndSplineSet
EndChar

StartChar: Thorn
Encoding: 222 222 156
Width: 638
VWidth: 0
Flags: W
HStem: -100 0G<101 206> 100 100<206 415> 400 100<206 415> 700 0G<101 206>
VStem: 97 300<104 209 418 521> 97 100<-104 104 209 418 521 729> 397 100<209 418>
LayerCount: 2
Back
Fore
SplineSet
97 700 m 25xf4
 197 700 l 25
 197 500 l 25xf4
 397 500 l 25
 397 400 l 25xf8
 197 400 l 25
 197 200 l 25xf4
 397 200 l 25
 397 400 l 25xf8
 497 400 l 25
 497 200 l 25xf2
 397 200 l 25
 397 100 l 25xf8
 197 100 l 25
 197 -100 l 25
 97 -100 l 25
 97 700 l 25xf4
EndSplineSet
EndChar

StartChar: germandbls
Encoding: 223 223 157
Width: 638
VWidth: 0
Flags: W
HStem: -100 0G<101 206> 0 100<309 415> 600 100<206 309>
VStem: 97 100<-104 625> 297 100<0 104 418 625> 397 100<104 418>
LayerCount: 2
Back
Fore
SplineSet
97 600 m 25xf8
 197 600 l 25
 197 700 l 25
 397 700 l 25xf4
 397 400 l 25xf8
 497 400 l 25
 497 100 l 25xf4
 397 100 l 25
 397 0 l 25
 297 0 l 25
 297 100 l 25
 397 100 l 25
 397 400 l 25
 297 400 l 25
 297 600 l 25
 197 600 l 25
 197 -100 l 25
 97 -100 l 25
 97 600 l 25xf8
EndSplineSet
EndChar

StartChar: agrave
Encoding: 224 224 158
Width: 638
VWidth: 0
Flags: W
HStem: 0 100<206 415 518 622> 400 100<206 415> 600 100<309 415> 700 100<206 309>
VStem: 97 100<104 418> 197 100<729 834> 297 100<625 729> 397 100<104 418> 497 100<0 104>
LayerCount: 2
Back
Fore
SplineSet
97 400 m 25xc8
 197 400 l 25xc8
 197 500 l 25
 497 500 l 25xc480
 497 100 l 25xc1
 597 100 l 25
 597 0 l 25
 497 0 l 25xc080
 497 100 l 25
 397 100 l 25
 397 400 l 25
 197 400 l 25
 197 100 l 25xc9
 397 100 l 25
 397 0 l 25
 197 0 l 25xc5
 197 100 l 25
 97 100 l 25
 97 400 l 25xc8
197 800 m 25xd4
 297 800 l 25xd4
 297 700 l 25xe4
 397 700 l 25
 397 600 l 25
 297 600 l 25xe2
 297 700 l 25xe4
 197 700 l 25
 197 800 l 25xd4
EndSplineSet
EndChar

StartChar: aacute
Encoding: 225 225 159
Width: 638
VWidth: 0
Flags: W
HStem: 0 100<206 415 518 622> 400 100<206 415> 600 100<309 415> 700 100<415 518>
VStem: 97 100<104 418> 297 100<625 729> 397 100<104 418 729 834> 497 100<0 104>
LayerCount: 2
Back
Fore
SplineSet
197 500 m 25xca
 497 500 l 25xc9
 497 100 l 25xca
 597 100 l 25
 597 0 l 25
 497 0 l 25xc9
 497 100 l 25
 397 100 l 25
 397 400 l 25
 197 400 l 25
 197 100 l 25
 397 100 l 25
 397 0 l 25
 197 0 l 25
 197 100 l 25
 97 100 l 25
 97 400 l 25
 197 400 l 25
 197 500 l 25xca
297 700 m 25xec
 397 700 l 25xec
 397 800 l 25
 497 800 l 25
 497 700 l 25xda
 397 700 l 25
 397 600 l 25
 297 600 l 25
 297 700 l 25xec
EndSplineSet
EndChar

StartChar: acircumflex
Encoding: 226 226 160
Width: 638
VWidth: 0
Flags: W
HStem: 0 100<206 415 518 622> 400 100<206 415> 600 100<206 309 415 518> 700 100<309 415>
VStem: 97 100<104 418> 197 100<625 729> 297 100<729 834> 397 100<104 418 625 729> 497 100<0 104>
LayerCount: 2
Back
Fore
SplineSet
97 400 m 25xc8
 197 400 l 25xc8
 197 500 l 25
 497 500 l 25xc480
 497 100 l 25xc1
 597 100 l 25
 597 0 l 25
 497 0 l 25xc080
 497 100 l 25
 397 100 l 25
 397 400 l 25
 197 400 l 25
 197 100 l 25xc9
 397 100 l 25
 397 0 l 25
 197 0 l 25xc5
 197 100 l 25
 97 100 l 25
 97 400 l 25xc8
197 700 m 25xe4
 297 700 l 25xe4
 297 800 l 25
 397 800 l 25xd2
 397 700 l 25xe2
 497 700 l 25
 497 600 l 25
 397 600 l 25xe1
 397 700 l 25xe2
 297 700 l 25
 297 600 l 25
 197 600 l 25
 197 700 l 25xe4
EndSplineSet
EndChar

StartChar: atilde
Encoding: 227 227 161
Width: 638
VWidth: 0
Flags: W
HStem: 0 100<206 415 518 622> 400 100<206 415> 600 100<101 206 309 415> 700 100<206 309 415 518>
VStem: 97 100<104 418 625 729> 197 100<729 834> 297 100<625 729> 397 100<104 418 729 834> 497 100<0 104>
LayerCount: 2
Back
Fore
SplineSet
97 400 m 25xc8
 197 400 l 25xc8
 197 500 l 25
 497 500 l 25xc480
 497 100 l 25xc1
 597 100 l 25
 597 0 l 25
 497 0 l 25xc080
 497 100 l 25
 397 100 l 25
 397 400 l 25
 197 400 l 25
 197 100 l 25xc9
 397 100 l 25
 397 0 l 25
 197 0 l 25xc5
 197 100 l 25
 97 100 l 25
 97 400 l 25xc8
97 700 m 25xe8
 197 700 l 25xe8
 197 800 l 25
 297 800 l 25xd4
 297 700 l 25xe4
 397 700 l 25xe2
 397 800 l 25
 497 800 l 25
 497 700 l 25xd1
 397 700 l 25
 397 600 l 25
 297 600 l 25xe2
 297 700 l 25xe4
 197 700 l 25
 197 600 l 25
 97 600 l 25
 97 700 l 25xe8
EndSplineSet
EndChar

StartChar: adieresis
Encoding: 228 228 162
Width: 638
VWidth: 0
Flags: W
HStem: 0 100<206 415 518 622> 400 100<206 415> 600 100<206 309 415 518>
VStem: 97 100<104 418> 197 100<625 729> 397 100<104 418 625 729> 497 100<0 104>
LayerCount: 2
Back
Fore
SplineSet
97 400 m 25xf0
 197 400 l 25xf0
 197 500 l 25
 497 500 l 25xea
 497 100 l 25xe4
 597 100 l 25
 597 0 l 25
 497 0 l 25xe2
 497 100 l 25
 397 100 l 25
 397 400 l 25
 197 400 l 25
 197 100 l 25xf4
 397 100 l 25
 397 0 l 25
 197 0 l 25xec
 197 100 l 25
 97 100 l 25
 97 400 l 25xf0
397 700 m 25xe4
 497 700 l 25
 497 600 l 25
 397 600 l 25
 397 700 l 25xe4
197 700 m 25xe8
 297 700 l 25
 297 600 l 25
 197 600 l 25
 197 700 l 25xe8
EndSplineSet
EndChar

StartChar: aring
Encoding: 229 229 163
Width: 638
VWidth: 0
Flags: W
HStem: 0 100<206 415 518 622> 400 100<206 309> 600 100<206 309 415 518> 700 100<309 415>
VStem: 97 100<104 418> 197 100<625 729> 297 100<521 625 729 834> 397 100<104 418 625 729> 497 100<0 104>
LayerCount: 2
Back
Fore
SplineSet
197 700 m 25xe4
 297 700 l 25xe4
 297 800 l 25
 397 800 l 25xd2
 397 700 l 25xe2
 297 700 l 25
 297 600 l 25xe4
 397 600 l 25
 397 700 l 25xe2
 497 700 l 25
 497 600 l 25xe1
 397 600 l 25
 397 500 l 25
 497 500 l 25xe280
 497 100 l 25xe1
 597 100 l 25
 597 0 l 25
 497 0 l 25xe080
 497 100 l 25
 397 100 l 25
 397 400 l 25
 197 400 l 25
 197 100 l 25xe9
 397 100 l 25
 397 0 l 25
 197 0 l 25xe5
 197 100 l 25
 97 100 l 25
 97 400 l 25
 197 400 l 25xe8
 197 500 l 25xe4
 297 500 l 25xe2
 297 600 l 25
 197 600 l 25
 197 700 l 25xe4
EndSplineSet
EndChar

StartChar: ae
Encoding: 230 230 164
Width: 638
VWidth: 0
Flags: W
HStem: 0 100<101 309 415 622> 100 100<-3 101> 200 100<101 309 415 518> 400 100<101 309 415 518>
VStem: -3 100<104 209> 297 100<104 209 312 418> 497 100<312 418>
LayerCount: 2
Back
Fore
SplineSet
97 500 m 25x3e
 497 500 l 25
 497 400 l 25
 397 400 l 25
 397 300 l 25
 497 300 l 25
 497 400 l 25
 597 400 l 25
 597 200 l 25
 397 200 l 25
 397 100 l 25
 597 100 l 25
 597 0 l 25
 397 0 l 25
 397 100 l 25
 297 100 l 25
 297 0 l 25
 97 0 l 25
 97 100 l 25
 297 100 l 25
 297 200 l 25xbe
 97 200 l 25x5e
 97 100 l 25x9e
 -3 100 l 25
 -3 200 l 25
 97 200 l 25x5e
 97 300 l 25
 297 300 l 25
 297 400 l 25
 97 400 l 25
 97 500 l 25x3e
EndSplineSet
EndChar

StartChar: ccedilla
Encoding: 231 231 165
Width: 638
VWidth: 0
Flags: W
HStem: -200 100<206 309> 0 100<206 309 415 518> 400 100<206 518>
VStem: 97 100<104 418> 197 300<0 104 418 521> 197 100<-209 -104> 297 100<-104 0>
LayerCount: 2
Back
Fore
SplineSet
197 500 m 25xe8
 497 500 l 25
 497 400 l 25xe8
 197 400 l 25
 197 100 l 25xf0
 497 100 l 25
 497 0 l 25xe8
 397 0 l 25
 397 -100 l 25xe2
 297 -100 l 25
 297 -200 l 25
 197 -200 l 25
 197 -100 l 25
 297 -100 l 25xe4
 297 0 l 25xe2
 197 0 l 25xe8
 197 100 l 25
 97 100 l 25
 97 400 l 25
 197 400 l 25xf0
 197 500 l 25xe8
EndSplineSet
EndChar

StartChar: egrave
Encoding: 232 232 166
Width: 638
VWidth: 0
Flags: W
HStem: 0 100<206 518> 200 100<206 415> 400 100<206 415> 600 100<309 415> 700 100<206 309>
VStem: 97 100<104 209 312 418> 197 100<729 834> 297 100<625 729> 397 100<312 418>
LayerCount: 2
Back
Fore
SplineSet
197 500 m 25xe2
 397 500 l 25
 397 400 l 25
 197 400 l 25
 197 300 l 25
 397 300 l 25
 397 400 l 25
 497 400 l 25
 497 200 l 25
 197 200 l 25
 197 100 l 25xe480
 497 100 l 25
 497 0 l 25
 197 0 l 25xe280
 197 100 l 25
 97 100 l 25
 97 400 l 25
 197 400 l 25xe4
 197 500 l 25xe2
197 800 m 25xea
 297 800 l 25xea
 297 700 l 25xf2
 397 700 l 25
 397 600 l 25
 297 600 l 25xf1
 297 700 l 25xf2
 197 700 l 25
 197 800 l 25xea
EndSplineSet
EndChar

StartChar: eacute
Encoding: 233 233 167
Width: 638
VWidth: 0
Flags: W
HStem: 0 100<206 518> 200 100<206 415> 400 100<206 415> 600 100<206 309> 700 100<309 415>
VStem: 97 100<104 209 312 418> 197 100<625 729> 297 100<729 834> 397 100<312 418>
LayerCount: 2
Back
Fore
SplineSet
197 500 m 25xe2
 397 500 l 25
 397 400 l 25
 197 400 l 25
 197 300 l 25
 397 300 l 25
 397 400 l 25
 497 400 l 25
 497 200 l 25
 197 200 l 25
 197 100 l 25xe480
 497 100 l 25
 497 0 l 25
 197 0 l 25xe280
 197 100 l 25
 97 100 l 25
 97 400 l 25
 197 400 l 25xe4
 197 500 l 25xe2
197 700 m 25xf2
 297 700 l 25xf2
 297 800 l 25
 397 800 l 25
 397 700 l 25xe9
 297 700 l 25
 297 600 l 25
 197 600 l 25
 197 700 l 25xf2
EndSplineSet
EndChar

StartChar: ecircumflex
Encoding: 234 234 168
Width: 638
VWidth: 0
Flags: W
HStem: 0 100<206 518> 200 100<206 415> 400 100<206 415> 600 100<101 206 415 518> 700 100<206 415>
VStem: 97 100<104 209 312 418 625 729> 197 200<418 521 729 834> 397 100<312 418 625 729>
LayerCount: 2
Back
Fore
SplineSet
197 500 m 25xe2
 397 500 l 25
 397 400 l 25xe2
 197 400 l 25
 197 300 l 25
 397 300 l 25xe5
 397 400 l 25xe2
 497 400 l 25
 497 200 l 25
 197 200 l 25
 197 100 l 25
 497 100 l 25
 497 0 l 25xe5
 197 0 l 25xe2
 197 100 l 25
 97 100 l 25
 97 400 l 25
 197 400 l 25xe4
 197 500 l 25xe2
97 700 m 25xf4
 197 700 l 25xf4
 197 800 l 25
 397 800 l 25xea
 397 700 l 25xf2
 497 700 l 25
 497 600 l 25
 397 600 l 25xf1
 397 700 l 25xf2
 197 700 l 25
 197 600 l 25
 97 600 l 25
 97 700 l 25xf4
EndSplineSet
EndChar

StartChar: edieresis
Encoding: 235 235 169
Width: 638
VWidth: 0
Flags: W
HStem: 0 100<206 518> 200 100<206 415> 400 100<206 415> 600 100<101 206 415 518>
VStem: 97 100<104 209 312 418 625 729> 397 100<312 418 625 729>
LayerCount: 2
Back
Fore
SplineSet
197 500 m 25
 397 500 l 25
 397 400 l 25
 197 400 l 25
 197 300 l 25
 397 300 l 25
 397 400 l 25
 497 400 l 25
 497 200 l 25
 197 200 l 25
 197 100 l 25
 497 100 l 25
 497 0 l 25
 197 0 l 25
 197 100 l 25
 97 100 l 25
 97 400 l 25
 197 400 l 25
 197 500 l 25
397 700 m 25
 497 700 l 25
 497 600 l 25
 397 600 l 25
 397 700 l 25
97 700 m 25
 197 700 l 25
 197 600 l 25
 97 600 l 25
 97 700 l 25
EndSplineSet
EndChar

StartChar: igrave
Encoding: 236 236 170
Width: 638
VWidth: 0
Flags: W
HStem: 0 0G<309 415> 500 0G<309 415> 600 100<309 415> 700 100<206 309>
VStem: 197 100<729 834> 297 100<0 521 625 729>
LayerCount: 2
Back
Fore
SplineSet
297 500 m 25xc4
 397 500 l 25
 397 0 l 25
 297 0 l 25
 297 500 l 25xc4
197 800 m 25xd8
 297 800 l 25xd8
 297 700 l 25xe8
 397 700 l 25
 397 600 l 25
 297 600 l 25xe4
 297 700 l 25xe8
 197 700 l 25
 197 800 l 25xd8
EndSplineSet
EndChar

StartChar: iacute
Encoding: 237 237 171
Width: 638
VWidth: 0
Flags: W
HStem: 0 0G<309 415> 500 0G<309 415> 600 100<309 415> 700 100<415 518>
VStem: 297 100<0 521 625 729> 397 100<729 834>
LayerCount: 2
Back
Fore
SplineSet
297 500 m 25xc8
 397 500 l 25
 397 0 l 25
 297 0 l 25
 297 500 l 25xc8
397 800 m 25xd4
 497 800 l 25
 497 700 l 25xd4
 397 700 l 25
 397 600 l 25
 297 600 l 25
 297 700 l 25
 397 700 l 25xe8
 397 800 l 25xd4
EndSplineSet
EndChar

StartChar: icircumflex
Encoding: 238 238 172
Width: 638
VWidth: 0
Flags: W
HStem: 0 0G<309 415> 500 0G<309 415> 600 100<206 309 415 518> 700 100<309 415>
VStem: 197 100<625 729> 297 100<0 521 729 834> 397 100<625 729>
LayerCount: 2
Back
Fore
SplineSet
297 500 m 25xc4
 397 500 l 25
 397 0 l 25
 297 0 l 25
 297 500 l 25xc4
197 700 m 25xe8
 297 700 l 25xe8
 297 800 l 25
 397 800 l 25xd4
 397 700 l 25xe4
 497 700 l 25
 497 600 l 25
 397 600 l 25xe2
 397 700 l 25xe4
 297 700 l 25
 297 600 l 25
 197 600 l 25
 197 700 l 25xe8
EndSplineSet
EndChar

StartChar: idieresis
Encoding: 239 239 173
Width: 638
VWidth: 0
Flags: W
HStem: 0 0G<309 415> 500 0G<309 415> 600 100<206 309 415 518>
VStem: 197 100<625 729> 297 100<0 521> 397 100<625 729>
LayerCount: 2
Back
Fore
SplineSet
297 500 m 25xe8
 397 500 l 25
 397 0 l 25
 297 0 l 25
 297 500 l 25xe8
397 700 m 25xe4
 497 700 l 25
 497 600 l 25
 397 600 l 25
 397 700 l 25xe4
197 700 m 25xf0
 297 700 l 25
 297 600 l 25
 197 600 l 25
 197 700 l 25xf0
EndSplineSet
EndChar

StartChar: eth
Encoding: 240 240 174
Width: 638
VWidth: 0
Flags: W
HStem: 0 100<206 415> 100 100<101 206> 200 100<206 415> 400 100<309 415> 500 100<518 622> 600 100<309 415>
VStem: 97 100<104 209> 297 100<625 729> 397 100<104 209 312 418>
LayerCount: 2
Back
Fore
SplineSet
297 700 m 25x37
 397 700 l 25
 397 600 l 25x37
 597 600 l 25
 597 500 l 25
 497 500 l 25
 497 100 l 25x4a80
 397 100 l 25
 397 200 l 25xa280
 197 200 l 25x4280
 197 100 l 25
 397 100 l 25
 397 0 l 25
 197 0 l 25
 197 100 l 25x8280
 97 100 l 25
 97 200 l 25
 197 200 l 25x4280
 197 300 l 25
 397 300 l 25
 397 400 l 25x3280
 297 400 l 25
 297 500 l 25x33
 397 500 l 25x3280
 397 600 l 25
 297 600 l 25
 297 700 l 25x37
EndSplineSet
EndChar

StartChar: ntilde
Encoding: 241 241 175
Width: 638
VWidth: 0
Flags: W
HStem: 0 0G<101 206 415 518> 400 100<206 415> 600 100<101 206 309 415> 700 100<206 309 415 518>
VStem: 97 100<0 418 625 729> 297 100<625 729> 397 100<0 418 729 834>
LayerCount: 2
Back
Fore
SplineSet
97 500 m 25xca
 397 500 l 25
 397 400 l 25
 497 400 l 25
 497 0 l 25
 397 0 l 25
 397 400 l 25
 197 400 l 25
 197 0 l 25
 97 0 l 25
 97 500 l 25xca
97 700 m 25xec
 197 700 l 25xec
 197 800 l 25
 297 800 l 25xdc
 297 700 l 25
 397 700 l 25xec
 397 800 l 25
 497 800 l 25
 497 700 l 25xda
 397 700 l 25
 397 600 l 25
 297 600 l 25
 297 700 l 25
 197 700 l 25
 197 600 l 25
 97 600 l 25
 97 700 l 25xec
EndSplineSet
EndChar

StartChar: ograve
Encoding: 242 242 176
Width: 638
VWidth: 0
Flags: W
HStem: 0 100<206 415> 100 300<101 206 415 518> 400 100<206 309> 600 100<206 309>
VStem: 97 100<104 418> 197 100<625 729> 297 100<521 625> 397 100<104 418>
LayerCount: 2
Back
Fore
SplineSet
197 700 m 25x34
 297 700 l 25
 297 600 l 25x34
 397 600 l 25x32
 397 400 l 25
 197 400 l 25x59
 197 100 l 25
 397 100 l 25x99
 397 400 l 25
 497 400 l 25
 497 100 l 25x59
 397 100 l 25
 397 0 l 25
 197 0 l 25x95
 197 100 l 25x98
 97 100 l 25
 97 400 l 25
 197 400 l 25x58
 197 500 l 25x34
 297 500 l 25x32
 297 600 l 25
 197 600 l 25
 197 700 l 25x34
EndSplineSet
EndChar

StartChar: oacute
Encoding: 243 243 177
Width: 638
VWidth: 0
Flags: W
HStem: 0 100<206 415> 100 300<101 206 415 518> 400 100<309 415> 600 100<309 415>
VStem: 97 100<104 418> 197 100<521 625> 297 100<625 729> 397 100<104 418>
LayerCount: 2
Back
Fore
SplineSet
397 700 m 25x52
 397 600 l 25x52
 297 600 l 25
 297 500 l 25
 397 500 l 25x35
 397 400 l 25
 197 400 l 25x59
 197 100 l 25
 397 100 l 25x99
 397 400 l 25
 497 400 l 25
 497 100 l 25x59
 397 100 l 25
 397 0 l 25
 197 0 l 25x95
 197 100 l 25x98
 97 100 l 25
 97 400 l 25
 197 400 l 25x58
 197 600 l 25
 297 600 l 25x54
 297 700 l 25
 397 700 l 25x52
EndSplineSet
EndChar

StartChar: ocircumflex
Encoding: 244 244 178
Width: 638
VWidth: 0
Flags: W
HStem: 0 100<206 415> 100 300<101 206 415 518> 400 100<206 415> 600 100<101 206 415 518> 700 100<206 415>
VStem: 97 100<104 418 625 729> 197 200<0 104 418 521 729 834> 397 100<104 418 625 729>
LayerCount: 2
Back
Fore
SplineSet
197 500 m 25x22
 397 500 l 25x22
 397 400 l 25x42
 197 400 l 25x44
 197 100 l 25x84
 397 100 l 25x82
 397 400 l 25x42
 497 400 l 25
 497 100 l 25x41
 397 100 l 25
 397 0 l 25
 197 0 l 25x82
 197 100 l 25x84
 97 100 l 25
 97 400 l 25
 197 400 l 25x44
 197 500 l 25x22
97 700 m 25x14
 197 700 l 25x14
 197 800 l 25
 397 800 l 25x0a
 397 700 l 25x12
 497 700 l 25
 497 600 l 25
 397 600 l 25x11
 397 700 l 25x12
 197 700 l 25
 197 600 l 25
 97 600 l 25
 97 700 l 25x14
EndSplineSet
EndChar

StartChar: otilde
Encoding: 245 245 179
Width: 638
VWidth: 0
Flags: W
HStem: 0 100<206 415> 100 300<101 206 415 518> 400 100<206 415> 600 100<101 206 309 415> 700 100<206 309 415 518>
VStem: 97 100<104 418 625 729> 197 100<729 834> 297 100<625 729> 397 100<104 418 729 834>
LayerCount: 2
Back
Fore
SplineSet
197 500 m 25x22
 397 500 l 25x2280
 397 400 l 25
 197 400 l 25x4480
 197 100 l 25
 397 100 l 25x8480
 397 400 l 25
 497 400 l 25
 497 100 l 25x4480
 397 100 l 25
 397 0 l 25
 197 0 l 25x8280
 197 100 l 25x84
 97 100 l 25
 97 400 l 25
 197 400 l 25x44
 197 500 l 25x22
97 700 m 25x14
 197 700 l 25x14
 197 800 l 25
 297 800 l 25x0a
 297 700 l 25x12
 397 700 l 25x11
 397 800 l 25
 497 800 l 25
 497 700 l 25x0880
 397 700 l 25
 397 600 l 25
 297 600 l 25x11
 297 700 l 25x12
 197 700 l 25
 197 600 l 25
 97 600 l 25
 97 700 l 25x14
EndSplineSet
EndChar

StartChar: odieresis
Encoding: 246 246 180
Width: 638
VWidth: 0
Flags: W
HStem: 0 100<206 415> 100 300<101 206 415 518> 400 100<206 415> 600 100<101 206 415 518>
VStem: 97 100<104 418 625 729> 197 200<0 104 418 521> 397 100<104 418 625 729>
LayerCount: 2
Back
Fore
SplineSet
197 500 m 25x34
 397 500 l 25x34
 397 400 l 25x54
 197 400 l 25x58
 197 100 l 25x98
 397 100 l 25x94
 397 400 l 25x54
 497 400 l 25
 497 100 l 25x52
 397 100 l 25
 397 0 l 25
 197 0 l 25x94
 197 100 l 25x98
 97 100 l 25
 97 400 l 25
 197 400 l 25x58
 197 500 l 25x34
397 700 m 25x12
 497 700 l 25
 497 600 l 25
 397 600 l 25
 397 700 l 25x12
97 700 m 25x18
 197 700 l 25
 197 600 l 25
 97 600 l 25
 97 700 l 25x18
EndSplineSet
EndChar

StartChar: divide
Encoding: 247 247 181
Width: 638
VWidth: 0
Flags: W
HStem: 100 100<309 415> 300 100<101 622> 500 100<309 415>
VStem: 297 100<104 209 521 625>
CounterMasks: 1 e0
LayerCount: 2
Back
Fore
SplineSet
297 200 m 25
 397 200 l 25
 397 100 l 25
 297 100 l 25
 297 200 l 25
97 400 m 25
 597 400 l 25
 597 300 l 25
 97 300 l 25
 97 400 l 25
297 600 m 25
 397 600 l 25
 397 500 l 25
 297 500 l 25
 297 600 l 25
EndSplineSet
EndChar

StartChar: oslash
Encoding: 248 248 182
Width: 638
VWidth: 0
Flags: W
HStem: -100 100<-3 101> 0 100<206 415> 200 100<206 415> 400 100<206 415> 500 100<518 622>
VStem: -3 100<-104 0> 97 100<104 209 312 418> 397 100<104 209 312 418> 497 100<521 625>
LayerCount: 2
Back
Fore
SplineSet
197 500 m 25xb3
 497 500 l 25
 497 600 l 25
 597 600 l 25
 597 500 l 25
 497 500 l 25x2a80
 497 100 l 25
 397 100 l 25
 397 200 l 25
 197 200 l 25
 197 100 l 25
 397 100 l 25
 397 0 l 25x6b
 97 0 l 25
 97 -100 l 25
 -3 -100 l 25
 -3 0 l 25
 97 0 l 25xa5
 97 400 l 25
 197 400 l 25
 197 300 l 25
 397 300 l 25
 397 400 l 25
 197 400 l 25
 197 500 l 25xb3
EndSplineSet
EndChar

StartChar: ugrave
Encoding: 249 249 183
Width: 638
VWidth: 0
Flags: W
HStem: 0 100<206 415> 500 0G<101 206 415 518> 600 100<309 415> 700 100<206 309>
VStem: 97 100<104 521> 197 100<729 834> 297 100<625 729> 397 100<104 521>
LayerCount: 2
Back
Fore
SplineSet
397 500 m 25xc9
 497 500 l 25
 497 0 l 25
 197 0 l 25xc5
 197 100 l 25
 97 100 l 25
 97 500 l 25
 197 500 l 25
 197 100 l 25
 397 100 l 25
 397 500 l 25xc9
197 800 m 25xd4
 297 800 l 25xd4
 297 700 l 25xe4
 397 700 l 25
 397 600 l 25
 297 600 l 25xe2
 297 700 l 25xe4
 197 700 l 25
 197 800 l 25xd4
EndSplineSet
EndChar

StartChar: uacute
Encoding: 250 250 184
Width: 638
VWidth: 0
Flags: W
HStem: 0 100<206 415> 500 0G<101 206 415 518> 600 100<206 309> 700 100<309 415>
VStem: 97 100<104 521> 197 100<625 729> 297 100<729 834> 397 100<104 521>
LayerCount: 2
Back
Fore
SplineSet
397 500 m 25xc9
 497 500 l 25
 497 0 l 25
 197 0 l 25xc5
 197 100 l 25
 97 100 l 25
 97 500 l 25
 197 500 l 25
 197 100 l 25
 397 100 l 25
 397 500 l 25xc9
197 700 m 25xe4
 297 700 l 25xe4
 297 800 l 25
 397 800 l 25
 397 700 l 25xd2
 297 700 l 25
 297 600 l 25
 197 600 l 25
 197 700 l 25xe4
EndSplineSet
EndChar

StartChar: ucircumflex
Encoding: 251 251 185
Width: 638
VWidth: 0
Flags: W
HStem: 0 100<206 415> 500 0G<101 206 415 518> 600 100<101 206 415 518> 700 100<206 415>
VStem: 97 100<104 521 625 729> 397 100<104 521 625 729>
LayerCount: 2
Back
Fore
SplineSet
397 500 m 25xcc
 497 500 l 25
 497 0 l 25
 197 0 l 25
 197 100 l 25
 97 100 l 25
 97 500 l 25
 197 500 l 25
 197 100 l 25
 397 100 l 25
 397 500 l 25xcc
97 700 m 25xec
 197 700 l 25xec
 197 800 l 25
 397 800 l 25xdc
 397 700 l 25
 497 700 l 25
 497 600 l 25
 397 600 l 25
 397 700 l 25
 197 700 l 25
 197 600 l 25
 97 600 l 25
 97 700 l 25xec
EndSplineSet
EndChar

StartChar: udieresis
Encoding: 252 252 186
Width: 638
VWidth: 0
Flags: W
HStem: 0 100<206 415> 500 0G<101 206 415 518> 600 100<101 206 415 518>
VStem: 97 100<104 521 625 729> 397 100<104 521 625 729>
LayerCount: 2
Back
Fore
SplineSet
397 500 m 25
 497 500 l 25
 497 0 l 25
 197 0 l 25
 197 100 l 25
 97 100 l 25
 97 500 l 25
 197 500 l 25
 197 100 l 25
 397 100 l 25
 397 500 l 25
397 700 m 25
 497 700 l 25
 497 600 l 25
 397 600 l 25
 397 700 l 25
97 700 m 25
 197 700 l 25
 197 600 l 25
 97 600 l 25
 97 700 l 25
EndSplineSet
EndChar

StartChar: yacute
Encoding: 253 253 187
Width: 638
VWidth: 0
Flags: W
HStem: -100 100<206 415> 100 100<206 415> 500 0G<415 518> 500 100<206 309> 600 100<309 415>
VStem: 97 100<209 521> 197 100<521 625> 297 100<625 729> 397 100<0 104 209 521>
LayerCount: 2
Back
Fore
SplineSet
297 700 m 25xc9
 397 700 l 25
 397 600 l 25xc9
 297 600 l 25
 297 500 l 25xd2
 197 500 l 25
 197 200 l 25xd4
 397 200 l 25
 397 500 l 25
 497 500 l 25
 497 0 l 25
 397 0 l 25
 397 -100 l 25
 197 -100 l 25
 197 0 l 25
 397 0 l 25
 397 100 l 25
 197 100 l 25xe280
 197 200 l 25
 97 200 l 25
 97 500 l 25
 197 500 l 25xd4
 197 600 l 25
 297 600 l 25xd2
 297 700 l 25xc9
EndSplineSet
EndChar

StartChar: thorn
Encoding: 254 254 188
Width: 638
VWidth: 0
Flags: W
HStem: -100 0G<101 206> 100 100<206 415> 200 100<415 518> 600 0G<101 206>
VStem: 97 300<104 209 312 418> 97 100<-104 104 209 312 418 625> 397 100<209 312>
LayerCount: 2
Back
Fore
SplineSet
97 600 m 25xd4
 197 600 l 25
 197 400 l 25xd4
 397 400 l 25
 397 300 l 25xb8
 197 300 l 25xb4
 197 200 l 25xd4
 397 200 l 25xd8
 397 300 l 25xb8
 497 300 l 25
 497 200 l 25xb2
 397 200 l 25
 397 100 l 25xd8
 197 100 l 25
 197 -100 l 25
 97 -100 l 25
 97 600 l 25xd4
EndSplineSet
EndChar

StartChar: ydieresis
Encoding: 255 255 189
Width: 638
VWidth: 0
Flags: W
HStem: -100 100<206 415> 100 100<206 415> 500 0G<101 206 415 518> 600 100<101 206 415 518>
VStem: 97 100<209 521 625 729> 397 100<0 104 209 521 625 729>
LayerCount: 2
Back
Fore
SplineSet
97 500 m 25
 197 500 l 25
 197 200 l 25
 397 200 l 25
 397 500 l 25
 497 500 l 25
 497 0 l 25
 397 0 l 25
 397 -100 l 25
 197 -100 l 25
 197 0 l 25
 397 0 l 25
 397 100 l 25
 197 100 l 25
 197 200 l 25
 97 200 l 25
 97 500 l 25
397 700 m 25
 497 700 l 25
 497 600 l 25
 397 600 l 25
 397 700 l 25
97 700 m 25
 197 700 l 25
 197 600 l 25
 97 600 l 25
 97 700 l 25
EndSplineSet
EndChar

StartChar: uni0185
Encoding: 270 389 262
Width: 638
VWidth: 0
Flags: W
LayerCount: 2
Back
SplineSet
0 8.10546875 m 29
 6.15234375 8.10546875 l 25
 6.15234375 -2.05078125 l 25
 0 -2.05078125 l 25
 0 8.10546875 l 29
EndSplineSet
EndChar

StartChar: pi
Encoding: 402 960 401
Width: 638
VWidth: 0
Flags: W
HStem: 0 100<415 518> 400 100<-3 101 206 309 415 518>
VStem: 97 100<0 418> 297 100<104 418> 397 100<0 104>
LayerCount: 2
Back
Fore
SplineSet
-3 500 m 25xf0
 497 500 l 25
 497 400 l 25xe8
 397 400 l 25
 397 100 l 25xf0
 497 100 l 25
 497 0 l 25
 397 0 l 25xe8
 397 100 l 25
 297 100 l 25
 297 400 l 25
 197 400 l 25
 197 0 l 25
 97 0 l 25
 97 400 l 25
 -3 400 l 25
 -3 500 l 25xf0
EndSplineSet
EndChar

StartChar: arrowup
Encoding: 403 8593 402
Width: 638
VWidth: 0
Flags: W
HStem: 0 0G<309 415> 400 100<101 206 518 622> 500 100<206 309 415 518> 700 0G<309 415>
VStem: 97 100<418 521> 297 100<0 521 625 729> 497 100<418 521>
CounterMasks: 1 0e
LayerCount: 2
Back
Fore
SplineSet
97 500 m 25xde
 197 500 l 25xde
 197 600 l 25
 297 600 l 25
 297 700 l 25
 397 700 l 25
 397 600 l 25
 497 600 l 25xbe
 497 500 l 25
 597 500 l 25
 597 400 l 25
 497 400 l 25
 497 500 l 25xde
 397 500 l 25
 397 0 l 25
 297 0 l 25
 297 500 l 25xbe
 197 500 l 25
 197 400 l 25
 97 400 l 25
 97 500 l 25xde
EndSplineSet
EndChar

StartChar: arrowdown
Encoding: 404 8595 403
Width: 638
VWidth: 0
Flags: W
HStem: 0 0G<309 415> 100 100<206 309 415 518> 200 100<101 206 518 622> 700 0G<309 415>
VStem: 97 100<209 312> 297 100<0 104 209 729> 497 100<209 312>
CounterMasks: 1 0e
LayerCount: 2
Back
Fore
SplineSet
297 700 m 25xde
 397 700 l 25
 397 200 l 25
 497 200 l 25xde
 497 300 l 25
 597 300 l 25
 597 200 l 25xbe
 497 200 l 25
 497 100 l 25
 397 100 l 25
 397 0 l 25
 297 0 l 25
 297 100 l 25
 197 100 l 25
 197 200 l 25xde
 97 200 l 25
 97 300 l 25
 197 300 l 25xbe
 197 200 l 25
 297 200 l 25
 297 700 l 25xde
EndSplineSet
EndChar

StartChar: lessequal
Encoding: 405 8804 404
Width: 638
VWidth: 0
Flags: W
HStem: -200 100<206 309> -100 100<101 206> 0 100<-3 101 309 415> 100 100<206 309> 200 100<101 206> 400 100<101 206> 500 100<206 309> 600 100<309 415>
VStem: -3 100<0 104 312 418> 97 100<-104 0 209 312 418 521> 197 100<-209 -104 104 209 521 625> 297 100<0 104 625 729>
LayerCount: 2
Back
Fore
SplineSet
-3 100 m 25x2080
 97 100 l 25x2080
 97 0 l 25x4080
 197 0 l 25x4040
 197 -100 l 25x8040
 297 -100 l 25
 297 -200 l 25
 197 -200 l 25x8020
 197 -100 l 25x8040
 97 -100 l 25x4040
 97 0 l 25x4080
 -3 0 l 25
 -3 100 l 25x2080
297 700 m 25x0110
 397 700 l 25
 397 600 l 25x0110
 297 600 l 25
 297 500 l 25x0220
 197 500 l 25
 197 400 l 25x0440
 97 400 l 25
 97 300 l 25x0c80
 197 300 l 25x0c40
 197 200 l 25x1040
 297 200 l 25x1020
 297 100 l 25x2020
 397 100 l 25
 397 0 l 25
 297 0 l 25x2010
 297 100 l 25x2020
 197 100 l 25x1020
 197 200 l 25x1040
 97 200 l 25x0840
 97 300 l 25
 -3 300 l 25
 -3 400 l 25
 97 400 l 25x0c80
 97 500 l 25
 197 500 l 25x0c40
 197 600 l 25
 297 600 l 25x0220
 297 700 l 25x0110
EndSplineSet
EndChar

StartChar: greaterequal
Encoding: 406 8805 405
Width: 638
VWidth: 0
Flags: W
HStem: -200 100<206 309> -100 100<309 415> 0 100<101 206 415 518> 100 100<206 309> 200 100<309 415> 400 100<309 415> 500 100<206 309> 600 100<101 206>
VStem: 97 100<0 104 625 729> 197 100<-209 -104 104 209 521 625> 297 100<-104 0 209 312 418 521> 397 100<0 104 312 418>
LayerCount: 2
Back
Fore
SplineSet
397 100 m 25x2010
 497 100 l 25
 497 0 l 25x2010
 397 0 l 25
 397 -100 l 25x4020
 297 -100 l 25
 297 -200 l 25
 197 -200 l 25
 197 -100 l 25
 297 -100 l 25x8040
 297 0 l 25
 397 0 l 25x4020
 397 100 l 25x2010
97 700 m 25x0180
 197 700 l 25x0180
 197 600 l 25x0280
 297 600 l 25x0240
 297 500 l 25x0440
 397 500 l 25
 397 400 l 25x0420
 497 400 l 25
 497 300 l 25x0c10
 397 300 l 25
 397 200 l 25x0c20
 297 200 l 25
 297 100 l 25x1040
 197 100 l 25
 197 0 l 25
 97 0 l 25
 97 100 l 25
 197 100 l 25x2080
 197 200 l 25
 297 200 l 25x1040
 297 300 l 25
 397 300 l 25
 397 400 l 25
 297 400 l 25x0c20
 297 500 l 25x0c40
 197 500 l 25x0240
 197 600 l 25x0280
 97 600 l 25
 97 700 l 25x0180
EndSplineSet
EndChar

StartChar: SF100000
Encoding: 407 9472 406
Width: 638
VWidth: 0
Flags: W
HStem: 300 100<-3 622>
LayerCount: 2
Back
Fore
SplineSet
-3 400 m 25
 597 400 l 25
 597 300 l 25
 -3 300 l 25
 -3 400 l 25
EndSplineSet
EndChar

StartChar: uni2501
Encoding: 408 9473 407
Width: 638
VWidth: 0
Flags: W
HStem: 200 200<-3 622>
LayerCount: 2
Back
Fore
SplineSet
-3 400 m 25
 597 400 l 25
 597 200 l 25
 -3 200 l 25
 -3 400 l 25
EndSplineSet
EndChar

StartChar: SF110000
Encoding: 409 9474 408
Width: 638
VWidth: 0
Flags: W
VStem: 197 100<-209 834>
LayerCount: 2
Back
Fore
SplineSet
197 800 m 1
 297 800 l 5
 297 -200 l 1
 197 -200 l 1
 197 800 l 1
EndSplineSet
EndChar

StartChar: uni2503
Encoding: 410 9475 409
Width: 638
VWidth: 0
Flags: W
VStem: 197 200<-209 834>
LayerCount: 2
Back
Fore
SplineSet
197 800 m 1
 397 800 l 5
 397 -200 l 1
 197 -200 l 1
 197 800 l 1
EndSplineSet
EndChar

StartChar: uni2504
Encoding: 411 9476 410
Width: 638
VWidth: 0
Flags: W
HStem: 300 100<-3 101 206 309 415 518>
VStem: -3 100<312 418> 197 100<312 418> 397 100<312 418>
CounterMasks: 1 70
LayerCount: 2
Back
Fore
SplineSet
497 300 m 25
 397 300 l 25
 397 400 l 25
 497 400 l 25
 497 300 l 25
297 400 m 25
 297 300 l 25
 197 300 l 25
 197 400 l 25
 297 400 l 25
-3 400 m 25
 97 400 l 25
 97 300 l 25
 -3 300 l 25
 -3 400 l 25
EndSplineSet
EndChar

StartChar: uni2505
Encoding: 412 9477 411
Width: 638
VWidth: 0
Flags: W
HStem: 200 200<-3 101 206 309 415 518>
VStem: -3 100<209 418> 197 100<209 418> 397 100<209 418>
CounterMasks: 1 70
LayerCount: 2
Back
Fore
SplineSet
397 400 m 25
 497 400 l 25
 497 200 l 25
 397 200 l 25
 397 400 l 25
197 400 m 25
 297 400 l 25
 297 200 l 25
 197 200 l 25
 197 400 l 25
-3 400 m 25
 97 400 l 25
 97 200 l 25
 -3 200 l 25
 -3 400 l 25
EndSplineSet
EndChar

StartChar: uni2506
Encoding: 413 9478 412
Width: 638
VWidth: 0
Flags: W
HStem: 0 0G<206 309> 500 0G<206 309> 600 0G<206 309>
VStem: 197 100<-209 0 104 521 625 834>
LayerCount: 2
Back
Fore
SplineSet
197 0 m 25
 297 0 l 25
 297 -200 l 25
 197 -200 l 25
 197 0 l 25
197 500 m 25
 297 500 l 25
 297 100 l 25
 197 100 l 25
 197 500 l 25
197 800 m 1
 297 800 l 5
 297 600 l 1
 197 600 l 1
 197 800 l 1
EndSplineSet
EndChar

StartChar: uni2507
Encoding: 414 9479 413
Width: 638
VWidth: 0
Flags: W
HStem: -200 200<206 415> 500 0G<206 415> 600 200<206 415>
VStem: 197 200<-209 0 104 521 625 834>
LayerCount: 2
Back
Fore
SplineSet
197 0 m 25
 397 0 l 25
 397 -200 l 25
 197 -200 l 25
 197 0 l 25
197 500 m 25
 397 500 l 25
 397 100 l 25
 197 100 l 25
 197 500 l 25
197 800 m 1
 397 800 l 5
 397 600 l 1
 197 600 l 1
 197 800 l 1
EndSplineSet
EndChar

StartChar: uni2508
Encoding: 415 9480 414
Width: 638
VWidth: 0
Flags: W
HStem: 300 100<-3 101 206 309 415 518>
VStem: -3 100<312 418> 197 100<312 418> 397 100<312 418>
CounterMasks: 1 70
LayerCount: 2
Back
Fore
SplineSet
397 400 m 25
 497 400 l 25
 497 300 l 25
 397 300 l 25
 397 400 l 25
197 400 m 25
 297 400 l 25
 297 300 l 25
 197 300 l 25
 197 400 l 25
-3 400 m 25
 97 400 l 25
 97 300 l 25
 -3 300 l 25
 -3 400 l 25
EndSplineSet
EndChar

StartChar: uni2509
Encoding: 416 9481 415
Width: 638
VWidth: 0
Flags: W
HStem: 200 200<-3 101 206 309 415 518>
VStem: -3 100<209 418> 197 100<209 418> 397 100<209 418>
CounterMasks: 1 70
LayerCount: 2
Back
Fore
SplineSet
397 400 m 25
 497 400 l 25
 497 200 l 25
 397 200 l 25
 397 400 l 25
197 400 m 25
 297 400 l 25
 297 200 l 25
 197 200 l 25
 197 400 l 25
-3 400 m 25
 97 400 l 25
 97 200 l 25
 -3 200 l 25
 -3 400 l 25
EndSplineSet
EndChar

StartChar: uni250A
Encoding: 417 9482 416
Width: 638
VWidth: 0
Flags: W
HStem: -200 100<206 309> 0 0G<206 309> 500 0G<206 309> 600 0G<206 309>
VStem: 197 100<-209 -104 0 209 312 521 625 834>
LayerCount: 2
Back
Fore
SplineSet
197 -100 m 25
 297 -100 l 25
 297 -200 l 25
 197 -200 l 25
 197 -100 l 25
197 200 m 25
 297 200 l 25
 297 0 l 25
 197 0 l 25
 197 200 l 25
197 500 m 25
 297 500 l 25
 297 300 l 25
 197 300 l 25
 197 500 l 25
197 800 m 1
 297 800 l 5
 297 600 l 1
 197 600 l 1
 197 800 l 1
EndSplineSet
EndChar

StartChar: uni250B
Encoding: 418 9483 417
Width: 638
VWidth: 0
Flags: W
HStem: -200 100<206 415> 0 200<206 415> 300 200<206 415> 600 200<206 415>
VStem: 197 200<-209 -104 0 209 312 521 625 834>
LayerCount: 2
Back
Fore
SplineSet
197 -100 m 25
 397 -100 l 25
 397 -200 l 25
 197 -200 l 25
 197 -100 l 25
197 200 m 25
 397 200 l 25
 397 0 l 25
 197 0 l 25
 197 200 l 25
197 500 m 25
 397 500 l 25
 397 300 l 25
 197 300 l 25
 197 500 l 25
197 800 m 1
 397 800 l 5
 397 600 l 1
 197 600 l 1
 197 800 l 1
EndSplineSet
EndChar

StartChar: SF010000
Encoding: 419 9484 418
Width: 638
VWidth: 0
Flags: W
HStem: 300 100<309 622>
VStem: 197 100<-209 312>
LayerCount: 2
Back
Fore
SplineSet
197 400 m 25
 597 400 l 25
 597 300 l 25
 297 300 l 25
 297 -200 l 25
 197 -200 l 25
 197 400 l 25
EndSplineSet
EndChar

StartChar: uni250D
Encoding: 420 9485 419
Width: 638
VWidth: 0
Flags: W
HStem: 200 200<309 622>
VStem: 197 100<-209 209>
LayerCount: 2
Back
Fore
SplineSet
197 400 m 25
 597 400 l 25
 597 200 l 25
 297 200 l 25
 297 -200 l 25
 197 -200 l 25
 197 400 l 25
EndSplineSet
EndChar

StartChar: uni250E
Encoding: 421 9486 420
Width: 638
VWidth: 0
Flags: W
HStem: 300 100<415 622>
VStem: 197 200<-209 312>
LayerCount: 2
Back
Fore
SplineSet
197 400 m 25
 597 400 l 25
 597 300 l 25
 397 300 l 25
 397 -200 l 25
 197 -200 l 25
 197 400 l 25
EndSplineSet
EndChar

StartChar: uni250F
Encoding: 422 9487 421
Width: 638
VWidth: 0
Flags: W
HStem: 200 200<415 622>
VStem: 197 200<-209 209>
LayerCount: 2
Back
Fore
SplineSet
197 400 m 25
 597 400 l 25
 597 200 l 25
 397 200 l 25
 397 -200 l 25
 197 -200 l 25
 197 400 l 25
EndSplineSet
EndChar

StartChar: SF030000
Encoding: 423 9488 422
Width: 638
VWidth: 0
Flags: W
HStem: 300 100<-3 206>
VStem: 197 100<-209 312>
LayerCount: 2
Back
Fore
SplineSet
-3 400 m 25
 297 400 l 25
 297 -200 l 25
 197 -200 l 25
 197 300 l 25
 -3 300 l 25
 -3 400 l 25
EndSplineSet
EndChar

StartChar: uni2511
Encoding: 424 9489 423
Width: 638
VWidth: 0
Flags: W
HStem: 200 200<-3 206>
VStem: -3 300<209 418> 197 100<-209 209>
LayerCount: 2
Back
Fore
SplineSet
-3 400 m 25xc0
 297 400 l 25xc0
 297 -200 l 25
 197 -200 l 25
 197 200 l 25xa0
 -3 200 l 25
 -3 400 l 25xc0
EndSplineSet
EndChar

StartChar: uni2512
Encoding: 425 9490 424
Width: 638
VWidth: 0
Flags: W
HStem: 300 100<-3 206>
VStem: 197 200<-209 312>
LayerCount: 2
Back
Fore
SplineSet
-3 400 m 25
 397 400 l 25
 397 -200 l 25
 197 -200 l 25
 197 300 l 25
 -3 300 l 25
 -3 400 l 25
EndSplineSet
EndChar

StartChar: uni2513
Encoding: 426 9491 425
Width: 638
VWidth: 0
Flags: W
HStem: 200 200<-3 206>
VStem: 197 200<-209 209>
LayerCount: 2
Back
Fore
SplineSet
-3 400 m 25
 397 400 l 25
 397 -200 l 25
 197 -200 l 25
 197 200 l 25
 -3 200 l 25
 -3 400 l 25
EndSplineSet
EndChar

StartChar: SF020000
Encoding: 427 9492 426
Width: 638
VWidth: 0
Flags: W
HStem: 300 100<309 622>
VStem: 197 100<418 834>
LayerCount: 2
Back
Fore
SplineSet
197 800 m 5
 297 800 l 1
 297 400 l 1
 597 400 l 25
 597 300 l 25
 197 300 l 1
 197 800 l 5
EndSplineSet
EndChar

StartChar: uni2515
Encoding: 428 9493 427
Width: 638
VWidth: 0
Flags: W
HStem: 200 200<309 622>
VStem: 197 100<418 834>
LayerCount: 2
Back
Fore
SplineSet
197 800 m 1
 297 800 l 5
 297 400 l 1
 597 400 l 25
 597 200 l 25
 197 200 l 1
 197 800 l 1
EndSplineSet
EndChar

StartChar: uni2516
Encoding: 429 9494 428
Width: 638
VWidth: 0
Flags: W
HStem: 300 100<415 622>
VStem: 197 200<418 834>
LayerCount: 2
Back
Fore
SplineSet
197 800 m 1
 397 800 l 5
 397 400 l 1
 597 400 l 25
 597 300 l 25
 197 300 l 1
 197 800 l 1
EndSplineSet
EndChar

StartChar: uni2517
Encoding: 430 9495 429
Width: 638
VWidth: 0
Flags: W
HStem: 200 200<415 622>
VStem: 197 200<418 834>
LayerCount: 2
Back
Fore
SplineSet
197 800 m 1
 397 800 l 5
 397 400 l 1
 597 400 l 25
 597 200 l 25
 197 200 l 1
 197 800 l 1
EndSplineSet
EndChar

StartChar: SF040000
Encoding: 431 9496 430
Width: 638
VWidth: 0
Flags: W
HStem: 300 100<-3 206>
VStem: 197 100<418 834>
LayerCount: 2
Back
Fore
SplineSet
197 800 m 1
 297 800 l 5
 297 300 l 1
 -3 300 l 25
 -3 400 l 25
 197 400 l 1
 197 800 l 1
EndSplineSet
EndChar

StartChar: uni2519
Encoding: 432 9497 431
Width: 638
VWidth: 0
Flags: W
HStem: 200 200<-3 206>
VStem: -3 300<209 418> 197 100<418 834>
LayerCount: 2
Back
Fore
SplineSet
197 800 m 1xa0
 297 800 l 5xa0
 297 200 l 1
 -3 200 l 25
 -3 400 l 25xc0
 197 400 l 1
 197 800 l 1xa0
EndSplineSet
EndChar

StartChar: uni251A
Encoding: 433 9498 432
Width: 638
VWidth: 0
Flags: W
HStem: 300 100<-3 206>
VStem: 197 200<418 834>
LayerCount: 2
Back
Fore
SplineSet
197 800 m 1
 397 800 l 5
 397 300 l 1
 -3 300 l 25
 -3 400 l 25
 197 400 l 1
 197 800 l 1
EndSplineSet
EndChar

StartChar: uni251B
Encoding: 434 9499 433
Width: 638
VWidth: 0
Flags: W
HStem: 200 200<-3 206>
VStem: 197 200<418 834>
LayerCount: 2
Back
Fore
SplineSet
197 800 m 5
 397 800 l 1
 397 200 l 1
 -3 200 l 25
 -3 400 l 25
 197 400 l 1
 197 800 l 5
EndSplineSet
EndChar

StartChar: SF080000
Encoding: 435 9500 434
Width: 638
VWidth: 0
Flags: W
HStem: 300 100<309 622>
VStem: 197 100<-209 312 418 834>
LayerCount: 2
Back
Fore
SplineSet
197 800 m 1
 297 800 l 5
 297 400 l 1
 597 400 l 25
 597 300 l 25
 297 300 l 25
 297 -200 l 25
 197 -200 l 1
 197 800 l 1
EndSplineSet
EndChar

StartChar: uni251D
Encoding: 436 9501 435
Width: 638
VWidth: 0
Flags: W
HStem: 200 200<309 622>
VStem: 197 100<-209 209 418 834>
LayerCount: 2
Back
Fore
SplineSet
197 800 m 1
 297 800 l 5
 297 400 l 1
 597 400 l 25
 597 200 l 25
 297 200 l 25
 297 -200 l 25
 197 -200 l 1
 197 800 l 1
EndSplineSet
EndChar

StartChar: uni251E
Encoding: 437 9502 436
Width: 638
VWidth: 0
Flags: W
HStem: 300 100<415 622>
VStem: 197 200<418 834> 197 100<-209 312>
LayerCount: 2
Back
Fore
SplineSet
197 800 m 1xc0
 397 800 l 5
 397 400 l 1xc0
 597 400 l 25
 597 300 l 25
 297 300 l 25
 297 -200 l 25
 197 -200 l 1xa0
 197 800 l 1xc0
EndSplineSet
EndChar

StartChar: uni251F
Encoding: 438 9503 437
Width: 638
VWidth: 0
Flags: W
HStem: 300 100<415 622>
VStem: 197 200<-209 312> 197 100<418 834>
LayerCount: 2
Back
Fore
SplineSet
197 800 m 1xa0
 297 800 l 5
 297 400 l 1xa0
 597 400 l 25
 597 300 l 25
 397 300 l 25
 397 -200 l 25
 197 -200 l 1xc0
 197 800 l 1xa0
EndSplineSet
EndChar

StartChar: uni2520
Encoding: 439 9504 438
Width: 638
VWidth: 0
Flags: W
HStem: 300 100<415 622>
VStem: 197 200<-209 312 418 834>
LayerCount: 2
Back
Fore
SplineSet
197 800 m 1
 397 800 l 5
 397 400 l 1
 597 400 l 25
 597 300 l 25
 397 300 l 25
 397 -200 l 25
 197 -200 l 1
 197 800 l 1
EndSplineSet
EndChar

StartChar: uni2521
Encoding: 440 9505 439
Width: 638
VWidth: 0
Flags: W
HStem: 200 200<415 622>
VStem: 197 200<418 834> 197 100<-209 209>
LayerCount: 2
Back
Fore
SplineSet
197 800 m 1xc0
 397 800 l 5
 397 400 l 1xc0
 597 400 l 25
 597 200 l 25
 297 200 l 25
 297 -200 l 25
 197 -200 l 1xa0
 197 800 l 1xc0
EndSplineSet
EndChar

StartChar: uni2522
Encoding: 441 9506 440
Width: 638
VWidth: 0
Flags: W
HStem: 200 200<415 622>
VStem: 197 200<-209 209> 197 100<418 834>
LayerCount: 2
Back
Fore
SplineSet
197 800 m 1xa0
 297 800 l 5
 297 400 l 1xa0
 597 400 l 25
 597 200 l 25
 397 200 l 25
 397 -200 l 25
 197 -200 l 1xc0
 197 800 l 1xa0
EndSplineSet
EndChar

StartChar: uni2523
Encoding: 442 9507 441
Width: 638
VWidth: 0
Flags: W
HStem: 200 200<415 622>
VStem: 197 200<-209 209 418 834>
LayerCount: 2
Back
Fore
SplineSet
197 800 m 29
 397 800 l 29
 397 400 l 1
 597 400 l 25
 597 200 l 25
 397 200 l 25
 397 -200 l 25
 197 -200 l 1
 197 800 l 29
EndSplineSet
EndChar

StartChar: SF090000
Encoding: 443 9508 442
Width: 638
VWidth: 0
Flags: W
HStem: 300 100<-3 206>
VStem: 197 100<-209 312 418 834>
LayerCount: 2
Back
Fore
SplineSet
197 800 m 1
 297 800 l 5
 297 -200 l 1
 197 -200 l 25
 197 300 l 25
 -3 300 l 25
 -3 400 l 25
 197 400 l 1
 197 800 l 1
EndSplineSet
EndChar

StartChar: uni2525
Encoding: 444 9509 443
Width: 638
VWidth: 0
Flags: W
HStem: 200 200<-3 206>
VStem: -3 300<209 418> 197 100<-209 209 418 834>
LayerCount: 2
Back
Fore
SplineSet
197 800 m 1xa0
 297 800 l 5
 297 -200 l 1
 197 -200 l 25
 197 200 l 25xa0
 -3 200 l 25
 -3 400 l 25xc0
 197 400 l 1
 197 800 l 1xa0
EndSplineSet
EndChar

StartChar: uni2526
Encoding: 445 9510 444
Width: 638
VWidth: 0
Flags: W
HStem: 300 100<-3 206>
VStem: 197 200<418 834> 197 100<-209 312>
LayerCount: 2
Back
Fore
SplineSet
197 800 m 1xc0
 397 800 l 5
 397 400 l 1xc0
 297 400 l 25
 297 -200 l 25
 197 -200 l 25
 197 300 l 25xa0
 -3 300 l 25
 -3 400 l 25
 197 400 l 1
 197 800 l 1xc0
EndSplineSet
EndChar

StartChar: uni2527
Encoding: 446 9511 445
Width: 638
VWidth: 0
Flags: W
HStem: 300 100<-3 206>
VStem: 197 200<-209 312> 197 100<418 834>
LayerCount: 2
Back
Fore
SplineSet
197 800 m 1xa0
 297 800 l 5
 297 300 l 1xa0
 397 300 l 25
 397 -200 l 25
 197 -200 l 25
 197 300 l 25xc0
 -3 300 l 25
 -3 400 l 25
 197 400 l 1
 197 800 l 1xa0
EndSplineSet
EndChar

StartChar: uni2528
Encoding: 447 9512 446
Width: 638
VWidth: 0
Flags: W
HStem: 300 100<-3 206>
VStem: 197 200<-209 312 418 834>
LayerCount: 2
Back
Fore
SplineSet
197 800 m 1
 397 800 l 5
 397 -200 l 1
 197 -200 l 25
 197 300 l 25
 -3 300 l 25
 -3 400 l 25
 197 400 l 1
 197 800 l 1
EndSplineSet
EndChar

StartChar: uni2529
Encoding: 448 9513 447
Width: 638
VWidth: 0
Flags: W
HStem: 200 200<-3 206>
VStem: 197 200<418 834> 197 100<-209 209>
LayerCount: 2
Back
Fore
SplineSet
197 800 m 1xc0
 397 800 l 5
 397 200 l 1xc0
 297 200 l 25
 297 -200 l 25
 197 -200 l 25
 197 200 l 25xa0
 -3 200 l 25
 -3 400 l 25
 197 400 l 1
 197 800 l 1xc0
EndSplineSet
EndChar

StartChar: uni252A
Encoding: 449 9514 448
Width: 638
VWidth: 0
Flags: W
HStem: 200 200<-3 206>
VStem: 197 200<-209 209> 197 100<418 834>
LayerCount: 2
Back
Fore
SplineSet
197 800 m 29xa0
 297 800 l 29
 297 400 l 1xa0
 397 400 l 25
 397 -200 l 25
 197 -200 l 25
 197 200 l 25xc0
 -3 200 l 25
 -3 400 l 25
 197 400 l 1
 197 800 l 29xa0
EndSplineSet
EndChar

StartChar: uni252B
Encoding: 450 9515 449
Width: 638
VWidth: 0
Flags: W
HStem: 200 200<-3 206>
VStem: 197 200<-209 209 418 834>
LayerCount: 2
Back
Fore
SplineSet
197 800 m 29
 397 800 l 29
 397 -200 l 1
 197 -200 l 25
 197 200 l 25
 -3 200 l 25
 -3 400 l 25
 197 400 l 1
 197 800 l 29
EndSplineSet
EndChar

StartChar: SF060000
Encoding: 451 9516 450
Width: 638
VWidth: 0
Flags: W
HStem: 300 100<-3 206 309 622>
VStem: 197 100<-209 312>
LayerCount: 2
Back
Fore
SplineSet
-3 400 m 25
 597 400 l 25
 597 300 l 25
 297 300 l 25
 297 -200 l 25
 197 -200 l 25
 197 300 l 25
 -3 300 l 25
 -3 400 l 25
EndSplineSet
EndChar

StartChar: uni252D
Encoding: 452 9517 451
Width: 638
VWidth: 0
Flags: W
HStem: 200 200<-3 206> 300 100<309 622>
VStem: 197 100<-209 209>
LayerCount: 2
Back
Fore
SplineSet
-3 400 m 25xa0
 597 400 l 25
 597 300 l 25
 297 300 l 25x60
 297 -200 l 25
 197 -200 l 25
 197 200 l 25
 -3 200 l 25
 -3 400 l 25xa0
EndSplineSet
EndChar

StartChar: uni252E
Encoding: 453 9518 452
Width: 638
VWidth: 0
Flags: W
HStem: 200 200<309 622> 300 100<-3 206>
VStem: 197 100<-209 209>
LayerCount: 2
Back
Fore
SplineSet
-3 400 m 25x60
 597 400 l 25
 597 200 l 25
 297 200 l 25xa0
 297 -200 l 25
 197 -200 l 25
 197 300 l 25
 -3 300 l 25
 -3 400 l 25x60
EndSplineSet
EndChar

StartChar: uni252F
Encoding: 454 9519 453
Width: 638
VWidth: 0
Flags: W
HStem: 200 200<-3 206 309 622>
VStem: 197 100<-209 209>
LayerCount: 2
Back
Fore
SplineSet
-3 400 m 25
 597 400 l 25
 597 200 l 25
 297 200 l 25
 297 -200 l 25
 197 -200 l 25
 197 200 l 25
 -3 200 l 25
 -3 400 l 25
EndSplineSet
EndChar

StartChar: uni2530
Encoding: 455 9520 454
Width: 638
VWidth: 0
Flags: W
HStem: 300 100<-3 206 415 622>
VStem: 197 200<-209 312>
LayerCount: 2
Back
Fore
SplineSet
-3 400 m 25
 597 400 l 25
 597 300 l 25
 397 300 l 25
 397 -200 l 25
 197 -200 l 25
 197 300 l 25
 -3 300 l 25
 -3 400 l 25
EndSplineSet
EndChar

StartChar: uni2531
Encoding: 456 9521 455
Width: 638
VWidth: 0
Flags: W
HStem: 200 200<-3 206> 300 100<415 622>
VStem: 197 200<-209 209>
LayerCount: 2
Back
Fore
SplineSet
-3 400 m 25xa0
 597 400 l 25
 597 300 l 25
 397 300 l 25x60
 397 -200 l 25
 197 -200 l 25
 197 200 l 25
 -3 200 l 25
 -3 400 l 25xa0
EndSplineSet
EndChar

StartChar: uni2532
Encoding: 457 9522 456
Width: 638
VWidth: 0
Flags: W
HStem: 200 200<415 622> 300 100<-3 206>
VStem: 197 200<-209 209>
LayerCount: 2
Back
Fore
SplineSet
-3 400 m 1x60
 597 400 l 1
 597 200 l 1
 397 200 l 1xa0
 397 -200 l 1
 197 -200 l 1
 197 300 l 1
 -3 300 l 1
 -3 400 l 1x60
EndSplineSet
EndChar

StartChar: uni2533
Encoding: 458 9523 457
Width: 638
VWidth: 0
Flags: W
HStem: 200 200<-3 206 415 622>
VStem: 197 200<-209 209>
LayerCount: 2
Back
Fore
SplineSet
-3 400 m 25
 597 400 l 25
 597 200 l 25
 397 200 l 25
 397 -200 l 25
 197 -200 l 25
 197 200 l 25
 -3 200 l 25
 -3 400 l 25
EndSplineSet
EndChar

StartChar: SF070000
Encoding: 459 9524 458
Width: 638
VWidth: 0
Flags: W
HStem: 300 100<-3 206 309 622>
VStem: 197 100<418 834>
LayerCount: 2
Back
Fore
SplineSet
-3 400 m 25
 197 400 l 1
 197 800 l 29
 297 800 l 29
 297 400 l 1
 597 400 l 25
 597 300 l 25
 -3 300 l 25
 -3 400 l 25
EndSplineSet
EndChar

StartChar: uni2535
Encoding: 460 9525 459
Width: 638
VWidth: 0
Flags: W
HStem: 200 200<-3 206> 300 100<309 622>
VStem: 197 100<418 834>
LayerCount: 2
Back
Fore
SplineSet
197 800 m 29xa0
 297 800 l 29
 297 400 l 1
 597 400 l 25
 597 300 l 25
 197 300 l 25x60
 197 200 l 25
 -3 200 l 25
 -3 400 l 25
 197 400 l 1
 197 800 l 29xa0
EndSplineSet
EndChar

StartChar: uni2536
Encoding: 461 9526 460
Width: 638
VWidth: 0
Flags: W
HStem: 200 200<309 622> 300 100<-3 206>
VStem: 197 100<418 834>
LayerCount: 2
Back
Fore
SplineSet
197 800 m 1x60
 297 800 l 5
 297 400 l 1
 597 400 l 25
 597 200 l 25
 297 200 l 25xa0
 297 300 l 25
 -3 300 l 25
 -3 400 l 25
 197 400 l 1
 197 800 l 1x60
EndSplineSet
EndChar

StartChar: uni2537
Encoding: 462 9527 461
Width: 638
VWidth: 0
Flags: W
HStem: 200 200<-3 206 309 622>
VStem: 197 100<418 834>
LayerCount: 2
Back
Fore
SplineSet
197 800 m 29
 297 800 l 29
 297 400 l 1
 597 400 l 25
 597 200 l 25
 -3 200 l 25
 -3 400 l 25
 197 400 l 1
 197 800 l 29
EndSplineSet
EndChar

StartChar: uni2538
Encoding: 463 9528 462
Width: 638
VWidth: 0
Flags: W
HStem: 300 100<-3 206 415 622>
VStem: 197 200<418 834>
LayerCount: 2
Back
Fore
SplineSet
197 800 m 29
 397 800 l 29
 397 400 l 1
 597 400 l 25
 597 300 l 25
 -3 300 l 25
 -3 400 l 25
 197 400 l 1
 197 800 l 29
EndSplineSet
EndChar

StartChar: uni2539
Encoding: 464 9529 463
Width: 638
VWidth: 0
Flags: W
HStem: 200 200<-3 206> 300 100<415 622>
VStem: 197 200<418 834>
LayerCount: 2
Back
Fore
SplineSet
197 800 m 29xa0
 397 800 l 29
 397 400 l 1
 597 400 l 25
 597 300 l 25
 297 300 l 25x60
 297 200 l 25
 -3 200 l 25
 -3 400 l 25
 197 400 l 1
 197 800 l 29xa0
EndSplineSet
EndChar

StartChar: uni253A
Encoding: 465 9530 464
Width: 638
VWidth: 0
Flags: W
HStem: 200 200<415 622> 300 100<-3 206>
VStem: 197 200<418 834>
LayerCount: 2
Back
Fore
SplineSet
197 800 m 1x60
 397 800 l 5
 397 400 l 1
 597 400 l 25
 597 200 l 25
 297 200 l 25xa0
 297 300 l 25
 -3 300 l 25
 -3 400 l 25
 197 400 l 1
 197 800 l 1x60
EndSplineSet
EndChar

StartChar: uni253B
Encoding: 466 9531 465
Width: 638
VWidth: 0
Flags: W
HStem: 200 200<-3 206 415 622>
VStem: 197 200<418 834>
LayerCount: 2
Back
Fore
SplineSet
197 800 m 1
 397 800 l 5
 397 400 l 1
 597 400 l 25
 597 200 l 25
 -3 200 l 25
 -3 400 l 25
 197 400 l 1
 197 800 l 1
EndSplineSet
EndChar

StartChar: SF050000
Encoding: 467 9532 466
Width: 638
VWidth: 0
Flags: W
HStem: 300 100<-3 206 309 622>
VStem: 197 100<-209 312 418 834>
LayerCount: 2
Back
Fore
SplineSet
197 800 m 1
 297 800 l 5
 297 400 l 1
 597 400 l 25
 597 300 l 25
 297 300 l 25
 297 -200 l 25
 197 -200 l 25
 197 300 l 25
 -3 300 l 25
 -3 400 l 25
 197 400 l 1
 197 800 l 1
EndSplineSet
EndChar

StartChar: uni253D
Encoding: 468 9533 467
Width: 638
VWidth: 0
Flags: W
HStem: 200 200<-3 206> 300 100<309 622>
VStem: 197 100<-209 209 418 834>
LayerCount: 2
Back
Fore
SplineSet
197 800 m 1xa0
 297 800 l 5
 297 400 l 1
 597 400 l 25
 597 300 l 25
 297 300 l 25x60
 297 -200 l 25
 197 -200 l 25
 197 200 l 25
 -3 200 l 25
 -3 400 l 25
 197 400 l 1
 197 800 l 1xa0
EndSplineSet
EndChar

StartChar: uni253E
Encoding: 469 9534 468
Width: 638
VWidth: 0
Flags: W
HStem: 200 200<309 622> 300 100<-3 206>
VStem: 197 100<-209 209 418 834>
LayerCount: 2
Back
Fore
SplineSet
197 800 m 1x60
 297 800 l 5
 297 400 l 1
 597 400 l 25
 597 200 l 25
 297 200 l 25xa0
 297 -200 l 25
 197 -200 l 25
 197 300 l 25
 -3 300 l 25
 -3 400 l 25
 197 400 l 1
 197 800 l 1x60
EndSplineSet
EndChar

StartChar: uni253F
Encoding: 470 9535 469
Width: 638
VWidth: 0
Flags: W
HStem: 200 200<-3 206 309 622>
VStem: 197 100<-209 209 418 834>
LayerCount: 2
Back
Fore
SplineSet
197 800 m 1
 297 800 l 5
 297 400 l 1
 597 400 l 25
 597 200 l 25
 297 200 l 25
 297 -200 l 25
 197 -200 l 25
 197 200 l 25
 -3 200 l 25
 -3 400 l 25
 197 400 l 1
 197 800 l 1
EndSplineSet
EndChar

StartChar: uni2540
Encoding: 471 9536 470
Width: 638
VWidth: 0
Flags: W
HStem: 300 100<-3 206 415 622>
VStem: 197 200<418 834> 197 100<-209 312>
LayerCount: 2
Back
Fore
SplineSet
197 800 m 1xc0
 397 800 l 5
 397 400 l 1xc0
 597 400 l 25
 597 300 l 25
 297 300 l 25
 297 -200 l 25
 197 -200 l 25
 197 300 l 25xa0
 -3 300 l 25
 -3 400 l 25
 197 400 l 1
 197 800 l 1xc0
EndSplineSet
EndChar

StartChar: uni2541
Encoding: 472 9537 471
Width: 638
VWidth: 0
Flags: W
HStem: 300 100<-3 206 415 622>
VStem: 197 200<-209 312> 197 100<418 834>
LayerCount: 2
Back
Fore
SplineSet
197 800 m 1xa0
 297 800 l 5
 297 400 l 1xa0
 597 400 l 25
 597 300 l 25
 397 300 l 25
 397 -200 l 25
 197 -200 l 25
 197 300 l 25xc0
 -3 300 l 25
 -3 400 l 25
 197 400 l 1
 197 800 l 1xa0
EndSplineSet
EndChar

StartChar: uni2542
Encoding: 473 9538 472
Width: 638
VWidth: 0
Flags: W
HStem: 300 100<-3 206 415 622>
VStem: 197 200<-209 312 418 834>
LayerCount: 2
Back
Fore
SplineSet
197 800 m 1
 397 800 l 5
 397 400 l 1
 597 400 l 25
 597 300 l 25
 397 300 l 25
 397 -200 l 25
 197 -200 l 25
 197 300 l 25
 -3 300 l 25
 -3 400 l 25
 197 400 l 1
 197 800 l 1
EndSplineSet
EndChar

StartChar: uni2543
Encoding: 474 9539 473
Width: 638
VWidth: 0
Flags: W
HStem: 200 200<-3 206> 300 100<415 622>
VStem: 197 200<418 834> 197 100<-209 209>
LayerCount: 2
Back
Fore
SplineSet
197 800 m 1xa0
 397 800 l 5
 397 400 l 1x60
 597 400 l 25
 597 300 l 25
 297 300 l 25x50
 297 -200 l 25
 197 -200 l 25
 197 200 l 25x90
 -3 200 l 25
 -3 400 l 25
 197 400 l 1
 197 800 l 1xa0
EndSplineSet
EndChar

StartChar: uni2544
Encoding: 475 9540 474
Width: 638
VWidth: 0
Flags: W
HStem: 200 200<415 622> 300 100<-3 206>
VStem: 197 200<418 834> 197 100<-209 209>
LayerCount: 2
Back
Fore
SplineSet
197 800 m 1x60
 397 800 l 5
 397 400 l 1xa0
 597 400 l 25
 597 200 l 25
 297 200 l 25x90
 297 -200 l 25
 197 -200 l 25
 197 300 l 25x50
 -3 300 l 25
 -3 400 l 25
 197 400 l 1
 197 800 l 1x60
EndSplineSet
EndChar

StartChar: uni2545
Encoding: 476 9541 475
Width: 638
VWidth: 0
Flags: W
HStem: 200 200<-3 206> 300 100<415 622>
VStem: 197 200<-209 209> 197 100<418 834>
LayerCount: 2
Back
Fore
SplineSet
197 800 m 1x90
 297 800 l 5
 297 400 l 1x50
 597 400 l 25
 597 300 l 25
 397 300 l 25x60
 397 -200 l 25
 197 -200 l 25
 197 200 l 25xa0
 -3 200 l 25
 -3 400 l 25
 197 400 l 1
 197 800 l 1x90
EndSplineSet
EndChar

StartChar: uni2546
Encoding: 477 9542 476
Width: 638
VWidth: 0
Flags: W
HStem: 200 200<415 622> 300 100<-3 206>
VStem: 197 200<-209 209> 197 100<418 834>
LayerCount: 2
Back
Fore
SplineSet
197 800 m 1x50
 297 800 l 5
 297 400 l 1x50
 597 400 l 25
 597 200 l 25
 397 200 l 25
 397 -200 l 25
 197 -200 l 25xa0
 197 300 l 25
 -3 300 l 25
 -3 400 l 25
 197 400 l 1
 197 800 l 1x50
EndSplineSet
EndChar

StartChar: uni2547
Encoding: 478 9543 477
Width: 638
VWidth: 0
Flags: W
HStem: 200 200<-3 206 415 622>
VStem: 197 200<418 834> 197 100<-209 209>
LayerCount: 2
Back
Fore
SplineSet
197 800 m 1xc0
 397 800 l 5
 397 400 l 1xc0
 597 400 l 25
 597 200 l 25
 297 200 l 25
 297 -200 l 25
 197 -200 l 25
 197 200 l 25xa0
 -3 200 l 25
 -3 400 l 25
 197 400 l 1
 197 800 l 1xc0
EndSplineSet
EndChar

StartChar: uni2548
Encoding: 479 9544 478
Width: 638
VWidth: 0
Flags: W
HStem: 200 200<-3 206 415 622>
VStem: 197 200<-209 209> 197 100<418 834>
LayerCount: 2
Back
Fore
SplineSet
197 800 m 1xa0
 297 800 l 5
 297 400 l 1xa0
 597 400 l 25
 597 200 l 25
 397 200 l 25
 397 -200 l 25
 197 -200 l 25
 197 200 l 25xc0
 -3 200 l 25
 -3 400 l 25
 197 400 l 1
 197 800 l 1xa0
EndSplineSet
EndChar

StartChar: uni2549
Encoding: 480 9545 479
Width: 638
VWidth: 0
Flags: W
HStem: 200 200<-3 206> 300 100<415 622>
VStem: 197 200<-209 209 418 834>
LayerCount: 2
Back
Fore
SplineSet
197 800 m 1xa0
 397 800 l 5
 397 400 l 1
 597 400 l 25
 597 300 l 25
 397 300 l 25x60
 397 -200 l 25
 197 -200 l 25
 197 200 l 25
 -3 200 l 25
 -3 400 l 25
 197 400 l 1
 197 800 l 1xa0
EndSplineSet
EndChar

StartChar: uni254A
Encoding: 481 9546 480
Width: 638
VWidth: 0
Flags: W
HStem: 200 200<415 622> 300 100<-3 206>
VStem: 197 200<-209 209 418 834>
LayerCount: 2
Back
Fore
SplineSet
197 800 m 1x60
 397 800 l 5
 397 400 l 1
 597 400 l 25
 597 200 l 25
 397 200 l 25xa0
 397 -200 l 25
 197 -200 l 25
 197 300 l 25
 -3 300 l 25
 -3 400 l 25
 197 400 l 1
 197 800 l 1x60
EndSplineSet
EndChar

StartChar: uni254B
Encoding: 482 9547 481
Width: 638
VWidth: 0
Flags: W
HStem: 200 200<-3 206 415 622>
VStem: 197 200<-209 209 418 834>
LayerCount: 2
Back
Fore
SplineSet
197 800 m 1
 397 800 l 5
 397 400 l 1
 597 400 l 25
 597 200 l 25
 397 200 l 25
 397 -200 l 25
 197 -200 l 25
 197 200 l 25
 -3 200 l 25
 -3 400 l 25
 197 400 l 1
 197 800 l 1
EndSplineSet
EndChar

StartChar: uni254C
Encoding: 483 9548 482
Width: 638
VWidth: 0
Flags: W
HStem: 300 100<-3 206 415 622>
LayerCount: 2
Back
Fore
SplineSet
397 400 m 25
 597 400 l 25
 597 300 l 25
 397 300 l 25
 397 400 l 25
-3 400 m 25
 197 400 l 25
 197 300 l 25
 -3 300 l 25
 -3 400 l 25
EndSplineSet
EndChar

StartChar: uni254D
Encoding: 484 9549 483
Width: 638
VWidth: 0
Flags: W
HStem: 200 200<-3 206 415 622>
VStem: -3 200<209 418> 397 200<209 418>
LayerCount: 2
Back
Fore
SplineSet
397 400 m 25
 597 400 l 25
 597 200 l 25
 397 200 l 25
 397 400 l 25
-3 400 m 25
 197 400 l 25
 197 200 l 25
 -3 200 l 25
 -3 400 l 25
EndSplineSet
EndChar

StartChar: uni254E
Encoding: 485 9550 484
Width: 638
VWidth: 0
Flags: W
VStem: 197 100<-209 209 418 834>
LayerCount: 2
Back
Fore
SplineSet
197 200 m 25
 297 200 l 25
 297 -200 l 25
 197 -200 l 25
 197 200 l 25
197 800 m 1
 297 800 l 5
 297 400 l 1
 197 400 l 1
 197 800 l 1
EndSplineSet
EndChar

StartChar: uni254F
Encoding: 486 9551 485
Width: 638
VWidth: 0
Flags: W
VStem: 197 200<-209 209 418 834>
LayerCount: 2
Back
Fore
SplineSet
197 200 m 25
 397 200 l 25
 397 -200 l 25
 197 -200 l 25
 197 200 l 25
197 800 m 1
 397 800 l 5
 397 400 l 1
 197 400 l 1
 197 800 l 1
EndSplineSet
EndChar

StartChar: SF430000
Encoding: 487 9552 486
Width: 638
VWidth: 0
Flags: W
HStem: 200 100<-3 622> 400 100<-3 622>
LayerCount: 2
Back
Fore
SplineSet
-3 300 m 25
 597 300 l 25
 597 200 l 25
 -3 200 l 25
 -3 300 l 25
-3 500 m 25
 597 500 l 25
 597 400 l 25
 -3 400 l 25
 -3 500 l 25
EndSplineSet
EndChar

StartChar: SF240000
Encoding: 488 9553 487
Width: 638
VWidth: 0
Flags: W
VStem: 97 100<-209 834> 297 100<-209 834>
LayerCount: 2
Back
Fore
SplineSet
297 800 m 29
 397 800 l 29
 397 -200 l 1
 297 -200 l 1
 297 800 l 29
97 800 m 29
 197 800 l 29
 197 -200 l 1
 97 -200 l 1
 97 800 l 29
EndSplineSet
EndChar

StartChar: SF510000
Encoding: 489 9554 488
Width: 638
VWidth: 0
Flags: W
HStem: 200 100<309 622> 400 100<309 622>
VStem: 197 100<-209 209 312 418>
LayerCount: 2
Back
Fore
SplineSet
197 500 m 25
 597 500 l 25
 597 400 l 25
 297 400 l 25
 297 300 l 25
 597 300 l 25
 597 200 l 25
 297 200 l 25
 297 -200 l 25
 197 -200 l 25
 197 500 l 25
EndSplineSet
EndChar

StartChar: SF520000
Encoding: 490 9555 489
Width: 638
VWidth: 0
Flags: W
HStem: 300 100<206 309 415 622>
VStem: 97 100<-209 312> 297 100<-209 312>
LayerCount: 2
Back
Fore
SplineSet
97 400 m 25
 597 400 l 25
 597 300 l 25
 397 300 l 25
 397 -200 l 25
 297 -200 l 25
 297 300 l 25
 197 300 l 25
 197 -200 l 25
 97 -200 l 25
 97 400 l 25
EndSplineSet
EndChar

StartChar: SF390000
Encoding: 491 9556 490
Width: 638
VWidth: 0
Flags: W
HStem: 200 100<415 622> 400 100<206 622>
VStem: 97 100<-209 418> 297 100<-209 209>
LayerCount: 2
Back
Fore
SplineSet
297 300 m 25
 597 300 l 25
 597 200 l 25
 397 200 l 25
 397 -200 l 25
 297 -200 l 25
 297 300 l 25
97 500 m 25
 597 500 l 25
 597 400 l 25
 197 400 l 25
 197 -200 l 25
 97 -200 l 25
 97 500 l 25
EndSplineSet
EndChar

StartChar: SF220000
Encoding: 492 9557 491
Width: 638
VWidth: 0
Flags: W
HStem: 200 100<-3 206> 400 100<-3 206>
VStem: -3 300<209 312 418 521> 197 100<-209 209 312 418>
LayerCount: 2
Back
Fore
SplineSet
-3 500 m 25xe0
 297 500 l 25xe0
 297 -200 l 25
 197 -200 l 25
 197 200 l 25xd0
 -3 200 l 25
 -3 300 l 25xe0
 197 300 l 25
 197 400 l 25xd0
 -3 400 l 25
 -3 500 l 25xe0
EndSplineSet
EndChar

StartChar: SF210000
Encoding: 493 9558 492
Width: 638
VWidth: 0
Flags: W
HStem: 300 100<-3 101 206 309>
VStem: 97 100<-209 312> 297 100<-209 312>
LayerCount: 2
Back
Fore
SplineSet
-3 400 m 25
 397 400 l 25
 397 -200 l 25
 297 -200 l 25
 297 300 l 25
 197 300 l 25
 197 -200 l 25
 97 -200 l 25
 97 300 l 25
 -3 300 l 25
 -3 400 l 25
EndSplineSet
EndChar

StartChar: SF250000
Encoding: 494 9559 493
Width: 638
VWidth: 0
Flags: W
HStem: 200 100<-3 101> 400 100<-3 309>
VStem: 97 100<-209 209> 297 100<-209 418>
LayerCount: 2
Back
Fore
SplineSet
-3 300 m 25
 197 300 l 25
 197 -200 l 25
 97 -200 l 25
 97 200 l 25
 -3 200 l 25
 -3 300 l 25
-3 500 m 25
 397 500 l 25
 397 -200 l 25
 297 -200 l 25
 297 400 l 25
 -3 400 l 25
 -3 500 l 25
EndSplineSet
EndChar

StartChar: SF500000
Encoding: 495 9560 494
Width: 638
VWidth: 0
Flags: W
HStem: 200 100<309 622> 400 100<309 622>
VStem: 197 100<312 418 521 834>
LayerCount: 2
Back
Fore
SplineSet
197 800 m 1
 297 800 l 5
 297 500 l 1
 597 500 l 25
 597 400 l 25
 297 400 l 25
 297 300 l 25
 597 300 l 25
 597 200 l 25
 197 200 l 1
 197 800 l 1
EndSplineSet
EndChar

StartChar: SF490000
Encoding: 496 9561 495
Width: 638
VWidth: 0
Flags: W
HStem: 300 100<206 309 415 622>
VStem: 97 100<418 834> 297 100<418 834>
LayerCount: 2
Back
Fore
SplineSet
97 800 m 1
 197 800 l 1
 197 400 l 1
 297 400 l 1
 297 800 l 1
 397 800 l 5
 397 400 l 1
 597 400 l 25
 597 300 l 25
 97 300 l 1
 97 800 l 1
EndSplineSet
EndChar

StartChar: SF380000
Encoding: 497 9562 496
Width: 638
VWidth: 0
Flags: W
HStem: 200 100<206 622> 400 100<415 622>
VStem: 97 100<312 834> 297 100<521 834>
LayerCount: 2
Back
Fore
SplineSet
297 800 m 29
 397 800 l 29
 397 500 l 1
 597 500 l 25
 597 400 l 25
 297 400 l 1
 297 800 l 29
97 800 m 29
 197 800 l 29
 197 300 l 1
 597 300 l 25
 597 200 l 25
 97 200 l 1
 97 800 l 29
EndSplineSet
EndChar

StartChar: SF280000
Encoding: 498 9563 497
Width: 638
VWidth: 0
Flags: W
HStem: 200 100<-3 206> 400 100<-3 206>
VStem: -3 300<209 312 418 521> 197 100<312 418 521 834>
LayerCount: 2
Back
Fore
SplineSet
197 800 m 29xd0
 297 800 l 29xd0
 297 200 l 1
 -3 200 l 25
 -3 300 l 25xe0
 197 300 l 25
 197 400 l 25xd0
 -3 400 l 25
 -3 500 l 25xe0
 197 500 l 1
 197 800 l 29xd0
EndSplineSet
EndChar

StartChar: SF270000
Encoding: 499 9564 498
Width: 638
VWidth: 0
Flags: W
HStem: 300 100<597 700 806 909>
VStem: 697 100<418 834> 897 100<418 834>
LayerCount: 2
Back
Fore
SplineSet
97 800 m 29
 197 800 l 29
 197 400 l 1
 297 400 l 1
 297 800 l 29
 397 800 l 29
 397 300 l 1
 -3 300 l 25
 -3 400 l 25
 97 400 l 1
 97 800 l 29
EndSplineSet
EndChar

StartChar: SF260000
Encoding: 500 9565 499
Width: 638
VWidth: 0
Flags: W
HStem: 200 100<-3 309> 400 100<-3 101>
VStem: 97 100<521 834> 297 100<312 834>
LayerCount: 2
Back
Fore
SplineSet
297 800 m 1
 397 800 l 5
 397 200 l 1
 -3 200 l 25
 -3 300 l 25
 297 300 l 1
 297 800 l 1
97 800 m 1
 197 800 l 1
 197 400 l 1
 -3 400 l 25
 -3 500 l 25
 97 500 l 1
 97 800 l 1
EndSplineSet
EndChar

StartChar: SF360000
Encoding: 501 9566 500
Width: 638
VWidth: 0
Flags: W
HStem: 200 100<309 622> 400 100<309 622>
VStem: 197 100<-209 209 312 418 521 834>
LayerCount: 2
Back
Fore
SplineSet
197 800 m 1
 297 800 l 5
 297 500 l 1
 597 500 l 25
 597 400 l 25
 297 400 l 25
 297 300 l 25
 597 300 l 25
 597 200 l 25
 297 200 l 25
 297 -200 l 25
 197 -200 l 1
 197 800 l 1
EndSplineSet
EndChar

StartChar: SF370000
Encoding: 502 9567 501
Width: 638
VWidth: 0
Flags: W
HStem: 300 100<415 622>
VStem: 97 100<-209 834> 297 100<-209 312 418 834>
LayerCount: 2
Back
Fore
SplineSet
297 800 m 1
 397 800 l 5
 397 400 l 1
 597 400 l 25
 597 300 l 25
 397 300 l 25
 397 -200 l 25
 297 -200 l 1
 297 800 l 1
97 800 m 1
 197 800 l 1
 197 -200 l 1
 97 -200 l 1
 97 800 l 1
EndSplineSet
EndChar

StartChar: SF420000
Encoding: 503 9568 502
Width: 638
VWidth: 0
Flags: W
HStem: 200 100<415 622> 400 100<415 622>
VStem: 97 100<-209 834> 297 300<209 312 418 521> 297 100<-209 209 521 834>
LayerCount: 2
Back
Fore
SplineSet
297 300 m 25xf0
 597 300 l 25
 597 200 l 25xf0
 397 200 l 25
 397 -200 l 25
 297 -200 l 25xe8
 297 300 l 25xf0
297 800 m 29xe8
 397 800 l 29
 397 500 l 1xe8
 597 500 l 25
 597 400 l 25
 297 400 l 1xf0
 297 800 l 29xe8
97 800 m 29
 197 800 l 29
 197 -200 l 1
 97 -200 l 1
 97 800 l 29
EndSplineSet
EndChar

StartChar: SF190000
Encoding: 504 9569 503
Width: 638
VWidth: 0
Flags: W
HStem: 200 100<-3 206> 400 100<-3 206>
VStem: -3 300<209 312 418 521> 197 100<-209 209 312 418 521 834>
LayerCount: 2
Back
Fore
SplineSet
-3 500 m 25xe0
 197 500 l 1
 197 800 l 29
 297 800 l 29
 297 -200 l 1
 197 -200 l 25
 197 200 l 25xd0
 -3 200 l 25
 -3 300 l 25xe0
 197 300 l 25
 197 400 l 25xd0
 -3 400 l 25
 -3 500 l 25xe0
EndSplineSet
EndChar

StartChar: SF200000
Encoding: 505 9570 504
Width: 638
VWidth: 0
Flags: W
HStem: 300 100<-3 101>
VStem: 97 100<-209 312 418 834> 297 100<-209 834>
LayerCount: 2
Back
Fore
SplineSet
297 800 m 29
 397 800 l 29
 397 -200 l 1
 297 -200 l 1
 297 800 l 29
97 800 m 29
 197 800 l 29
 197 -200 l 1
 97 -200 l 25
 97 300 l 25
 -3 300 l 25
 -3 400 l 25
 97 400 l 1
 97 800 l 29
EndSplineSet
EndChar

StartChar: SF230000
Encoding: 506 9571 505
Width: 638
VWidth: 0
Flags: W
HStem: 200 100<-3 101> 400 100<-3 101>
VStem: -3 200<209 312 418 521> 97 100<-209 209 521 834> 297 100<-209 834>
LayerCount: 2
Back
Fore
SplineSet
297 800 m 29xc8
 397 800 l 29
 397 -200 l 1
 297 -200 l 1
 297 800 l 29xc8
-3 300 m 25xe8
 197 300 l 25xe8
 197 -200 l 25
 97 -200 l 25
 97 200 l 25xd8
 -3 200 l 25
 -3 300 l 25xe8
97 800 m 29xd8
 197 800 l 29xd8
 197 400 l 1
 -3 400 l 25
 -3 500 l 25xe8
 97 500 l 1
 97 800 l 29xd8
EndSplineSet
EndChar

StartChar: SF470000
Encoding: 507 9572 506
Width: 638
VWidth: 0
Flags: W
HStem: 200 100<-3 206 309 622> 400 100<-3 622>
VStem: 197 100<-209 209>
LayerCount: 2
Back
Fore
SplineSet
-3 300 m 25
 597 300 l 25
 597 200 l 25
 297 200 l 25
 297 -200 l 25
 197 -200 l 25
 197 200 l 25
 -3 200 l 25
 -3 300 l 25
-3 500 m 25
 597 500 l 25
 597 400 l 25
 -3 400 l 25
 -3 500 l 25
EndSplineSet
EndChar

StartChar: SF480000
Encoding: 508 9573 507
Width: 638
VWidth: 0
Flags: W
HStem: 300 100<-3 101 206 309 415 622>
VStem: 97 100<-209 312> 297 100<-209 312>
LayerCount: 2
Back
Fore
SplineSet
-3 400 m 25
 597 400 l 25
 597 300 l 25
 397 300 l 25
 397 -200 l 25
 297 -200 l 25
 297 300 l 25
 197 300 l 25
 197 -200 l 25
 97 -200 l 25
 97 300 l 25
 -3 300 l 25
 -3 400 l 25
EndSplineSet
EndChar

StartChar: SF410000
Encoding: 509 9574 508
Width: 638
VWidth: 0
Flags: W
HStem: 200 100<-3 101 415 622> 400 100<-3 622>
VStem: 97 100<-209 209> 297 100<-209 209>
LayerCount: 2
Back
Fore
SplineSet
297 300 m 25
 597 300 l 25
 597 200 l 25
 397 200 l 25
 397 -200 l 25
 297 -200 l 25
 297 300 l 25
-3 300 m 25
 197 300 l 25
 197 -200 l 25
 97 -200 l 25
 97 200 l 25
 -3 200 l 25
 -3 300 l 25
-3 500 m 25
 597 500 l 25
 597 400 l 25
 -3 400 l 25
 -3 500 l 25
EndSplineSet
EndChar

StartChar: SF450000
Encoding: 510 9575 509
Width: 638
VWidth: 0
Flags: W
HStem: 200 100<-3 622> 400 100<-3 206 309 622>
VStem: 197 100<521 834>
LayerCount: 2
Back
Fore
SplineSet
-3 300 m 25
 597 300 l 25
 597 200 l 25
 -3 200 l 25
 -3 300 l 25
-3 500 m 25
 197 500 l 1
 197 800 l 29
 297 800 l 29
 297 500 l 1
 597 500 l 25
 597 400 l 25
 -3 400 l 25
 -3 500 l 25
EndSplineSet
EndChar

StartChar: SF460000
Encoding: 511 9576 510
Width: 638
VWidth: 0
Flags: W
HStem: 300 100<-3 101 206 309 415 622>
VStem: 97 100<418 834> 297 100<418 834>
LayerCount: 2
Back
Fore
SplineSet
-3 400 m 25
 97 400 l 1
 97 800 l 29
 197 800 l 29
 197 400 l 1
 297 400 l 1
 297 800 l 29
 397 800 l 29
 397 400 l 1
 597 400 l 25
 597 300 l 25
 -3 300 l 25
 -3 400 l 25
EndSplineSet
EndChar

StartChar: SF400000
Encoding: 512 9577 511
Width: 638
VWidth: 0
Flags: W
HStem: 200 100<-3 622> 400 100<-3 101 415 622>
VStem: 97 100<521 834> 297 100<521 834>
LayerCount: 2
Back
Fore
SplineSet
-3 300 m 25
 597 300 l 25
 597 200 l 25
 -3 200 l 25
 -3 300 l 25
297 800 m 29
 397 800 l 29
 397 500 l 1
 597 500 l 25
 597 400 l 25
 297 400 l 1
 297 800 l 29
-3 500 m 25
 97 500 l 1
 97 800 l 29
 197 800 l 29
 197 400 l 1
 -3 400 l 25
 -3 500 l 25
EndSplineSet
EndChar

StartChar: SF540000
Encoding: 513 9578 512
Width: 638
VWidth: 0
Flags: W
HStem: 200 100<-3 206 309 622> 400 100<-3 206 309 622>
VStem: 197 100<-209 209 312 418 521 834>
LayerCount: 2
Back
Fore
SplineSet
-3 500 m 25
 197 500 l 1
 197 800 l 29
 297 800 l 29
 297 500 l 1
 597 500 l 25
 597 400 l 25
 297 400 l 25
 297 300 l 25
 597 300 l 25
 597 200 l 25
 297 200 l 25
 297 -200 l 25
 197 -200 l 25
 197 200 l 25
 -3 200 l 25
 -3 300 l 25
 197 300 l 25
 197 400 l 25
 -3 400 l 25
 -3 500 l 25
EndSplineSet
EndChar

StartChar: SF530000
Encoding: 514 9579 513
Width: 638
VWidth: 0
Flags: W
HStem: 300 100<-3 101 206 309 415 622>
VStem: 97 100<-209 312 418 834> 297 100<-209 312 418 834>
LayerCount: 2
Back
Fore
SplineSet
-3 400 m 25
 97 400 l 1
 97 800 l 29
 197 800 l 29
 197 400 l 1
 297 400 l 1
 297 800 l 29
 397 800 l 29
 397 400 l 1
 597 400 l 25
 597 300 l 25
 397 300 l 25
 397 -200 l 25
 297 -200 l 25
 297 300 l 25
 197 300 l 25
 197 -200 l 25
 97 -200 l 25
 97 300 l 25
 -3 300 l 25
 -3 400 l 25
EndSplineSet
EndChar

StartChar: SF440000
Encoding: 515 9580 514
Width: 638
VWidth: 0
Flags: W
HStem: 200 100<-3 101 415 622> 400 100<-3 101 415 622>
VStem: -3 200<209 312 418 521> 97 100<-209 209 521 834> 297 300<209 312 418 521> 297 100<-209 209 521 834>
LayerCount: 2
Back
Fore
SplineSet
297 300 m 25xc8
 597 300 l 25
 597 200 l 25xc8
 397 200 l 25
 397 -200 l 25
 297 -200 l 25xc4
 297 300 l 25xc8
-3 300 m 25xe0
 197 300 l 25xe0
 197 -200 l 25
 97 -200 l 25
 97 200 l 25xd0
 -3 200 l 25
 -3 300 l 25xe0
297 800 m 29xc4
 397 800 l 29
 397 500 l 1xc4
 597 500 l 25
 597 400 l 25
 297 400 l 1xc8
 297 800 l 29xc4
-3 500 m 25xe0
 97 500 l 1
 97 800 l 29
 197 800 l 29xd0
 197 400 l 1
 -3 400 l 25
 -3 500 l 25xe0
EndSplineSet
EndChar

StartChar: uni256D
Encoding: 516 9581 515
Width: 638
VWidth: 0
Flags: W
HStem: 200 100<309 415> 300 100<415 622>
VStem: 197 100<-209 209> 297 100<209 312>
LayerCount: 2
Back
Fore
SplineSet
197 -200 m 25xa0
 197 200 l 25
 297 200 l 25xa0
 297 300 l 25
 397 300 l 25x90
 397 400 l 25
 597 400 l 25
 597 300 l 25x50
 397 300 l 25
 397 200 l 25x90
 297 200 l 25
 297 -200 l 25
 197 -200 l 25xa0
EndSplineSet
EndChar

StartChar: uni256E
Encoding: 517 9582 516
Width: 638
VWidth: 0
Flags: W
HStem: 200 100<101 206> 300 100<-3 101>
VStem: -3 100<312 418> 97 100<209 312> 197 100<-209 209>
LayerCount: 2
Back
Fore
SplineSet
-3 400 m 25x60
 97 400 l 25x60
 97 300 l 25xa0
 197 300 l 25
 197 200 l 25x90
 297 200 l 25
 297 -200 l 25
 197 -200 l 25x88
 197 200 l 25
 97 200 l 25x90
 97 300 l 25xa0
 -3 300 l 25
 -3 400 l 25x60
EndSplineSet
EndChar

StartChar: uni256F
Encoding: 518 9583 517
Width: 638
VWidth: 0
Flags: W
HStem: 300 100<-3 101> 400 100<101 206>
VStem: -3 100<312 418> 97 100<418 521> 197 100<521 834>
LayerCount: 2
Back
Fore
SplineSet
-3 400 m 25xa0
 97 400 l 25xa0
 97 500 l 25
 197 500 l 1x50
 197 800 l 29
 297 800 l 29
 297 500 l 1x48
 197 500 l 25
 197 400 l 25x50
 97 400 l 25
 97 300 l 25
 -3 300 l 25
 -3 400 l 25xa0
EndSplineSet
EndChar

StartChar: uni2570
Encoding: 519 9584 518
Width: 638
VWidth: 0
Flags: W
HStem: 300 100<415 622> 400 100<309 415>
VStem: 197 100<521 834> 297 100<418 521>
LayerCount: 2
Back
Fore
SplineSet
197 800 m 29x60
 297 800 l 29
 297 500 l 1x60
 397 500 l 25x50
 397 400 l 25
 597 400 l 25
 597 300 l 25
 397 300 l 25
 397 400 l 25x90
 297 400 l 25x50
 297 500 l 25
 197 500 l 1
 197 800 l 29x60
EndSplineSet
EndChar

StartChar: uni2571
Encoding: 520 9585 519
Width: 638
VWidth: 0
Flags: W
HStem: 200 100<206 309> 300 100<309 415>
VStem: -3 100<-209 0> 97 100<0 209> 197 100<209 312> 297 100<312 418> 397 100<418 625> 497 100<625 834>
LayerCount: 2
Back
Fore
SplineSet
497 800 m 1x41
 597 800 l 5
 597 600 l 1x41
 497 600 l 25
 497 400 l 25x42
 397 400 l 25
 397 300 l 25x44
 297 300 l 25
 297 200 l 25x88
 197 200 l 25
 197 0 l 25x90
 97 0 l 25
 97 -200 l 25
 -3 -200 l 25
 -3 0 l 25
 97 0 l 25xa0
 97 200 l 25
 197 200 l 25x90
 197 300 l 25
 297 300 l 25x88
 297 400 l 25
 397 400 l 25x44
 397 600 l 25
 497 600 l 1x42
 497 800 l 1x41
EndSplineSet
EndChar

StartChar: uni2572
Encoding: 521 9586 520
Width: 638
VWidth: 0
Flags: W
HStem: 200 100<309 415> 300 100<206 309>
VStem: -3 100<625 834> 97 100<418 625> 197 100<312 418> 297 100<209 312> 397 100<0 209> 497 100<-209 0>
LayerCount: 2
Back
Fore
SplineSet
-3 800 m 1x60
 97 800 l 5
 97 600 l 1x60
 197 600 l 25
 197 400 l 25x50
 297 400 l 25x48
 297 300 l 25x88
 397 300 l 25
 397 200 l 25x84
 497 200 l 25
 497 0 l 25x82
 597 0 l 25
 597 -200 l 25
 497 -200 l 25x81
 497 0 l 25
 397 0 l 25x82
 397 200 l 25
 297 200 l 25x84
 297 300 l 25x88
 197 300 l 25x48
 197 400 l 25
 97 400 l 25x50
 97 600 l 25
 -3 600 l 1
 -3 800 l 1x60
EndSplineSet
EndChar

StartChar: uni2573
Encoding: 522 9587 521
Width: 638
VWidth: 0
Flags: W
HStem: -200 200<-3 101 518 622> 0 200<101 206 415 518> 400 200<101 206 415 518> 600 200<-3 101 518 622>
VStem: -3 100<-209 0 625 834> 97 100<0 209 418 625> 397 100<0 209 418 625> 497 100<-209 0 625 834>
LayerCount: 2
Back
Fore
SplineSet
-3 800 m 1x18
 97 800 l 1x18
 97 600 l 1x28
 197 600 l 25
 197 400 l 25
 397 400 l 25
 397 600 l 25
 497 600 l 1x26
 497 800 l 1
 597 800 l 5
 597 600 l 1x11
 497 600 l 25
 497 400 l 25
 397 400 l 25
 397 200 l 25
 497 200 l 25x62
 497 0 l 25x82
 597 0 l 25
 597 -200 l 25
 497 -200 l 25x81
 497 0 l 25x82
 397 0 l 25
 397 200 l 25
 197 200 l 25
 197 0 l 25x46
 97 0 l 25
 97 -200 l 25
 -3 -200 l 25
 -3 0 l 25
 97 0 l 25x88
 97 200 l 25
 197 200 l 25
 197 400 l 25
 97 400 l 25x64
 97 600 l 25x68
 -3 600 l 1
 -3 800 l 1x18
EndSplineSet
EndChar

StartChar: uni2574
Encoding: 523 9588 522
Width: 638
VWidth: 0
Flags: W
HStem: 300 100<-3 309>
VStem: -3 300<312 418>
LayerCount: 2
Back
Fore
SplineSet
-3 400 m 25
 297 400 l 25
 297 300 l 25
 -3 300 l 25
 -3 400 l 25
EndSplineSet
EndChar

StartChar: uni2575
Encoding: 524 9589 523
Width: 638
VWidth: 0
Flags: W
VStem: 197 100<312 834>
LayerCount: 2
Back
Fore
SplineSet
197 800 m 1
 297 800 l 5
 297 300 l 1
 197 300 l 1
 197 800 l 1
EndSplineSet
EndChar

StartChar: uni2576
Encoding: 525 9590 524
Width: 638
VWidth: 0
Flags: W
HStem: 300 100<206 622>
LayerCount: 2
Back
Fore
SplineSet
197 400 m 25
 597 400 l 25
 597 300 l 25
 197 300 l 25
 197 400 l 25
EndSplineSet
EndChar

StartChar: uni2577
Encoding: 526 9591 525
Width: 638
VWidth: 0
Flags: W
VStem: 197 100<-209 418>
LayerCount: 2
Back
Fore
SplineSet
197 400 m 25
 297 400 l 25
 297 -200 l 25
 197 -200 l 25
 197 400 l 25
EndSplineSet
EndChar

StartChar: uni2578
Encoding: 527 9592 526
Width: 638
VWidth: 0
Flags: W
HStem: 200 200<-3 309>
VStem: -3 300<209 418>
LayerCount: 2
Back
Fore
SplineSet
-3 400 m 25
 297 400 l 25
 297 200 l 25
 -3 200 l 25
 -3 400 l 25
EndSplineSet
EndChar

StartChar: uni2579
Encoding: 528 9593 527
Width: 638
VWidth: 0
Flags: W
VStem: 197 200<312 834>
LayerCount: 2
Back
Fore
SplineSet
197 800 m 1
 397 800 l 5
 397 300 l 1
 197 300 l 1
 197 800 l 1
EndSplineSet
EndChar

StartChar: uni257A
Encoding: 529 9594 528
Width: 638
VWidth: 0
Flags: W
HStem: 200 200<206 622>
LayerCount: 2
Back
Fore
SplineSet
197 400 m 25
 597 400 l 25
 597 200 l 25
 197 200 l 25
 197 400 l 25
EndSplineSet
EndChar

StartChar: uni257B
Encoding: 530 9595 529
Width: 638
VWidth: 0
Flags: W
VStem: 197 200<-209 418>
LayerCount: 2
Back
Fore
SplineSet
197 400 m 25
 397 400 l 25
 397 -200 l 25
 197 -200 l 25
 197 400 l 25
EndSplineSet
EndChar

StartChar: uni257C
Encoding: 531 9596 530
Width: 638
VWidth: 0
Flags: W
HStem: 200 200<206 622> 300 100<-3 206>
LayerCount: 2
Back
Fore
SplineSet
-3 400 m 25x40
 597 400 l 25
 597 200 l 25
 197 200 l 25x80
 197 300 l 25
 -3 300 l 25
 -3 400 l 25x40
EndSplineSet
EndChar

StartChar: uni257D
Encoding: 532 9597 531
Width: 638
VWidth: 0
Flags: W
VStem: 197 200<-209 418> 197 100<418 834>
LayerCount: 2
Back
Fore
SplineSet
197 800 m 1x40
 297 800 l 5
 297 400 l 1x40
 397 400 l 25
 397 -200 l 25
 197 -200 l 1x80
 197 800 l 1x40
EndSplineSet
EndChar

StartChar: uni257E
Encoding: 533 9598 532
Width: 638
VWidth: 0
Flags: W
HStem: 200 200<-3 309> 300 100<309 622>
LayerCount: 2
Back
Fore
SplineSet
-3 400 m 25x80
 597 400 l 25
 597 300 l 25
 297 300 l 25x40
 297 200 l 25
 -3 200 l 25
 -3 400 l 25x80
EndSplineSet
EndChar

StartChar: uni257F
Encoding: 534 9599 533
Width: 638
VWidth: 0
Flags: W
VStem: 197 200<312 834> 197 100<-209 312>
LayerCount: 2
Back
Fore
SplineSet
197 800 m 1x80
 397 800 l 5
 397 300 l 1x80
 297 300 l 25
 297 -200 l 25
 197 -200 l 1x40
 197 800 l 1x80
EndSplineSet
EndChar

StartChar: block
Encoding: 535 9608 534
Width: 638
VWidth: 0
Flags: W
VStem: -3 600<-209 834>
LayerCount: 2
Back
Fore
SplineSet
-3 800 m 1
 597 800 l 5
 597 -200 l 1
 -3 -200 l 1
 -3 800 l 1
EndSplineSet
EndChar

